<svg width="263" height="88" viewBox="0 0 263 88" fill="none" xmlns="http://www.w3.org/2000/svg">
<path d="M27.2265 66.2639C27.834 65.9407 28.5133 65.7715 29.2034 65.7715L63.3694 65.7715C64.0595 65.7715 64.7388 65.9407 65.3463 66.2639C69.1569 68.2912 67.698 74 63.3694 74L29.2034 74C24.8747 74 23.4159 68.2912 27.2265 66.2639Z" fill="#211FA6"/>
<path d="M14.5058 51.8637C15.1033 51.5405 15.7715 51.3713 16.4502 51.3713L76.1253 51.3713C76.8039 51.3713 77.4719 51.5405 78.0693 51.8637C81.8178 53.8911 80.3829 59.5999 76.1253 59.5999L16.4502 59.5999C12.1927 59.5999 10.7579 53.8911 14.5058 51.8637Z" fill="#211FA6"/>
<path d="M10.4761 16.3129C9.81915 16.9242 9.25261 17.6429 8.80514 18.4519L1.08948 32.4026C-2.0897 38.1509 2.06946 45.2002 8.64022 45.2002L83.9313 45.2002C90.5017 45.2002 94.661 38.1509 91.4816 32.4026L83.7661 18.4519C83.2783 17.5703 82.6496 16.796 81.9161 16.151C74.5011 20.7989 55.9659 31.7588 46.0668 31.7588C36.281 31.7588 18.0554 21.0481 10.4761 16.3129Z" fill="#211FA6"/>
<path d="M13.7046 14.4175C21.8742 19.3763 37.4894 28.1159 46.068 28.1159C54.698 28.1159 70.4489 19.2714 78.5776 14.3289C77.8199 14.1134 77.0266 14 76.217 14L16.357 14C15.4426 14 14.5492 14.1446 13.7046 14.4175Z" fill="#211FA6"/>
<path d="M120.509 46.4725C118.634 44.7225 117.571 42.2225 117.571 39.5975V39.285C117.571 34.91 120.696 31.16 125.009 30.4725C127.884 29.9725 130.759 30.91 132.821 32.91L133.571 33.66L134.321 32.91C136.321 30.91 139.259 29.9725 142.071 30.4725C146.384 31.16 149.571 34.91 149.571 39.285V39.5975C149.571 42.2225 148.446 44.7225 146.571 46.4725L135.259 57.035C134.821 57.4725 134.196 57.66 133.571 57.66C132.884 57.66 132.259 57.4725 131.821 57.035L120.509 46.4725Z" fill="#D63638"/>
<g clip-path="url(#clip0_3602_3790)">
<path d="M259.201 36.7826H256.728C256.508 36.7826 256.288 36.7094 255.977 36.7094C255.006 36.4895 254.108 36.1049 253.211 35.6652C252.991 35.5187 252.771 35.4454 252.606 35.2989C252.533 35.2256 252.386 35.1523 252.313 35.079C252.167 35.0058 252.093 34.9325 251.947 34.786C251.58 34.4929 251.269 34.1815 250.903 33.8151L250.829 33.7418C250.609 33.522 250.463 33.3022 250.298 33.0641C250.078 32.771 249.932 32.4596 249.694 32.1665C249.474 31.7268 249.254 31.2689 249.016 30.7377C248.943 30.4446 248.796 30.1332 248.723 29.8401C248.649 29.6203 248.649 29.4004 248.576 29.2356C248.649 29.0158 248.576 28.7044 248.576 28.4113V28.1915C248.576 27.2939 248.649 26.4696 248.869 25.6452C249.236 24.3813 249.84 23.1723 250.518 22.0549C250.664 21.9084 250.811 21.7618 250.884 21.5237L252.221 20.0949C253.339 18.9775 253.412 17.109 252.368 15.9C251.031 14.2514 249.529 12.6761 247.88 11.2656L202.616 55.9983C201.865 56.676 200.674 56.2181 200.674 55.174C200.748 47.3155 200.894 33.9433 200.968 27.2023C200.968 26.0849 202.47 25.7002 203.056 26.6711L207.764 34.8959C208.13 35.5736 209.027 35.6469 209.559 35.1157L230.57 14.1049C230.57 14.1049 230.496 14.1049 230.496 14.0316C230.203 13.885 229.965 13.7385 229.672 13.592C229.525 13.4454 229.306 13.3721 229.141 13.2256C228.921 13.079 228.701 12.8592 228.463 12.6944C228.463 12.6944 228.414 12.6455 228.316 12.5478C227.639 11.8701 227.199 11.2106 226.741 10.4596C226.063 9.19562 225.624 7.84008 225.404 6.50286C225.331 6.28304 225.331 5.97164 225.257 5.75182V3.35215C225.257 1.63025 223.993 0.293036 222.345 0.128173C221.081 0.0549007 219.798 -0.0183716 218.535 -0.0183716C217.344 -0.0183716 216.062 0.0549007 214.871 0.128173C213.222 0.274718 211.958 1.63025 211.958 3.26056C211.958 4.23142 211.885 5.34882 211.665 6.48454C211.445 7.82176 210.987 9.1773 210.328 10.4412C209.962 11.1923 209.43 11.8701 208.753 12.4562C208.753 12.4562 208.704 12.5051 208.606 12.6028C208.386 12.8226 208.167 12.9691 207.928 13.134C207.782 13.2805 207.562 13.3538 207.397 13.5004C207.104 13.6469 206.866 13.7935 206.573 13.94C206.133 14.1598 205.602 14.3796 205.144 14.4712C204.778 14.6178 204.466 14.691 204.1 14.691C203.807 14.7643 203.569 14.7643 203.276 14.7643H201.774C201.627 14.7643 201.48 14.7643 201.334 14.691C201.187 14.691 201.041 14.6178 200.968 14.6178C200.748 14.5445 200.528 14.5445 200.29 14.4712C199.319 14.1781 198.421 13.7935 197.597 13.3538C197.157 13.134 196.773 12.8226 196.406 12.5295C196.26 12.383 196.113 12.3097 195.967 12.1631L194.465 10.5878C193.347 9.39712 191.405 9.25057 190.123 10.2947C188.108 12.0166 186.24 13.885 184.591 15.9C183.547 17.164 183.694 18.9591 184.738 20.0949L186.075 21.5237C186.221 21.6702 186.368 21.8168 186.441 22.0549C187.119 23.099 187.779 24.3813 188.09 25.6452C188.31 26.4696 188.383 27.2939 188.383 28.1915V28.4113C188.383 28.7044 188.31 28.9425 188.31 29.2356C188.31 29.4554 188.236 29.6752 188.163 29.8401C188.09 30.1332 188.017 30.4446 187.87 30.7377C187.724 31.2689 187.504 31.7085 187.192 32.1665C187.046 32.4596 186.826 32.771 186.588 33.0641C186.441 33.2839 186.221 33.5037 186.057 33.7418L185.983 33.8151C185.69 34.1815 185.306 34.4929 184.939 34.786C184.793 34.8592 184.719 35.0058 184.573 35.079C184.5 35.1523 184.353 35.2256 184.28 35.2989C184.06 35.4454 183.84 35.5187 183.675 35.6652C182.778 36.1049 181.88 36.4895 180.909 36.7094C180.689 36.7094 180.47 36.7826 180.158 36.7826H177.685C176.11 36.7826 174.699 37.9733 174.553 39.6219C174.626 41.0507 174.553 42.5345 174.553 43.9633C174.553 45.154 174.626 46.363 174.699 47.5536C174.846 49.2023 176.128 50.4662 177.759 50.4662L179.993 50.5395C180.213 50.5395 180.433 50.5395 180.671 50.6128C181.569 50.8326 182.393 51.144 183.217 51.5104C183.968 51.8767 184.646 52.4079 185.306 53.0124C185.306 53.0124 185.354 53.0613 185.452 53.159C185.672 53.3788 185.818 53.5986 185.983 53.7635C186.13 53.91 186.276 54.0566 186.35 54.2947C186.496 54.5878 186.716 54.8259 186.881 55.119C187.101 55.5586 187.321 56.0166 187.485 56.5478C187.632 56.9142 187.705 57.2256 187.779 57.592C187.852 57.885 187.852 58.1232 187.925 58.4163V58.4895C187.998 58.9292 187.998 59.4604 187.925 59.9183V60.358C187.925 60.5045 187.925 60.6511 187.852 60.7243C187.779 60.9442 187.779 61.164 187.705 61.4021C187.485 62.373 187.101 63.2706 186.661 64.0949C186.515 64.388 186.368 64.6994 186.13 64.9192C185.983 65.0657 185.91 65.2855 185.69 65.4504L184.261 67.0258C183.144 68.1432 182.997 69.9383 183.968 71.2206C185.544 73.2356 187.339 75.104 189.207 76.7526L235.259 31.5253C236.01 30.8476 237.201 31.3055 237.201 32.3497C237.127 40.2081 236.981 53.5803 236.908 60.3213C236.908 61.4387 235.405 61.8234 234.819 60.8526L230.112 52.6278C229.745 51.95 228.848 51.8767 228.316 52.4079L206.408 74.3163C206.408 74.3163 206.481 74.3163 206.481 74.3896C206.701 74.5362 206.921 74.6827 207.159 74.9208L207.232 74.9941C207.599 75.2872 207.91 75.5986 208.203 75.965C208.276 76.1115 208.423 76.1848 208.496 76.3313C208.57 76.4046 208.643 76.5512 208.716 76.6244C208.863 76.8442 208.936 76.9908 209.082 77.2289C209.614 78.0532 209.98 78.9508 210.2 79.9217C210.639 81.5703 210.804 83.2189 210.804 84.6294C210.804 86.278 212.068 87.6153 213.644 87.7618C215.219 87.9083 216.868 88.0549 218.498 88.0549C220.128 88.0549 221.722 87.9816 223.352 87.7618C224.928 87.6153 226.191 86.2597 226.191 84.6294C226.191 83.2006 226.338 81.497 226.796 79.9217C227.016 79.0241 227.4 78.1265 227.913 77.2289C228.06 77.0091 228.133 76.8626 228.28 76.6244C228.353 76.5512 228.426 76.4046 228.5 76.3313C228.573 76.1848 228.719 76.1115 228.793 75.965C229.086 75.5986 229.397 75.2872 229.764 74.9941L229.837 74.9208C230.057 74.7743 230.276 74.5545 230.515 74.3896C230.808 74.1698 231.119 74.0233 231.485 73.8584C231.925 73.6386 232.383 73.4188 232.914 73.2539C233.207 73.1806 233.519 73.1074 233.812 73.0341C234.032 72.9608 234.251 72.9608 234.49 72.9608C234.783 72.9608 235.021 72.8875 235.314 72.8875H235.534C236.431 72.8875 237.256 73.0341 238.08 73.2539C239.197 73.6203 240.241 74.1515 241.212 74.8292C241.359 74.9758 241.579 75.1223 241.744 75.2689L243.319 76.9175C244.51 78.1082 246.378 78.1815 247.66 77.1373C249.675 75.3422 251.47 73.4737 253.119 71.3855C254.09 70.1215 253.943 68.3263 252.826 67.1906L251.397 65.7618C251.251 65.6153 251.104 65.4687 250.958 65.2306C250.811 64.9375 250.591 64.6994 250.426 64.4063C249.987 63.582 249.602 62.6844 249.382 61.7135C249.309 61.4937 249.236 61.2739 249.236 61.0357C249.236 60.8892 249.162 60.7427 249.162 60.6694V58.7277C249.162 58.4346 249.236 58.1964 249.309 57.9034C249.382 57.537 249.455 57.2256 249.602 56.8592C249.749 56.4196 249.968 55.8884 250.206 55.4304C250.353 55.1373 250.5 54.8992 250.738 54.6061C250.884 54.4596 250.958 54.2397 251.104 54.0749C251.251 53.8551 251.47 53.6353 251.635 53.4704C251.635 53.4704 251.684 53.4215 251.782 53.3238C252.386 52.7193 253.119 52.2064 253.87 51.8218C254.694 51.3821 255.519 51.0707 256.416 50.9242C256.636 50.8509 256.856 50.8509 257.094 50.8509L259.329 50.7776C260.978 50.7044 262.241 49.4404 262.388 47.8651C262.461 46.6744 262.535 45.4654 262.535 44.2747C262.535 42.7726 262.461 41.3621 262.315 39.9333C262.095 38.0649 260.739 36.8742 259.182 36.8009L259.201 36.7826Z" fill="#FE4715"/>
</g>
<defs>
<clipPath id="clip0_3602_3790">
<rect width="88" height="88" fill="white" transform="translate(174.571)"/>
</clipPath>
</defs>
</svg>
