<svg width="367" height="206" viewBox="0 0 367 206" fill="none" xmlns="http://www.w3.org/2000/svg">
<g clip-path="url(#clip0_3599_6601)">
<rect width="366.667" height="206" rx="4" fill="#F3F4F6"/>
<circle cx="231.365" cy="0.773252" r="0.773252" fill="#E2E8F0"/>
<circle cx="231.365" cy="5.41278" r="0.773252" fill="#E2E8F0"/>
<circle cx="231.365" cy="10.0525" r="0.773252" fill="#E2E8F0"/>
<circle cx="231.365" cy="14.6922" r="0.773252" fill="#E2E8F0"/>
<circle cx="231.365" cy="19.3309" r="0.773252" fill="#E2E8F0"/>
<circle cx="231.365" cy="23.9705" r="0.773252" fill="#E2E8F0"/>
<circle cx="231.365" cy="28.6103" r="0.773252" fill="#E2E8F0"/>
<circle cx="231.365" cy="33.2498" r="0.773252" fill="#E2E8F0"/>
<circle cx="231.365" cy="37.8893" r="0.773252" fill="#E2E8F0"/>
<circle cx="231.365" cy="42.5291" r="0.773252" fill="#E2E8F0"/>
<circle cx="231.365" cy="47.1688" r="0.773252" fill="#E2E8F0"/>
<circle cx="231.365" cy="51.8074" r="0.773252" fill="#E2E8F0"/>
<circle cx="236.005" cy="0.773252" r="0.773252" fill="#E2E8F0"/>
<circle cx="236.005" cy="5.41278" r="0.773252" fill="#E2E8F0"/>
<circle cx="236.005" cy="10.0525" r="0.773252" fill="#E2E8F0"/>
<circle cx="236.005" cy="14.6922" r="0.773252" fill="#E2E8F0"/>
<circle cx="236.005" cy="19.3309" r="0.773252" fill="#E2E8F0"/>
<circle cx="236.005" cy="23.9705" r="0.773252" fill="#E2E8F0"/>
<circle cx="236.005" cy="28.6103" r="0.773252" fill="#E2E8F0"/>
<circle cx="236.005" cy="33.2498" r="0.773252" fill="#E2E8F0"/>
<circle cx="236.005" cy="37.8893" r="0.773252" fill="#E2E8F0"/>
<circle cx="236.005" cy="42.5291" r="0.773252" fill="#E2E8F0"/>
<circle cx="236.005" cy="47.1688" r="0.773252" fill="#E2E8F0"/>
<circle cx="236.005" cy="51.8074" r="0.773252" fill="#E2E8F0"/>
<circle cx="240.644" cy="0.773252" r="0.773252" fill="#E2E8F0"/>
<circle cx="240.644" cy="5.41278" r="0.773252" fill="#E2E8F0"/>
<circle cx="240.644" cy="10.0525" r="0.773252" fill="#E2E8F0"/>
<circle cx="240.644" cy="14.6922" r="0.773252" fill="#E2E8F0"/>
<circle cx="240.644" cy="19.3309" r="0.773252" fill="#E2E8F0"/>
<circle cx="240.644" cy="23.9705" r="0.773252" fill="#E2E8F0"/>
<circle cx="240.644" cy="28.6103" r="0.773252" fill="#E2E8F0"/>
<circle cx="240.644" cy="33.2498" r="0.773252" fill="#E2E8F0"/>
<circle cx="240.644" cy="37.8893" r="0.773252" fill="#E2E8F0"/>
<circle cx="240.644" cy="42.5291" r="0.773252" fill="#E2E8F0"/>
<circle cx="240.644" cy="47.1688" r="0.773252" fill="#E2E8F0"/>
<circle cx="240.644" cy="51.8074" r="0.773252" fill="#E2E8F0"/>
<circle cx="245.284" cy="0.773252" r="0.773252" fill="#E2E8F0"/>
<circle cx="245.284" cy="5.41278" r="0.773252" fill="#E2E8F0"/>
<circle cx="245.284" cy="10.0525" r="0.773252" fill="#E2E8F0"/>
<circle cx="245.284" cy="14.6922" r="0.773252" fill="#E2E8F0"/>
<circle cx="245.284" cy="19.3309" r="0.773252" fill="#E2E8F0"/>
<circle cx="245.284" cy="23.9705" r="0.773252" fill="#E2E8F0"/>
<circle cx="245.284" cy="28.6103" r="0.773252" fill="#E2E8F0"/>
<circle cx="245.284" cy="33.2498" r="0.773252" fill="#E2E8F0"/>
<circle cx="245.284" cy="37.8893" r="0.773252" fill="#E2E8F0"/>
<circle cx="245.284" cy="42.5291" r="0.773252" fill="#E2E8F0"/>
<circle cx="245.284" cy="47.1688" r="0.773252" fill="#E2E8F0"/>
<circle cx="245.284" cy="51.8074" r="0.773252" fill="#E2E8F0"/>
<circle cx="249.924" cy="0.773252" r="0.773252" fill="#E2E8F0"/>
<circle cx="249.924" cy="5.41278" r="0.773252" fill="#E2E8F0"/>
<circle cx="249.924" cy="10.0525" r="0.773252" fill="#E2E8F0"/>
<circle cx="249.924" cy="14.6922" r="0.773252" fill="#E2E8F0"/>
<circle cx="249.924" cy="19.3309" r="0.773252" fill="#E2E8F0"/>
<circle cx="249.924" cy="23.9705" r="0.773252" fill="#E2E8F0"/>
<circle cx="249.924" cy="28.6103" r="0.773252" fill="#E2E8F0"/>
<circle cx="249.924" cy="33.2498" r="0.773252" fill="#E2E8F0"/>
<circle cx="249.924" cy="37.8893" r="0.773252" fill="#E2E8F0"/>
<circle cx="249.924" cy="42.5291" r="0.773252" fill="#E2E8F0"/>
<circle cx="249.924" cy="47.1688" r="0.773252" fill="#E2E8F0"/>
<circle cx="249.924" cy="51.8074" r="0.773252" fill="#E2E8F0"/>
<circle cx="254.562" cy="0.773252" r="0.773252" fill="#E2E8F0"/>
<circle cx="254.563" cy="5.41278" r="0.773252" fill="#E2E8F0"/>
<circle cx="254.562" cy="10.0525" r="0.773252" fill="#E2E8F0"/>
<circle cx="254.562" cy="14.6922" r="0.773252" fill="#E2E8F0"/>
<circle cx="254.562" cy="19.3309" r="0.773252" fill="#E2E8F0"/>
<circle cx="254.562" cy="23.9705" r="0.773252" fill="#E2E8F0"/>
<circle cx="254.563" cy="28.6103" r="0.773252" fill="#E2E8F0"/>
<circle cx="254.563" cy="33.2498" r="0.773252" fill="#E2E8F0"/>
<circle cx="254.563" cy="37.8893" r="0.773252" fill="#E2E8F0"/>
<circle cx="254.562" cy="42.5291" r="0.773252" fill="#E2E8F0"/>
<circle cx="254.562" cy="47.1688" r="0.773252" fill="#E2E8F0"/>
<circle cx="254.562" cy="51.8074" r="0.773252" fill="#E2E8F0"/>
<circle cx="259.202" cy="0.773252" r="0.773252" fill="#E2E8F0"/>
<circle cx="259.202" cy="5.41278" r="0.773252" fill="#E2E8F0"/>
<circle cx="259.202" cy="10.0525" r="0.773252" fill="#E2E8F0"/>
<circle cx="259.202" cy="14.6922" r="0.773252" fill="#E2E8F0"/>
<circle cx="259.202" cy="19.3309" r="0.773252" fill="#E2E8F0"/>
<circle cx="259.202" cy="23.9705" r="0.773252" fill="#E2E8F0"/>
<circle cx="259.202" cy="28.6103" r="0.773252" fill="#E2E8F0"/>
<circle cx="259.202" cy="33.2498" r="0.773252" fill="#E2E8F0"/>
<circle cx="259.202" cy="37.8893" r="0.773252" fill="#E2E8F0"/>
<circle cx="259.202" cy="42.5291" r="0.773252" fill="#E2E8F0"/>
<circle cx="259.202" cy="47.1688" r="0.773252" fill="#E2E8F0"/>
<circle cx="259.202" cy="51.8074" r="0.773252" fill="#E2E8F0"/>
<circle cx="263.842" cy="0.773252" r="0.773252" fill="#E2E8F0"/>
<circle cx="263.842" cy="5.41278" r="0.773252" fill="#E2E8F0"/>
<circle cx="263.842" cy="10.0525" r="0.773252" fill="#E2E8F0"/>
<circle cx="263.842" cy="14.6922" r="0.773252" fill="#E2E8F0"/>
<circle cx="263.842" cy="19.3309" r="0.773252" fill="#E2E8F0"/>
<circle cx="263.842" cy="23.9705" r="0.773252" fill="#E2E8F0"/>
<circle cx="263.842" cy="28.6103" r="0.773252" fill="#E2E8F0"/>
<circle cx="263.842" cy="33.2498" r="0.773252" fill="#E2E8F0"/>
<circle cx="263.842" cy="37.8893" r="0.773252" fill="#E2E8F0"/>
<circle cx="263.842" cy="42.5291" r="0.773252" fill="#E2E8F0"/>
<circle cx="263.842" cy="47.1688" r="0.773252" fill="#E2E8F0"/>
<circle cx="263.842" cy="51.8074" r="0.773252" fill="#E2E8F0"/>
<circle cx="268.481" cy="0.773252" r="0.773252" fill="#E2E8F0"/>
<circle cx="268.481" cy="5.41278" r="0.773252" fill="#E2E8F0"/>
<circle cx="268.481" cy="10.0525" r="0.773252" fill="#E2E8F0"/>
<circle cx="268.481" cy="14.6922" r="0.773252" fill="#E2E8F0"/>
<circle cx="268.481" cy="19.3309" r="0.773252" fill="#E2E8F0"/>
<circle cx="268.481" cy="23.9705" r="0.773252" fill="#E2E8F0"/>
<circle cx="268.481" cy="28.6103" r="0.773252" fill="#E2E8F0"/>
<circle cx="268.481" cy="33.2498" r="0.773252" fill="#E2E8F0"/>
<circle cx="268.481" cy="37.8893" r="0.773252" fill="#E2E8F0"/>
<circle cx="268.481" cy="42.5291" r="0.773252" fill="#E2E8F0"/>
<circle cx="268.481" cy="47.1688" r="0.773252" fill="#E2E8F0"/>
<circle cx="268.481" cy="51.8074" r="0.773252" fill="#E2E8F0"/>
<circle cx="273.121" cy="0.773252" r="0.773252" fill="#E2E8F0"/>
<circle cx="273.121" cy="5.41278" r="0.773252" fill="#E2E8F0"/>
<circle cx="273.121" cy="10.0525" r="0.773252" fill="#E2E8F0"/>
<circle cx="273.121" cy="14.6922" r="0.773252" fill="#E2E8F0"/>
<circle cx="273.121" cy="19.3309" r="0.773252" fill="#E2E8F0"/>
<circle cx="273.121" cy="23.9705" r="0.773252" fill="#E2E8F0"/>
<circle cx="273.121" cy="28.6103" r="0.773252" fill="#E2E8F0"/>
<circle cx="273.121" cy="33.2498" r="0.773252" fill="#E2E8F0"/>
<circle cx="273.121" cy="37.8893" r="0.773252" fill="#E2E8F0"/>
<circle cx="273.121" cy="42.5291" r="0.773252" fill="#E2E8F0"/>
<circle cx="273.121" cy="47.1688" r="0.773252" fill="#E2E8F0"/>
<circle cx="273.121" cy="51.8074" r="0.773252" fill="#E2E8F0"/>
<circle cx="277.76" cy="0.773252" r="0.773252" fill="#E2E8F0"/>
<circle cx="277.76" cy="5.4129" r="0.773252" fill="#E2E8F0"/>
<circle cx="277.76" cy="10.0525" r="0.773252" fill="#E2E8F0"/>
<circle cx="277.76" cy="14.6922" r="0.773252" fill="#E2E8F0"/>
<circle cx="277.76" cy="19.3309" r="0.773252" fill="#E2E8F0"/>
<circle cx="277.76" cy="23.9705" r="0.773252" fill="#E2E8F0"/>
<circle cx="277.76" cy="28.6102" r="0.773252" fill="#E2E8F0"/>
<circle cx="277.76" cy="33.2498" r="0.773252" fill="#E2E8F0"/>
<circle cx="277.76" cy="37.8895" r="0.773252" fill="#E2E8F0"/>
<circle cx="277.76" cy="42.5291" r="0.773252" fill="#E2E8F0"/>
<circle cx="277.76" cy="47.1688" r="0.773252" fill="#E2E8F0"/>
<circle cx="277.76" cy="51.8074" r="0.773252" fill="#E2E8F0"/>
<circle cx="282.4" cy="0.773252" r="0.773252" fill="#E2E8F0"/>
<circle cx="282.4" cy="5.41278" r="0.773252" fill="#E2E8F0"/>
<circle cx="282.4" cy="10.0525" r="0.773252" fill="#E2E8F0"/>
<circle cx="282.4" cy="14.6922" r="0.773252" fill="#E2E8F0"/>
<circle cx="282.4" cy="19.3309" r="0.773252" fill="#E2E8F0"/>
<circle cx="282.4" cy="23.9705" r="0.773252" fill="#E2E8F0"/>
<circle cx="282.4" cy="28.6103" r="0.773252" fill="#E2E8F0"/>
<circle cx="282.4" cy="33.2498" r="0.773252" fill="#E2E8F0"/>
<circle cx="282.4" cy="37.8893" r="0.773252" fill="#E2E8F0"/>
<circle cx="282.4" cy="42.5291" r="0.773252" fill="#E2E8F0"/>
<circle cx="282.4" cy="47.1688" r="0.773252" fill="#E2E8F0"/>
<circle cx="282.4" cy="51.8074" r="0.773252" fill="#E2E8F0"/>
<circle cx="56.7733" cy="154.026" r="0.773252" fill="#E2E8F0"/>
<circle cx="56.7734" cy="158.666" r="0.773252" fill="#E2E8F0"/>
<circle cx="56.7733" cy="163.305" r="0.773252" fill="#E2E8F0"/>
<circle cx="56.7733" cy="167.945" r="0.773252" fill="#E2E8F0"/>
<circle cx="56.7733" cy="172.584" r="0.773252" fill="#E2E8F0"/>
<circle cx="56.7733" cy="177.223" r="0.773252" fill="#E2E8F0"/>
<circle cx="56.7734" cy="181.863" r="0.773252" fill="#E2E8F0"/>
<circle cx="56.7734" cy="186.503" r="0.773252" fill="#E2E8F0"/>
<circle cx="56.7734" cy="191.142" r="0.773252" fill="#E2E8F0"/>
<circle cx="56.7733" cy="195.782" r="0.773252" fill="#E2E8F0"/>
<circle cx="56.7733" cy="200.422" r="0.773252" fill="#E2E8F0"/>
<circle cx="56.7733" cy="205.06" r="0.773252" fill="#E2E8F0"/>
<circle cx="61.4129" cy="154.026" r="0.773252" fill="#E2E8F0"/>
<circle cx="61.4129" cy="158.666" r="0.773252" fill="#E2E8F0"/>
<circle cx="61.4129" cy="163.305" r="0.773252" fill="#E2E8F0"/>
<circle cx="61.4129" cy="167.945" r="0.773252" fill="#E2E8F0"/>
<circle cx="61.4129" cy="172.584" r="0.773252" fill="#E2E8F0"/>
<circle cx="61.4129" cy="177.223" r="0.773252" fill="#E2E8F0"/>
<circle cx="61.4129" cy="181.863" r="0.773252" fill="#E2E8F0"/>
<circle cx="61.4129" cy="186.503" r="0.773252" fill="#E2E8F0"/>
<circle cx="61.4129" cy="191.142" r="0.773252" fill="#E2E8F0"/>
<circle cx="61.4129" cy="195.782" r="0.773252" fill="#E2E8F0"/>
<circle cx="61.4129" cy="200.422" r="0.773252" fill="#E2E8F0"/>
<circle cx="61.4129" cy="205.06" r="0.773252" fill="#E2E8F0"/>
<circle cx="66.0527" cy="154.026" r="0.773252" fill="#E2E8F0"/>
<circle cx="66.0528" cy="158.666" r="0.773252" fill="#E2E8F0"/>
<circle cx="66.0527" cy="163.305" r="0.773252" fill="#E2E8F0"/>
<circle cx="66.0527" cy="167.945" r="0.773252" fill="#E2E8F0"/>
<circle cx="66.0527" cy="172.584" r="0.773252" fill="#E2E8F0"/>
<circle cx="66.0527" cy="177.223" r="0.773252" fill="#E2E8F0"/>
<circle cx="66.0528" cy="181.863" r="0.773252" fill="#E2E8F0"/>
<circle cx="66.0528" cy="186.503" r="0.773252" fill="#E2E8F0"/>
<circle cx="66.0528" cy="191.142" r="0.773252" fill="#E2E8F0"/>
<circle cx="66.0527" cy="195.782" r="0.773252" fill="#E2E8F0"/>
<circle cx="66.0527" cy="200.422" r="0.773252" fill="#E2E8F0"/>
<circle cx="66.0527" cy="205.06" r="0.773252" fill="#E2E8F0"/>
<circle cx="70.6922" cy="154.026" r="0.773252" fill="#E2E8F0"/>
<circle cx="70.6921" cy="158.666" r="0.773252" fill="#E2E8F0"/>
<circle cx="70.6922" cy="163.305" r="0.773252" fill="#E2E8F0"/>
<circle cx="70.6922" cy="167.945" r="0.773252" fill="#E2E8F0"/>
<circle cx="70.6922" cy="172.584" r="0.773252" fill="#E2E8F0"/>
<circle cx="70.6922" cy="177.223" r="0.773252" fill="#E2E8F0"/>
<circle cx="70.6921" cy="181.863" r="0.773252" fill="#E2E8F0"/>
<circle cx="70.6921" cy="186.503" r="0.773252" fill="#E2E8F0"/>
<circle cx="70.6921" cy="191.142" r="0.773252" fill="#E2E8F0"/>
<circle cx="70.6922" cy="195.782" r="0.773252" fill="#E2E8F0"/>
<circle cx="70.6922" cy="200.422" r="0.773252" fill="#E2E8F0"/>
<circle cx="70.6922" cy="205.06" r="0.773252" fill="#E2E8F0"/>
<circle cx="75.3318" cy="154.026" r="0.773252" fill="#E2E8F0"/>
<circle cx="75.3318" cy="158.666" r="0.773252" fill="#E2E8F0"/>
<circle cx="75.3318" cy="163.305" r="0.773252" fill="#E2E8F0"/>
<circle cx="75.3318" cy="167.945" r="0.773252" fill="#E2E8F0"/>
<circle cx="75.3318" cy="172.584" r="0.773252" fill="#E2E8F0"/>
<circle cx="75.3318" cy="177.223" r="0.773252" fill="#E2E8F0"/>
<circle cx="75.3318" cy="181.863" r="0.773252" fill="#E2E8F0"/>
<circle cx="75.3318" cy="186.503" r="0.773252" fill="#E2E8F0"/>
<circle cx="75.3318" cy="191.142" r="0.773252" fill="#E2E8F0"/>
<circle cx="75.3318" cy="195.782" r="0.773252" fill="#E2E8F0"/>
<circle cx="75.3318" cy="200.422" r="0.773252" fill="#E2E8F0"/>
<circle cx="75.3318" cy="205.06" r="0.773252" fill="#E2E8F0"/>
<circle cx="79.9706" cy="154.026" r="0.773252" fill="#E2E8F0"/>
<circle cx="79.9705" cy="158.666" r="0.773252" fill="#E2E8F0"/>
<circle cx="79.9706" cy="163.305" r="0.773252" fill="#E2E8F0"/>
<circle cx="79.9706" cy="167.945" r="0.773252" fill="#E2E8F0"/>
<circle cx="79.9706" cy="172.584" r="0.773252" fill="#E2E8F0"/>
<circle cx="79.9706" cy="177.223" r="0.773252" fill="#E2E8F0"/>
<circle cx="79.9705" cy="181.863" r="0.773252" fill="#E2E8F0"/>
<circle cx="79.9705" cy="186.503" r="0.773252" fill="#E2E8F0"/>
<circle cx="79.9705" cy="191.142" r="0.773252" fill="#E2E8F0"/>
<circle cx="79.9706" cy="195.782" r="0.773252" fill="#E2E8F0"/>
<circle cx="79.9706" cy="200.422" r="0.773252" fill="#E2E8F0"/>
<circle cx="79.9706" cy="205.06" r="0.773252" fill="#E2E8F0"/>
<circle cx="84.6102" cy="154.026" r="0.773252" fill="#E2E8F0"/>
<circle cx="84.6102" cy="158.666" r="0.773252" fill="#E2E8F0"/>
<circle cx="84.6102" cy="163.305" r="0.773252" fill="#E2E8F0"/>
<circle cx="84.6102" cy="167.945" r="0.773252" fill="#E2E8F0"/>
<circle cx="84.6102" cy="172.584" r="0.773252" fill="#E2E8F0"/>
<circle cx="84.6102" cy="177.223" r="0.773252" fill="#E2E8F0"/>
<circle cx="84.6102" cy="181.863" r="0.773252" fill="#E2E8F0"/>
<circle cx="84.6102" cy="186.503" r="0.773252" fill="#E2E8F0"/>
<circle cx="84.6102" cy="191.142" r="0.773252" fill="#E2E8F0"/>
<circle cx="84.6102" cy="195.782" r="0.773252" fill="#E2E8F0"/>
<circle cx="84.6102" cy="200.422" r="0.773252" fill="#E2E8F0"/>
<circle cx="84.6102" cy="205.06" r="0.773252" fill="#E2E8F0"/>
<circle cx="89.2505" cy="154.026" r="0.773252" fill="#E2E8F0"/>
<circle cx="89.2507" cy="158.666" r="0.773252" fill="#E2E8F0"/>
<circle cx="89.2505" cy="163.305" r="0.773252" fill="#E2E8F0"/>
<circle cx="89.2505" cy="167.945" r="0.773252" fill="#E2E8F0"/>
<circle cx="89.2505" cy="172.584" r="0.773252" fill="#E2E8F0"/>
<circle cx="89.2505" cy="177.223" r="0.773252" fill="#E2E8F0"/>
<circle cx="89.2507" cy="181.863" r="0.773252" fill="#E2E8F0"/>
<circle cx="89.2507" cy="186.503" r="0.773252" fill="#E2E8F0"/>
<circle cx="89.2507" cy="191.142" r="0.773252" fill="#E2E8F0"/>
<circle cx="89.2505" cy="195.782" r="0.773252" fill="#E2E8F0"/>
<circle cx="89.2505" cy="200.422" r="0.773252" fill="#E2E8F0"/>
<circle cx="89.2505" cy="205.06" r="0.773252" fill="#E2E8F0"/>
<circle cx="93.8895" cy="154.026" r="0.773252" fill="#E2E8F0"/>
<circle cx="93.8895" cy="158.666" r="0.773252" fill="#E2E8F0"/>
<circle cx="93.8895" cy="163.305" r="0.773252" fill="#E2E8F0"/>
<circle cx="93.8895" cy="167.945" r="0.773252" fill="#E2E8F0"/>
<circle cx="93.8895" cy="172.584" r="0.773252" fill="#E2E8F0"/>
<circle cx="93.8895" cy="177.223" r="0.773252" fill="#E2E8F0"/>
<circle cx="93.8895" cy="181.863" r="0.773252" fill="#E2E8F0"/>
<circle cx="93.8895" cy="186.503" r="0.773252" fill="#E2E8F0"/>
<circle cx="93.8895" cy="191.142" r="0.773252" fill="#E2E8F0"/>
<circle cx="93.8895" cy="195.782" r="0.773252" fill="#E2E8F0"/>
<circle cx="93.8895" cy="200.422" r="0.773252" fill="#E2E8F0"/>
<circle cx="93.8895" cy="205.06" r="0.773252" fill="#E2E8F0"/>
<circle cx="98.5291" cy="154.026" r="0.773252" fill="#E2E8F0"/>
<circle cx="98.5291" cy="158.666" r="0.773252" fill="#E2E8F0"/>
<circle cx="98.5291" cy="163.305" r="0.773252" fill="#E2E8F0"/>
<circle cx="98.5291" cy="167.945" r="0.773252" fill="#E2E8F0"/>
<circle cx="98.5291" cy="172.584" r="0.773252" fill="#E2E8F0"/>
<circle cx="98.5291" cy="177.223" r="0.773252" fill="#E2E8F0"/>
<circle cx="98.5291" cy="181.863" r="0.773252" fill="#E2E8F0"/>
<circle cx="98.5291" cy="186.503" r="0.773252" fill="#E2E8F0"/>
<circle cx="98.5291" cy="191.142" r="0.773252" fill="#E2E8F0"/>
<circle cx="98.5291" cy="195.782" r="0.773252" fill="#E2E8F0"/>
<circle cx="98.5291" cy="200.422" r="0.773252" fill="#E2E8F0"/>
<circle cx="98.5291" cy="205.06" r="0.773252" fill="#E2E8F0"/>
<circle cx="103.169" cy="154.026" r="0.773252" fill="#E2E8F0"/>
<circle cx="103.169" cy="158.666" r="0.773252" fill="#E2E8F0"/>
<circle cx="103.169" cy="163.305" r="0.773252" fill="#E2E8F0"/>
<circle cx="103.169" cy="167.945" r="0.773252" fill="#E2E8F0"/>
<circle cx="103.169" cy="172.584" r="0.773252" fill="#E2E8F0"/>
<circle cx="103.169" cy="177.223" r="0.773252" fill="#E2E8F0"/>
<circle cx="103.169" cy="181.863" r="0.773252" fill="#E2E8F0"/>
<circle cx="103.169" cy="186.503" r="0.773252" fill="#E2E8F0"/>
<circle cx="103.169" cy="191.142" r="0.773252" fill="#E2E8F0"/>
<circle cx="103.169" cy="195.782" r="0.773252" fill="#E2E8F0"/>
<circle cx="103.169" cy="200.422" r="0.773252" fill="#E2E8F0"/>
<circle cx="103.169" cy="205.06" r="0.773252" fill="#E2E8F0"/>
<circle cx="107.808" cy="154.026" r="0.773252" fill="#E2E8F0"/>
<circle cx="107.808" cy="158.666" r="0.773252" fill="#E2E8F0"/>
<circle cx="107.808" cy="163.305" r="0.773252" fill="#E2E8F0"/>
<circle cx="107.808" cy="167.945" r="0.773252" fill="#E2E8F0"/>
<circle cx="107.808" cy="172.584" r="0.773252" fill="#E2E8F0"/>
<circle cx="107.808" cy="177.223" r="0.773252" fill="#E2E8F0"/>
<circle cx="107.808" cy="181.863" r="0.773252" fill="#E2E8F0"/>
<circle cx="107.808" cy="186.503" r="0.773252" fill="#E2E8F0"/>
<circle cx="107.808" cy="191.142" r="0.773252" fill="#E2E8F0"/>
<circle cx="107.808" cy="195.782" r="0.773252" fill="#E2E8F0"/>
<circle cx="107.808" cy="200.422" r="0.773252" fill="#E2E8F0"/>
<circle cx="107.808" cy="205.06" r="0.773252" fill="#E2E8F0"/>
<path d="M106.459 17.1016C107.247 17.1016 107.914 17.7684 107.914 18.5565V27.2861C107.914 28.1045 107.247 28.741 106.459 28.741H93.8495C93.0311 28.741 92.3945 28.1045 92.3945 27.2861V18.5565C92.3945 17.7684 93.0311 17.1016 93.8495 17.1016H106.459ZM93.8495 18.0716C93.5767 18.0716 93.3645 18.314 93.3645 18.5565V19.8296C94.001 20.3752 94.971 21.1633 97.9111 23.4972C98.4264 23.9216 99.4267 24.8915 100.154 24.8612C100.851 24.8915 101.852 23.9216 102.367 23.4972C105.307 21.1633 106.277 20.3752 106.944 19.8296V18.5565C106.944 18.314 106.701 18.0716 106.459 18.0716H93.8495ZM106.459 27.7711C106.701 27.7711 106.944 27.5589 106.944 27.2861V21.0723C106.247 21.6483 105.155 22.5273 102.973 24.255C102.337 24.7703 101.245 25.8615 100.154 25.8312C99.0326 25.8615 97.9414 24.7703 97.3049 24.255C95.1225 22.5273 94.0313 21.6483 93.3645 21.0723V27.2861C93.3645 27.5589 93.5767 27.7711 93.8495 27.7711H106.459Z" fill="#E2E8F0"/>
<path d="M269.226 78.6937C269.226 79.8758 268.408 80.8154 267.316 81.0579C267.286 81.846 267.104 82.4522 266.71 82.9069C265.922 83.8768 264.588 84.0284 263.315 84.1496C262.497 84.2103 261.739 84.2709 261.224 84.5437C261.012 84.6649 260.8 84.8165 260.648 85.0893C261.679 85.3924 262.436 86.332 262.436 87.4232C262.436 88.7872 261.345 89.8481 260.011 89.8481C258.647 89.8481 257.587 88.7872 257.587 87.4232C257.587 86.2714 258.405 85.2711 259.526 85.059V79.1483C258.405 78.9058 257.587 77.9359 257.587 76.7538C257.587 75.4201 258.647 74.3289 260.011 74.3289C261.345 74.3289 262.436 75.4201 262.436 76.7538C262.436 77.9359 261.588 78.9058 260.496 79.1483V83.8465C260.587 83.7859 260.678 83.7253 260.769 83.695C261.466 83.3312 262.345 83.2403 263.224 83.1797C264.346 83.0584 265.437 82.9675 265.952 82.3007C266.195 82.0279 266.316 81.6035 266.346 81.0882C265.225 80.8761 264.376 79.9061 264.376 78.6937C264.376 77.36 265.437 76.2688 266.801 76.2688C268.135 76.2688 269.226 77.36 269.226 78.6937ZM258.556 76.7538C258.556 77.5722 259.193 78.2087 260.011 78.2087C260.8 78.2087 261.466 77.5722 261.466 76.7538C261.466 75.9657 260.8 75.2988 260.011 75.2988C259.193 75.2988 258.556 75.9657 258.556 76.7538ZM261.466 87.4232C261.466 86.6351 260.8 85.9986 260.011 85.9683H259.981C259.193 85.9986 258.556 86.6351 258.556 87.4232C258.556 88.2416 259.193 88.8782 260.011 88.8782C260.8 88.8782 261.466 88.2416 261.466 87.4232ZM267.135 80.1183C267.771 79.9667 268.256 79.3908 268.256 78.6937C268.256 77.9056 267.589 77.2387 266.801 77.2387C265.983 77.2387 265.346 77.9056 265.346 78.6937C265.346 79.5121 265.983 80.1486 266.801 80.1486L267.135 80.1183Z" fill="#E2E8F0"/>
<g filter="url(#filter0_d_3599_6601)">
<rect x="39.667" y="18" width="285.302" height="209" rx="5.96154" fill="white"/>
<g clip-path="url(#clip1_3599_6601)">
<mask id="path-295-inside-1_3599_6601" fill="white">
<path d="M64.548 47.8572C64.548 45.1089 66.7759 42.881 69.5242 42.881H295.111C297.86 42.881 300.088 45.1089 300.088 47.8572V69.4207H64.548V47.8572Z"/>
</mask>
<path d="M64.548 42.881H300.088H64.548M300.088 70.25H64.548V68.5913H300.088V70.25ZM300.088 68.5913M64.548 69.4207V42.881V69.4207M64.548 69.4207M300.088 42.881V69.4207V42.881" fill="#E5E7EB" mask="url(#path-295-inside-1_3599_6601)"/>
<path opacity="0.5" d="M87.6533 57.1741H73.8649C73.2998 57.1741 72.8417 56.7159 72.8417 56.1508C72.8417 55.5857 73.2998 55.1275 73.8649 55.1275H87.6533C88.2184 55.1275 88.6765 55.5857 88.6765 56.1508C88.6765 56.7159 88.2184 57.1741 87.6533 57.1741Z" fill="#211FA6"/>
<path opacity="0.4" d="M153.173 57.1741L116.162 57.1741C115.597 57.1741 115.139 56.7159 115.139 56.1508C115.139 55.5857 115.597 55.1275 116.162 55.1275L153.173 55.1275C153.738 55.1275 154.196 55.5857 154.196 56.1508C154.196 56.7159 153.738 57.1741 153.173 57.1741Z" fill="#6B7280"/>
<path opacity="0.4" d="M210.952 57.1741L180.576 57.1741C180.011 57.1741 179.553 56.7159 179.553 56.1508C179.553 55.5857 180.011 55.1275 180.576 55.1275L210.952 55.1275C211.517 55.1275 211.975 55.5857 211.975 56.1508C211.975 56.7159 211.517 57.1741 210.952 57.1741Z" fill="#6B7280"/>
<rect x="238.991" y="48.4926" width="55.6444" height="15.3164" rx="7.65819" fill="#D1FAE5"/>
<path d="M285.319 57.1741L248.308 57.1741C247.743 57.1741 247.285 56.7159 247.285 56.1508C247.285 55.5857 247.743 55.1275 248.308 55.1275L285.319 55.1275C285.884 55.1275 286.342 55.5857 286.342 56.1508C286.342 56.7159 285.884 57.1741 285.319 57.1741Z" fill="#10B981"/>
<mask id="path-302-inside-2_3599_6601" fill="white">
<path d="M64.5479 69.4206H300.088V95.9603H64.5479V69.4206Z"/>
</mask>
<path d="M300.088 95.9603V95.1309H64.5479V95.9603V96.7896H300.088V95.9603Z" fill="#E5E7EB" mask="url(#path-302-inside-2_3599_6601)"/>
<path opacity="0.5" d="M90.9706 83.7138H73.8648C73.2997 83.7138 72.8416 83.2557 72.8416 82.6905C72.8416 82.1254 73.2997 81.6673 73.8648 81.6673H90.9706C91.5357 81.6673 91.9939 82.1254 91.9939 82.6905C91.9939 83.2557 91.5357 83.7138 90.9706 83.7138Z" fill="#211FA6"/>
<path opacity="0.4" d="M144.879 83.7138H116.162C115.597 83.7138 115.139 83.2557 115.139 82.6905C115.139 82.1254 115.597 81.6673 116.162 81.6673H144.879C145.444 81.6673 145.902 82.1254 145.902 82.6905C145.902 83.2557 145.444 83.7138 144.879 83.7138Z" fill="#6B7280"/>
<path opacity="0.4" d="M197.682 83.7138H180.576C180.011 83.7138 179.553 83.2557 179.553 82.6905C179.553 82.1254 180.011 81.6673 180.576 81.6673H197.682C198.247 81.6673 198.705 82.1254 198.705 82.6905C198.705 83.2557 198.247 83.7138 197.682 83.7138Z" fill="#6B7280"/>
<rect x="238.991" y="75.0323" width="49.0095" height="15.3164" rx="7.65819" fill="#FEF9C3"/>
<path d="M278.684 83.7138H248.308C247.743 83.7138 247.285 83.2557 247.285 82.6905C247.285 82.1254 247.743 81.6673 248.308 81.6673H278.684C279.249 81.6673 279.707 82.1254 279.707 82.6905C279.707 83.2557 279.249 83.7138 278.684 83.7138Z" fill="#EAB308"/>
<mask id="path-309-inside-3_3599_6601" fill="white">
<path d="M64.5479 95.9603H300.088V122.5H64.5479V95.9603Z"/>
</mask>
<path d="M300.088 122.5V121.671H64.5479V122.5V123.329H300.088V122.5Z" fill="#E5E7EB" mask="url(#path-309-inside-3_3599_6601)"/>
<path opacity="0.5" d="M84.3357 110.253H73.8648C73.2997 110.253 72.8416 109.795 72.8416 109.23C72.8416 108.665 73.2997 108.207 73.8648 108.207H84.3357C84.9008 108.207 85.3589 108.665 85.3589 109.23C85.3589 109.795 84.9008 110.253 84.3357 110.253Z" fill="#211FA6"/>
<path opacity="0.4" d="M158.149 110.253H116.162C115.597 110.253 115.139 109.795 115.139 109.23C115.139 108.665 115.597 108.207 116.162 108.207H158.149C158.714 108.207 159.172 108.665 159.172 109.23C159.172 109.795 158.714 110.253 158.149 110.253Z" fill="#6B7280"/>
<path opacity="0.4" d="M217.587 110.253H180.576C180.011 110.253 179.553 109.795 179.553 109.23C179.553 108.665 180.011 108.207 180.576 108.207H217.587C218.152 108.207 218.61 108.665 218.61 109.23C218.61 109.795 218.152 110.253 217.587 110.253Z" fill="#6B7280"/>
<rect x="238.991" y="101.572" width="55.6444" height="15.3164" rx="7.65819" fill="#D1FAE5"/>
<path d="M285.318 110.253H248.308C247.743 110.253 247.285 109.795 247.285 109.23C247.285 108.665 247.743 108.207 248.308 108.207H285.318C285.884 108.207 286.342 108.665 286.342 109.23C286.342 109.795 285.884 110.253 285.318 110.253Z" fill="#10B981"/>
<mask id="path-316-inside-4_3599_6601" fill="white">
<path d="M64.5479 122.5H300.088V149.04H64.5479V122.5Z"/>
</mask>
<path d="M300.088 149.04V148.21H64.5479V149.04V149.869H300.088V149.04Z" fill="#E5E7EB" mask="url(#path-316-inside-4_3599_6601)"/>
<path opacity="0.5" d="M90.9706 136.793H73.8648C73.2997 136.793 72.8416 136.335 72.8416 135.77C72.8416 135.205 73.2997 134.746 73.8648 134.746H90.9706C91.5357 134.746 91.9939 135.205 91.9939 135.77C91.9939 136.335 91.5357 136.793 90.9706 136.793Z" fill="#211FA6"/>
<path opacity="0.4" d="M144.879 136.793H116.162C115.597 136.793 115.139 136.335 115.139 135.77C115.139 135.205 115.597 134.746 116.162 134.746H144.879C145.444 134.746 145.902 135.205 145.902 135.77C145.902 136.335 145.444 136.793 144.879 136.793Z" fill="#6B7280"/>
<path opacity="0.4" d="M197.682 136.793H180.576C180.011 136.793 179.553 136.335 179.553 135.77C179.553 135.205 180.011 134.746 180.576 134.746H197.682C198.247 134.746 198.705 135.205 198.705 135.77C198.705 136.335 198.247 136.793 197.682 136.793Z" fill="#6B7280"/>
<rect x="238.991" y="128.111" width="49.0095" height="15.3164" rx="7.65819" fill="#FEF9C3"/>
<path d="M278.684 136.793H248.308C247.743 136.793 247.285 136.335 247.285 135.77C247.285 135.205 247.743 134.746 248.308 134.746H278.684C279.249 134.746 279.707 135.205 279.707 135.77C279.707 136.335 279.249 136.793 278.684 136.793Z" fill="#EAB308"/>
<mask id="path-323-inside-5_3599_6601" fill="white">
<path d="M64.5479 149.04H300.088V175.579H64.5479V149.04Z"/>
</mask>
<path d="M300.088 175.579V174.75H64.5479V175.579V176.409H300.088V175.579Z" fill="#E5E7EB" mask="url(#path-323-inside-5_3599_6601)"/>
<path opacity="0.5" d="M92.6293 163.333H73.8648C73.2997 163.333 72.8416 162.875 72.8416 162.31C72.8416 161.744 73.2997 161.286 73.8648 161.286H92.6293C93.1945 161.286 93.6526 161.744 93.6526 162.31C93.6526 162.875 93.1945 163.333 92.6293 163.333Z" fill="#211FA6"/>
<path opacity="0.4" d="M151.514 163.333H116.162C115.597 163.333 115.139 162.875 115.139 162.31C115.139 161.745 115.597 161.286 116.162 161.286H151.514C152.079 161.286 152.537 161.745 152.537 162.31C152.537 162.875 152.079 163.333 151.514 163.333Z" fill="#6B7280"/>
<path opacity="0.4" d="M207.634 163.333H180.576C180.011 163.333 179.553 162.875 179.553 162.31C179.553 161.745 180.011 161.286 180.576 161.286H207.634C208.2 161.286 208.658 161.745 208.658 162.31C208.658 162.875 208.2 163.333 207.634 163.333Z" fill="#6B7280"/>
<rect x="238.991" y="154.651" width="39.0571" height="15.3164" rx="7.65819" fill="#FEE2E2"/>
<path d="M268.731 163.333H248.308C247.743 163.333 247.285 162.875 247.285 162.31C247.285 161.745 247.743 161.286 248.308 161.286H268.731C269.296 161.286 269.754 161.745 269.754 162.31C269.754 162.875 269.296 163.333 268.731 163.333Z" fill="#EF4444"/>
<mask id="path-330-inside-6_3599_6601" fill="white">
<path d="M64.5479 175.579H300.088V202.119H64.5479V175.579Z"/>
</mask>
<path d="M300.088 202.119V201.29H64.5479V202.119V202.948H300.088V202.119Z" fill="#E5E7EB" mask="url(#path-330-inside-6_3599_6601)"/>
<path opacity="0.5" d="M84.3357 189.872H73.8648C73.2997 189.872 72.8416 189.414 72.8416 188.849C72.8416 188.284 73.2997 187.826 73.8648 187.826H84.3357C84.9008 187.826 85.3589 188.284 85.3589 188.849C85.3589 189.414 84.9008 189.872 84.3357 189.872Z" fill="#211FA6"/>
<path opacity="0.4" d="M158.149 189.872H116.162C115.597 189.872 115.139 189.414 115.139 188.849C115.139 188.284 115.597 187.826 116.162 187.826H158.149C158.714 187.826 159.172 188.284 159.172 188.849C159.172 189.414 158.714 189.872 158.149 189.872Z" fill="#6B7280"/>
<path opacity="0.4" d="M217.587 189.872H180.576C180.011 189.872 179.553 189.414 179.553 188.849C179.553 188.284 180.011 187.826 180.576 187.826H217.587C218.152 187.826 218.61 188.284 218.61 188.849C218.61 189.414 218.152 189.872 217.587 189.872Z" fill="#6B7280"/>
<rect x="238.991" y="181.191" width="55.6444" height="15.3164" rx="7.65819" fill="#D1FAE5"/>
<path d="M285.318 189.872H248.308C247.743 189.872 247.285 189.414 247.285 188.849C247.285 188.284 247.743 187.826 248.308 187.826H285.318C285.884 187.826 286.342 188.284 286.342 188.849C286.342 189.414 285.884 189.872 285.318 189.872Z" fill="#10B981"/>
</g>
<rect x="64.9627" y="43.2957" width="234.71" height="158.409" rx="4.56151" stroke="#E5E7EB" stroke-width="0.829365"/>
</g>
</g>
<defs>
<filter id="filter0_d_3599_6601" x="27.3091" y="8.32859" width="310.017" height="233.716" filterUnits="userSpaceOnUse" color-interpolation-filters="sRGB">
<feFlood flood-opacity="0" result="BackgroundImageFix"/>
<feColorMatrix in="SourceAlpha" type="matrix" values="0 0 0 0 0 0 0 0 0 0 0 0 0 0 0 0 0 0 127 0" result="hardAlpha"/>
<feMorphology radius="1.6119" operator="dilate" in="SourceAlpha" result="effect1_dropShadow_3599_6601"/>
<feOffset dy="2.6865"/>
<feGaussianBlur stdDeviation="5.37301"/>
<feColorMatrix type="matrix" values="0 0 0 0 0.0352941 0 0 0 0 0.0352941 0 0 0 0 0.172549 0 0 0 0.05 0"/>
<feBlend mode="normal" in2="BackgroundImageFix" result="effect1_dropShadow_3599_6601"/>
<feBlend mode="normal" in="SourceGraphic" in2="effect1_dropShadow_3599_6601" result="shape"/>
</filter>
<clipPath id="clip0_3599_6601">
<rect width="366.667" height="206" rx="4" fill="white"/>
</clipPath>
<clipPath id="clip1_3599_6601">
<rect x="64.548" y="42.881" width="235.54" height="159.238" rx="4.97619" fill="white"/>
</clipPath>
</defs>
</svg>
