<svg width="367" height="206" viewBox="0 0 367 206" fill="none" xmlns="http://www.w3.org/2000/svg">
<rect width="366.667" height="206" rx="4" fill="#F3F4F6"/>
<circle cx="231.365" cy="0.773252" r="0.773252" fill="#E2E8F0"/>
<circle cx="231.365" cy="5.41278" r="0.773252" fill="#E2E8F0"/>
<circle cx="231.365" cy="10.0525" r="0.773252" fill="#E2E8F0"/>
<circle cx="231.365" cy="14.6922" r="0.773252" fill="#E2E8F0"/>
<circle cx="231.365" cy="19.3309" r="0.773252" fill="#E2E8F0"/>
<circle cx="231.365" cy="23.9705" r="0.773252" fill="#E2E8F0"/>
<circle cx="231.365" cy="28.6103" r="0.773252" fill="#E2E8F0"/>
<circle cx="231.365" cy="33.2498" r="0.773252" fill="#E2E8F0"/>
<circle cx="231.365" cy="37.8893" r="0.773252" fill="#E2E8F0"/>
<circle cx="231.365" cy="42.5291" r="0.773252" fill="#E2E8F0"/>
<circle cx="231.365" cy="47.1688" r="0.773252" fill="#E2E8F0"/>
<circle cx="231.365" cy="51.8074" r="0.773252" fill="#E2E8F0"/>
<circle cx="236.005" cy="0.773252" r="0.773252" fill="#E2E8F0"/>
<circle cx="236.005" cy="5.41278" r="0.773252" fill="#E2E8F0"/>
<circle cx="236.005" cy="10.0525" r="0.773252" fill="#E2E8F0"/>
<circle cx="236.005" cy="14.6922" r="0.773252" fill="#E2E8F0"/>
<circle cx="236.005" cy="19.3309" r="0.773252" fill="#E2E8F0"/>
<circle cx="236.005" cy="23.9705" r="0.773252" fill="#E2E8F0"/>
<circle cx="236.005" cy="28.6103" r="0.773252" fill="#E2E8F0"/>
<circle cx="236.005" cy="33.2498" r="0.773252" fill="#E2E8F0"/>
<circle cx="236.005" cy="37.8893" r="0.773252" fill="#E2E8F0"/>
<circle cx="236.005" cy="42.5291" r="0.773252" fill="#E2E8F0"/>
<circle cx="236.005" cy="47.1688" r="0.773252" fill="#E2E8F0"/>
<circle cx="236.005" cy="51.8074" r="0.773252" fill="#E2E8F0"/>
<circle cx="240.644" cy="0.773252" r="0.773252" fill="#E2E8F0"/>
<circle cx="240.644" cy="5.41278" r="0.773252" fill="#E2E8F0"/>
<circle cx="240.644" cy="10.0525" r="0.773252" fill="#E2E8F0"/>
<circle cx="240.644" cy="14.6922" r="0.773252" fill="#E2E8F0"/>
<circle cx="240.644" cy="19.3309" r="0.773252" fill="#E2E8F0"/>
<circle cx="240.644" cy="23.9705" r="0.773252" fill="#E2E8F0"/>
<circle cx="240.644" cy="28.6103" r="0.773252" fill="#E2E8F0"/>
<circle cx="240.644" cy="33.2498" r="0.773252" fill="#E2E8F0"/>
<circle cx="240.644" cy="37.8893" r="0.773252" fill="#E2E8F0"/>
<circle cx="240.644" cy="42.5291" r="0.773252" fill="#E2E8F0"/>
<circle cx="240.644" cy="47.1688" r="0.773252" fill="#E2E8F0"/>
<circle cx="240.644" cy="51.8074" r="0.773252" fill="#E2E8F0"/>
<circle cx="245.284" cy="0.773252" r="0.773252" fill="#E2E8F0"/>
<circle cx="245.284" cy="5.41278" r="0.773252" fill="#E2E8F0"/>
<circle cx="245.284" cy="10.0525" r="0.773252" fill="#E2E8F0"/>
<circle cx="245.284" cy="14.6922" r="0.773252" fill="#E2E8F0"/>
<circle cx="245.284" cy="19.3309" r="0.773252" fill="#E2E8F0"/>
<circle cx="245.284" cy="23.9705" r="0.773252" fill="#E2E8F0"/>
<circle cx="245.284" cy="28.6103" r="0.773252" fill="#E2E8F0"/>
<circle cx="245.284" cy="33.2498" r="0.773252" fill="#E2E8F0"/>
<circle cx="245.284" cy="37.8893" r="0.773252" fill="#E2E8F0"/>
<circle cx="245.284" cy="42.5291" r="0.773252" fill="#E2E8F0"/>
<circle cx="245.284" cy="47.1688" r="0.773252" fill="#E2E8F0"/>
<circle cx="245.284" cy="51.8074" r="0.773252" fill="#E2E8F0"/>
<circle cx="249.924" cy="0.773252" r="0.773252" fill="#E2E8F0"/>
<circle cx="249.924" cy="5.41278" r="0.773252" fill="#E2E8F0"/>
<circle cx="249.924" cy="10.0525" r="0.773252" fill="#E2E8F0"/>
<circle cx="249.924" cy="14.6922" r="0.773252" fill="#E2E8F0"/>
<circle cx="249.924" cy="19.3309" r="0.773252" fill="#E2E8F0"/>
<circle cx="249.924" cy="23.9705" r="0.773252" fill="#E2E8F0"/>
<circle cx="249.924" cy="28.6103" r="0.773252" fill="#E2E8F0"/>
<circle cx="249.924" cy="33.2498" r="0.773252" fill="#E2E8F0"/>
<circle cx="249.924" cy="37.8893" r="0.773252" fill="#E2E8F0"/>
<circle cx="249.924" cy="42.5291" r="0.773252" fill="#E2E8F0"/>
<circle cx="249.924" cy="47.1688" r="0.773252" fill="#E2E8F0"/>
<circle cx="249.924" cy="51.8074" r="0.773252" fill="#E2E8F0"/>
<circle cx="254.562" cy="0.773252" r="0.773252" fill="#E2E8F0"/>
<circle cx="254.562" cy="5.41278" r="0.773252" fill="#E2E8F0"/>
<circle cx="254.562" cy="10.0525" r="0.773252" fill="#E2E8F0"/>
<circle cx="254.562" cy="14.6922" r="0.773252" fill="#E2E8F0"/>
<circle cx="254.562" cy="19.3309" r="0.773252" fill="#E2E8F0"/>
<circle cx="254.562" cy="23.9705" r="0.773252" fill="#E2E8F0"/>
<circle cx="254.562" cy="28.6103" r="0.773252" fill="#E2E8F0"/>
<circle cx="254.562" cy="33.2498" r="0.773252" fill="#E2E8F0"/>
<circle cx="254.562" cy="37.8893" r="0.773252" fill="#E2E8F0"/>
<circle cx="254.562" cy="42.5291" r="0.773252" fill="#E2E8F0"/>
<circle cx="254.562" cy="47.1688" r="0.773252" fill="#E2E8F0"/>
<circle cx="254.562" cy="51.8074" r="0.773252" fill="#E2E8F0"/>
<circle cx="259.202" cy="0.773252" r="0.773252" fill="#E2E8F0"/>
<circle cx="259.202" cy="5.41278" r="0.773252" fill="#E2E8F0"/>
<circle cx="259.202" cy="10.0525" r="0.773252" fill="#E2E8F0"/>
<circle cx="259.202" cy="14.6922" r="0.773252" fill="#E2E8F0"/>
<circle cx="259.202" cy="19.3309" r="0.773252" fill="#E2E8F0"/>
<circle cx="259.202" cy="23.9705" r="0.773252" fill="#E2E8F0"/>
<circle cx="259.202" cy="28.6103" r="0.773252" fill="#E2E8F0"/>
<circle cx="259.202" cy="33.2498" r="0.773252" fill="#E2E8F0"/>
<circle cx="259.202" cy="37.8893" r="0.773252" fill="#E2E8F0"/>
<circle cx="259.202" cy="42.5291" r="0.773252" fill="#E2E8F0"/>
<circle cx="259.202" cy="47.1688" r="0.773252" fill="#E2E8F0"/>
<circle cx="259.202" cy="51.8074" r="0.773252" fill="#E2E8F0"/>
<circle cx="263.842" cy="0.773252" r="0.773252" fill="#E2E8F0"/>
<circle cx="263.842" cy="5.41278" r="0.773252" fill="#E2E8F0"/>
<circle cx="263.842" cy="10.0525" r="0.773252" fill="#E2E8F0"/>
<circle cx="263.842" cy="14.6922" r="0.773252" fill="#E2E8F0"/>
<circle cx="263.842" cy="19.3309" r="0.773252" fill="#E2E8F0"/>
<circle cx="263.842" cy="23.9705" r="0.773252" fill="#E2E8F0"/>
<circle cx="263.842" cy="28.6103" r="0.773252" fill="#E2E8F0"/>
<circle cx="263.842" cy="33.2498" r="0.773252" fill="#E2E8F0"/>
<circle cx="263.842" cy="37.8893" r="0.773252" fill="#E2E8F0"/>
<circle cx="263.842" cy="42.5291" r="0.773252" fill="#E2E8F0"/>
<circle cx="263.842" cy="47.1688" r="0.773252" fill="#E2E8F0"/>
<circle cx="263.842" cy="51.8074" r="0.773252" fill="#E2E8F0"/>
<circle cx="268.481" cy="0.773252" r="0.773252" fill="#E2E8F0"/>
<circle cx="268.481" cy="5.41278" r="0.773252" fill="#E2E8F0"/>
<circle cx="268.481" cy="10.0525" r="0.773252" fill="#E2E8F0"/>
<circle cx="268.481" cy="14.6922" r="0.773252" fill="#E2E8F0"/>
<circle cx="268.481" cy="19.3309" r="0.773252" fill="#E2E8F0"/>
<circle cx="268.481" cy="23.9705" r="0.773252" fill="#E2E8F0"/>
<circle cx="268.481" cy="28.6103" r="0.773252" fill="#E2E8F0"/>
<circle cx="268.481" cy="33.2498" r="0.773252" fill="#E2E8F0"/>
<circle cx="268.481" cy="37.8893" r="0.773252" fill="#E2E8F0"/>
<circle cx="268.481" cy="42.5291" r="0.773252" fill="#E2E8F0"/>
<circle cx="268.481" cy="47.1688" r="0.773252" fill="#E2E8F0"/>
<circle cx="268.481" cy="51.8074" r="0.773252" fill="#E2E8F0"/>
<circle cx="273.121" cy="0.773252" r="0.773252" fill="#E2E8F0"/>
<circle cx="273.121" cy="5.41278" r="0.773252" fill="#E2E8F0"/>
<circle cx="273.121" cy="10.0525" r="0.773252" fill="#E2E8F0"/>
<circle cx="273.121" cy="14.6922" r="0.773252" fill="#E2E8F0"/>
<circle cx="273.121" cy="19.3309" r="0.773252" fill="#E2E8F0"/>
<circle cx="273.121" cy="23.9705" r="0.773252" fill="#E2E8F0"/>
<circle cx="273.121" cy="28.6103" r="0.773252" fill="#E2E8F0"/>
<circle cx="273.121" cy="33.2498" r="0.773252" fill="#E2E8F0"/>
<circle cx="273.121" cy="37.8893" r="0.773252" fill="#E2E8F0"/>
<circle cx="273.121" cy="42.5291" r="0.773252" fill="#E2E8F0"/>
<circle cx="273.121" cy="47.1688" r="0.773252" fill="#E2E8F0"/>
<circle cx="273.121" cy="51.8074" r="0.773252" fill="#E2E8F0"/>
<circle cx="277.76" cy="0.773252" r="0.773252" fill="#E2E8F0"/>
<circle cx="277.76" cy="5.4129" r="0.773252" fill="#E2E8F0"/>
<circle cx="277.76" cy="10.0525" r="0.773252" fill="#E2E8F0"/>
<circle cx="277.76" cy="14.6922" r="0.773252" fill="#E2E8F0"/>
<circle cx="277.76" cy="19.3309" r="0.773252" fill="#E2E8F0"/>
<circle cx="277.76" cy="23.9705" r="0.773252" fill="#E2E8F0"/>
<circle cx="277.76" cy="28.6102" r="0.773252" fill="#E2E8F0"/>
<circle cx="277.76" cy="33.2498" r="0.773252" fill="#E2E8F0"/>
<circle cx="277.76" cy="37.8895" r="0.773252" fill="#E2E8F0"/>
<circle cx="277.76" cy="42.5291" r="0.773252" fill="#E2E8F0"/>
<circle cx="277.76" cy="47.1688" r="0.773252" fill="#E2E8F0"/>
<circle cx="277.76" cy="51.8074" r="0.773252" fill="#E2E8F0"/>
<circle cx="282.4" cy="0.773252" r="0.773252" fill="#E2E8F0"/>
<circle cx="282.4" cy="5.41278" r="0.773252" fill="#E2E8F0"/>
<circle cx="282.4" cy="10.0525" r="0.773252" fill="#E2E8F0"/>
<circle cx="282.4" cy="14.6922" r="0.773252" fill="#E2E8F0"/>
<circle cx="282.4" cy="19.3309" r="0.773252" fill="#E2E8F0"/>
<circle cx="282.4" cy="23.9705" r="0.773252" fill="#E2E8F0"/>
<circle cx="282.4" cy="28.6103" r="0.773252" fill="#E2E8F0"/>
<circle cx="282.4" cy="33.2498" r="0.773252" fill="#E2E8F0"/>
<circle cx="282.4" cy="37.8893" r="0.773252" fill="#E2E8F0"/>
<circle cx="282.4" cy="42.5291" r="0.773252" fill="#E2E8F0"/>
<circle cx="282.4" cy="47.1688" r="0.773252" fill="#E2E8F0"/>
<circle cx="282.4" cy="51.8074" r="0.773252" fill="#E2E8F0"/>
<circle cx="56.7733" cy="154.026" r="0.773252" fill="#E2E8F0"/>
<circle cx="56.7733" cy="158.666" r="0.773252" fill="#E2E8F0"/>
<circle cx="56.7733" cy="163.305" r="0.773252" fill="#E2E8F0"/>
<circle cx="56.7733" cy="167.945" r="0.773252" fill="#E2E8F0"/>
<circle cx="56.7733" cy="172.584" r="0.773252" fill="#E2E8F0"/>
<circle cx="56.7733" cy="177.223" r="0.773252" fill="#E2E8F0"/>
<circle cx="56.7733" cy="181.863" r="0.773252" fill="#E2E8F0"/>
<circle cx="56.7733" cy="186.503" r="0.773252" fill="#E2E8F0"/>
<circle cx="56.7733" cy="191.142" r="0.773252" fill="#E2E8F0"/>
<circle cx="56.7733" cy="195.782" r="0.773252" fill="#E2E8F0"/>
<circle cx="56.7733" cy="200.422" r="0.773252" fill="#E2E8F0"/>
<circle cx="56.7733" cy="205.06" r="0.773252" fill="#E2E8F0"/>
<circle cx="61.4129" cy="154.026" r="0.773252" fill="#E2E8F0"/>
<circle cx="61.4129" cy="158.666" r="0.773252" fill="#E2E8F0"/>
<circle cx="61.4129" cy="163.305" r="0.773252" fill="#E2E8F0"/>
<circle cx="61.4129" cy="167.945" r="0.773252" fill="#E2E8F0"/>
<circle cx="61.4129" cy="172.584" r="0.773252" fill="#E2E8F0"/>
<circle cx="61.4129" cy="177.223" r="0.773252" fill="#E2E8F0"/>
<circle cx="61.4129" cy="181.863" r="0.773252" fill="#E2E8F0"/>
<circle cx="61.4129" cy="186.503" r="0.773252" fill="#E2E8F0"/>
<circle cx="61.4129" cy="191.142" r="0.773252" fill="#E2E8F0"/>
<circle cx="61.4129" cy="195.782" r="0.773252" fill="#E2E8F0"/>
<circle cx="61.4129" cy="200.422" r="0.773252" fill="#E2E8F0"/>
<circle cx="61.4129" cy="205.06" r="0.773252" fill="#E2E8F0"/>
<circle cx="66.0526" cy="154.026" r="0.773252" fill="#E2E8F0"/>
<circle cx="66.0526" cy="158.666" r="0.773252" fill="#E2E8F0"/>
<circle cx="66.0526" cy="163.305" r="0.773252" fill="#E2E8F0"/>
<circle cx="66.0526" cy="167.945" r="0.773252" fill="#E2E8F0"/>
<circle cx="66.0526" cy="172.584" r="0.773252" fill="#E2E8F0"/>
<circle cx="66.0526" cy="177.223" r="0.773252" fill="#E2E8F0"/>
<circle cx="66.0526" cy="181.863" r="0.773252" fill="#E2E8F0"/>
<circle cx="66.0526" cy="186.503" r="0.773252" fill="#E2E8F0"/>
<circle cx="66.0526" cy="191.142" r="0.773252" fill="#E2E8F0"/>
<circle cx="66.0526" cy="195.782" r="0.773252" fill="#E2E8F0"/>
<circle cx="66.0526" cy="200.422" r="0.773252" fill="#E2E8F0"/>
<circle cx="66.0526" cy="205.06" r="0.773252" fill="#E2E8F0"/>
<circle cx="70.6922" cy="154.026" r="0.773252" fill="#E2E8F0"/>
<circle cx="70.6922" cy="158.666" r="0.773252" fill="#E2E8F0"/>
<circle cx="70.6922" cy="163.305" r="0.773252" fill="#E2E8F0"/>
<circle cx="70.6922" cy="167.945" r="0.773252" fill="#E2E8F0"/>
<circle cx="70.6922" cy="172.584" r="0.773252" fill="#E2E8F0"/>
<circle cx="70.6922" cy="177.223" r="0.773252" fill="#E2E8F0"/>
<circle cx="70.6922" cy="181.863" r="0.773252" fill="#E2E8F0"/>
<circle cx="70.6922" cy="186.503" r="0.773252" fill="#E2E8F0"/>
<circle cx="70.6922" cy="191.142" r="0.773252" fill="#E2E8F0"/>
<circle cx="70.6922" cy="195.782" r="0.773252" fill="#E2E8F0"/>
<circle cx="70.6922" cy="200.422" r="0.773252" fill="#E2E8F0"/>
<circle cx="70.6922" cy="205.06" r="0.773252" fill="#E2E8F0"/>
<circle cx="75.3318" cy="154.026" r="0.773252" fill="#E2E8F0"/>
<circle cx="75.3318" cy="158.666" r="0.773252" fill="#E2E8F0"/>
<circle cx="75.3318" cy="163.305" r="0.773252" fill="#E2E8F0"/>
<circle cx="75.3318" cy="167.945" r="0.773252" fill="#E2E8F0"/>
<circle cx="75.3318" cy="172.584" r="0.773252" fill="#E2E8F0"/>
<circle cx="75.3318" cy="177.223" r="0.773252" fill="#E2E8F0"/>
<circle cx="75.3318" cy="181.863" r="0.773252" fill="#E2E8F0"/>
<circle cx="75.3318" cy="186.503" r="0.773252" fill="#E2E8F0"/>
<circle cx="75.3318" cy="191.142" r="0.773252" fill="#E2E8F0"/>
<circle cx="75.3318" cy="195.782" r="0.773252" fill="#E2E8F0"/>
<circle cx="75.3318" cy="200.422" r="0.773252" fill="#E2E8F0"/>
<circle cx="75.3318" cy="205.06" r="0.773252" fill="#E2E8F0"/>
<circle cx="79.9708" cy="154.026" r="0.773252" fill="#E2E8F0"/>
<circle cx="79.9708" cy="158.666" r="0.773252" fill="#E2E8F0"/>
<circle cx="79.9708" cy="163.305" r="0.773252" fill="#E2E8F0"/>
<circle cx="79.9708" cy="167.945" r="0.773252" fill="#E2E8F0"/>
<circle cx="79.9708" cy="172.584" r="0.773252" fill="#E2E8F0"/>
<circle cx="79.9708" cy="177.223" r="0.773252" fill="#E2E8F0"/>
<circle cx="79.9708" cy="181.863" r="0.773252" fill="#E2E8F0"/>
<circle cx="79.9708" cy="186.503" r="0.773252" fill="#E2E8F0"/>
<circle cx="79.9708" cy="191.142" r="0.773252" fill="#E2E8F0"/>
<circle cx="79.9708" cy="195.782" r="0.773252" fill="#E2E8F0"/>
<circle cx="79.9708" cy="200.422" r="0.773252" fill="#E2E8F0"/>
<circle cx="79.9708" cy="205.06" r="0.773252" fill="#E2E8F0"/>
<circle cx="84.6102" cy="154.026" r="0.773252" fill="#E2E8F0"/>
<circle cx="84.6102" cy="158.666" r="0.773252" fill="#E2E8F0"/>
<circle cx="84.6102" cy="163.305" r="0.773252" fill="#E2E8F0"/>
<circle cx="84.6102" cy="167.945" r="0.773252" fill="#E2E8F0"/>
<circle cx="84.6102" cy="172.584" r="0.773252" fill="#E2E8F0"/>
<circle cx="84.6102" cy="177.223" r="0.773252" fill="#E2E8F0"/>
<circle cx="84.6102" cy="181.863" r="0.773252" fill="#E2E8F0"/>
<circle cx="84.6102" cy="186.503" r="0.773252" fill="#E2E8F0"/>
<circle cx="84.6102" cy="191.142" r="0.773252" fill="#E2E8F0"/>
<circle cx="84.6102" cy="195.782" r="0.773252" fill="#E2E8F0"/>
<circle cx="84.6102" cy="200.422" r="0.773252" fill="#E2E8F0"/>
<circle cx="84.6102" cy="205.06" r="0.773252" fill="#E2E8F0"/>
<circle cx="89.2505" cy="154.026" r="0.773252" fill="#E2E8F0"/>
<circle cx="89.2505" cy="158.666" r="0.773252" fill="#E2E8F0"/>
<circle cx="89.2505" cy="163.305" r="0.773252" fill="#E2E8F0"/>
<circle cx="89.2505" cy="167.945" r="0.773252" fill="#E2E8F0"/>
<circle cx="89.2505" cy="172.584" r="0.773252" fill="#E2E8F0"/>
<circle cx="89.2505" cy="177.223" r="0.773252" fill="#E2E8F0"/>
<circle cx="89.2505" cy="181.863" r="0.773252" fill="#E2E8F0"/>
<circle cx="89.2505" cy="186.503" r="0.773252" fill="#E2E8F0"/>
<circle cx="89.2505" cy="191.142" r="0.773252" fill="#E2E8F0"/>
<circle cx="89.2505" cy="195.782" r="0.773252" fill="#E2E8F0"/>
<circle cx="89.2505" cy="200.422" r="0.773252" fill="#E2E8F0"/>
<circle cx="89.2505" cy="205.06" r="0.773252" fill="#E2E8F0"/>
<circle cx="93.8895" cy="154.026" r="0.773252" fill="#E2E8F0"/>
<circle cx="93.8895" cy="158.666" r="0.773252" fill="#E2E8F0"/>
<circle cx="93.8895" cy="163.305" r="0.773252" fill="#E2E8F0"/>
<circle cx="93.8895" cy="167.945" r="0.773252" fill="#E2E8F0"/>
<circle cx="93.8895" cy="172.584" r="0.773252" fill="#E2E8F0"/>
<circle cx="93.8895" cy="177.223" r="0.773252" fill="#E2E8F0"/>
<circle cx="93.8895" cy="181.863" r="0.773252" fill="#E2E8F0"/>
<circle cx="93.8895" cy="186.503" r="0.773252" fill="#E2E8F0"/>
<circle cx="93.8895" cy="191.142" r="0.773252" fill="#E2E8F0"/>
<circle cx="93.8895" cy="195.782" r="0.773252" fill="#E2E8F0"/>
<circle cx="93.8895" cy="200.422" r="0.773252" fill="#E2E8F0"/>
<circle cx="93.8895" cy="205.06" r="0.773252" fill="#E2E8F0"/>
<circle cx="98.5291" cy="154.026" r="0.773252" fill="#E2E8F0"/>
<circle cx="98.5291" cy="158.666" r="0.773252" fill="#E2E8F0"/>
<circle cx="98.5291" cy="163.305" r="0.773252" fill="#E2E8F0"/>
<circle cx="98.5291" cy="167.945" r="0.773252" fill="#E2E8F0"/>
<circle cx="98.5291" cy="172.584" r="0.773252" fill="#E2E8F0"/>
<circle cx="98.5291" cy="177.223" r="0.773252" fill="#E2E8F0"/>
<circle cx="98.5291" cy="181.863" r="0.773252" fill="#E2E8F0"/>
<circle cx="98.5291" cy="186.503" r="0.773252" fill="#E2E8F0"/>
<circle cx="98.5291" cy="191.142" r="0.773252" fill="#E2E8F0"/>
<circle cx="98.5291" cy="195.782" r="0.773252" fill="#E2E8F0"/>
<circle cx="98.5291" cy="200.422" r="0.773252" fill="#E2E8F0"/>
<circle cx="98.5291" cy="205.06" r="0.773252" fill="#E2E8F0"/>
<circle cx="103.169" cy="154.026" r="0.773252" fill="#E2E8F0"/>
<circle cx="103.169" cy="158.666" r="0.773252" fill="#E2E8F0"/>
<circle cx="103.169" cy="163.305" r="0.773252" fill="#E2E8F0"/>
<circle cx="103.169" cy="167.945" r="0.773252" fill="#E2E8F0"/>
<circle cx="103.169" cy="172.584" r="0.773252" fill="#E2E8F0"/>
<circle cx="103.169" cy="177.223" r="0.773252" fill="#E2E8F0"/>
<circle cx="103.169" cy="181.863" r="0.773252" fill="#E2E8F0"/>
<circle cx="103.169" cy="186.503" r="0.773252" fill="#E2E8F0"/>
<circle cx="103.169" cy="191.142" r="0.773252" fill="#E2E8F0"/>
<circle cx="103.169" cy="195.782" r="0.773252" fill="#E2E8F0"/>
<circle cx="103.169" cy="200.422" r="0.773252" fill="#E2E8F0"/>
<circle cx="103.169" cy="205.06" r="0.773252" fill="#E2E8F0"/>
<circle cx="107.808" cy="154.026" r="0.773252" fill="#E2E8F0"/>
<circle cx="107.808" cy="158.666" r="0.773252" fill="#E2E8F0"/>
<circle cx="107.808" cy="163.305" r="0.773252" fill="#E2E8F0"/>
<circle cx="107.808" cy="167.945" r="0.773252" fill="#E2E8F0"/>
<circle cx="107.808" cy="172.584" r="0.773252" fill="#E2E8F0"/>
<circle cx="107.808" cy="177.223" r="0.773252" fill="#E2E8F0"/>
<circle cx="107.808" cy="181.863" r="0.773252" fill="#E2E8F0"/>
<circle cx="107.808" cy="186.503" r="0.773252" fill="#E2E8F0"/>
<circle cx="107.808" cy="191.142" r="0.773252" fill="#E2E8F0"/>
<circle cx="107.808" cy="195.782" r="0.773252" fill="#E2E8F0"/>
<circle cx="107.808" cy="200.422" r="0.773252" fill="#E2E8F0"/>
<circle cx="107.808" cy="205.06" r="0.773252" fill="#E2E8F0"/>
<path d="M265.809 23L149.58 59.0495V93.1989L265.809 23Z" fill="#4443C4"/>
<path d="M107.459 58.3455L149.58 59.0495L265.809 23L107.459 58.3455Z" fill="#211FA6"/>
<path d="M149.58 93.1989L164.996 74.7894L265.809 23L149.58 93.1989Z" fill="#1B1A6A"/>
<path d="M265.809 23L164.996 74.7894L178.855 118.471L265.809 23Z" fill="#211FA6"/>
<g clip-path="url(#clip0_3599_7378)">
<path opacity="0.03" d="M109.211 192.142C127.92 192.142 143.087 190.72 143.087 188.966C143.087 187.212 127.92 185.79 109.211 185.79C90.5011 185.79 75.334 187.212 75.334 188.966C75.334 190.72 90.5011 192.142 109.211 192.142Z" fill="black"/>
<path d="M118.783 189.077L117.746 186.023L117.219 185.233L116.437 182.864L116.321 181.497L113.27 178.124L113.986 175.873L97.9452 130.122L89.9482 122.281L109.162 125.886H109.165L118.783 189.077Z" fill="#C2C1E5"/>
<path d="M119.326 180.493L121.169 182.863L119.329 186.976L118.783 189.077L118.182 182.469L116.411 179.168L117.118 178.136L109.165 125.886L128.96 118.355L120.413 179.235L119.326 180.493Z" fill="#A6A5D7"/>
<path d="M97.9452 130.122L96.3891 130.726L93.574 131.816L89.9482 122.281L97.9452 130.122Z" fill="#8786C7"/>
<path d="M117.076 188.829L117.22 187.603L113.271 186.023L114.06 182.337L110.882 180.746L74.4424 139.093L93.5745 131.815L96.3896 130.725L97.9458 130.122L113.987 175.872L113.271 178.124L116.321 181.497L116.438 182.863L117.22 185.233L117.747 186.023L118.659 189.077L117.076 188.829Z" fill="#A6A5D7"/>
<path d="M106.53 181.102L110.201 183.809H105.301L106.53 181.102Z" fill="#A6A5D7"/>
<path d="M126.155 186.208L121.683 187.105L124.978 183.478L126.155 186.208Z" fill="#A6A5D7"/>
<path d="M124.259 179.311L123.261 181.268L122.876 178.94L124.259 179.311Z" fill="#A6A5D7"/>
</g>
<path d="M100.96 117.747C100.873 117.738 100.788 117.706 100.713 117.651C100.488 117.485 100.44 117.169 100.606 116.945C101.035 116.364 101.511 115.805 102.022 115.282C102.217 115.083 102.538 115.079 102.737 115.273C102.938 115.467 102.941 115.787 102.747 115.987C102.269 116.477 101.822 117.001 101.421 117.544C101.31 117.693 101.134 117.764 100.961 117.746L100.96 117.747ZM104.758 114.099C104.616 114.085 104.481 114.01 104.393 113.883C104.235 113.653 104.293 113.339 104.523 113.181C105.111 112.775 105.739 112.399 106.388 112.059C106.635 111.93 106.941 112.025 107.07 112.272C107.2 112.519 107.104 112.825 106.857 112.954C106.244 113.274 105.652 113.63 105.097 114.012C104.994 114.083 104.873 114.111 104.758 114.099ZM109.493 111.778C109.301 111.758 109.13 111.63 109.065 111.435C108.976 111.171 109.12 110.885 109.385 110.797C110.054 110.575 110.755 110.38 111.469 110.216C111.742 110.154 112.012 110.324 112.075 110.596C112.138 110.867 111.968 111.138 111.696 111.201C111.012 111.357 110.341 111.544 109.703 111.756C109.633 111.779 109.562 111.786 109.492 111.779L109.493 111.778ZM114.661 110.694C114.428 110.671 114.236 110.487 114.211 110.245C114.182 109.968 114.383 109.72 114.661 109.69C115.061 109.648 115.472 109.614 115.883 109.587C116.183 109.567 116.484 109.546 116.784 109.522C117.062 109.499 117.306 109.707 117.329 109.985C117.351 110.263 117.143 110.507 116.864 110.529C116.559 110.554 116.254 110.575 115.949 110.596C115.551 110.622 115.153 110.655 114.767 110.696C114.732 110.7 114.695 110.7 114.661 110.696L114.661 110.694ZM119.933 110.194C119.705 110.17 119.515 109.994 119.484 109.757C119.448 109.481 119.643 109.227 119.92 109.191C120.615 109.1 121.314 108.996 121.997 108.882C122.273 108.836 122.533 109.021 122.579 109.297C122.626 109.572 122.439 109.832 122.164 109.878C121.469 109.994 120.758 110.099 120.051 110.192C120.011 110.197 119.972 110.198 119.933 110.193V110.194ZM125.147 109.273C124.938 109.251 124.755 109.099 124.706 108.882C124.645 108.61 124.815 108.34 125.088 108.278C125.783 108.122 126.468 107.952 127.124 107.774C127.393 107.702 127.671 107.86 127.744 108.13C127.817 108.399 127.658 108.676 127.388 108.749C126.719 108.93 126.021 109.104 125.311 109.264C125.256 109.276 125.2 109.279 125.147 109.274L125.147 109.273ZM130.237 107.816C130.05 107.796 129.881 107.673 129.813 107.484C129.718 107.222 129.855 106.933 130.118 106.838C130.799 106.593 131.449 106.334 132.051 106.068C132.307 105.955 132.605 106.07 132.719 106.325C132.832 106.579 132.717 106.878 132.461 106.991C131.838 107.267 131.164 107.535 130.461 107.788C130.387 107.815 130.311 107.823 130.237 107.816ZM123.214 104.406C122.966 104.38 122.769 104.175 122.761 103.919C122.752 103.641 122.972 103.407 123.251 103.4C123.888 103.38 124.565 103.298 125.263 103.156C125.537 103.101 125.804 103.277 125.86 103.55C125.916 103.823 125.739 104.091 125.465 104.146C124.711 104.299 123.976 104.388 123.282 104.41C123.259 104.41 123.236 104.41 123.213 104.408L123.214 104.406ZM120.083 103.992C120.05 103.988 120.016 103.982 119.983 103.971C119.288 103.752 118.605 103.447 117.95 103.064C117.709 102.923 117.628 102.613 117.77 102.373C117.911 102.132 118.221 102.051 118.462 102.193C119.052 102.538 119.665 102.812 120.287 103.007C120.553 103.091 120.702 103.375 120.618 103.641C120.544 103.873 120.317 104.015 120.083 103.992ZM135 105.532C134.856 105.517 134.718 105.439 134.632 105.309C134.477 105.076 134.54 104.763 134.773 104.609C135.388 104.2 135.914 103.776 136.334 103.349C136.53 103.15 136.85 103.147 137.05 103.342C137.249 103.537 137.252 103.857 137.056 104.057C136.587 104.534 136.007 105.003 135.333 105.451C135.231 105.518 135.113 105.544 135 105.532V105.532ZM128.353 103.248C128.17 103.229 128.003 103.109 127.932 102.924C127.833 102.664 127.965 102.372 128.226 102.273C128.83 102.044 129.459 101.781 130.15 101.469C130.405 101.354 130.704 101.467 130.819 101.721C130.934 101.975 130.822 102.274 130.567 102.389C129.857 102.709 129.208 102.981 128.584 103.217C128.508 103.246 128.429 103.255 128.353 103.247L128.353 103.248ZM115.724 101.115C115.595 101.101 115.472 101.039 115.384 100.931C114.868 100.296 114.498 99.6181 114.285 98.9163C114.204 98.6491 114.355 98.3675 114.622 98.2866C114.889 98.2058 115.171 98.356 115.252 98.6231C115.427 99.1993 115.736 99.7618 116.17 100.295C116.345 100.511 116.313 100.829 116.096 101.005C115.987 101.093 115.854 101.129 115.725 101.116L115.724 101.115ZM133.164 101.043C133 101.026 132.846 100.929 132.765 100.771C132.638 100.523 132.736 100.219 132.984 100.092C133.601 99.7762 134.226 99.4499 134.859 99.1177C135.106 98.9885 135.412 99.0831 135.542 99.33C135.672 99.577 135.576 99.8824 135.329 100.012C134.693 100.345 134.065 100.674 133.445 100.99C133.355 101.036 133.257 101.053 133.162 101.043L133.164 101.043ZM138.069 101.454C137.796 101.426 137.595 101.186 137.618 100.911C137.665 100.337 137.532 99.7438 137.226 99.1466C137.098 98.8982 137.196 98.5942 137.445 98.4672C137.474 98.452 137.503 98.4404 137.534 98.4318C137.506 98.4007 137.482 98.3653 137.461 98.3264C137.333 98.0787 137.432 97.774 137.68 97.6462C138.372 97.2909 138.995 96.9783 139.582 96.6923C139.833 96.5696 140.136 96.6736 140.258 96.9241C140.381 97.1747 140.277 97.4772 140.026 97.5992C139.445 97.883 138.829 98.1921 138.142 98.5444C138.113 98.5596 138.083 98.5711 138.053 98.5798C138.081 98.6108 138.105 98.6462 138.125 98.6852C138.52 99.452 138.688 100.228 138.626 100.992C138.604 101.27 138.359 101.477 138.081 101.454C138.078 101.454 138.073 101.454 138.07 101.453L138.069 101.454ZM114.92 96.179C114.868 96.1739 114.816 96.1602 114.765 96.1371C114.51 96.023 114.396 95.7241 114.51 95.4699C114.813 94.7948 115.263 94.1673 115.846 93.6055C116.047 93.412 116.368 93.4178 116.562 93.6185C116.756 93.8193 116.75 94.1391 116.549 94.3327C116.059 94.8042 115.684 95.3255 115.433 95.8829C115.341 96.0873 115.131 96.2006 114.92 96.179ZM135.576 97.0216C135.479 97.0115 135.383 96.9732 135.303 96.9061C134.825 96.5046 134.268 96.0974 133.646 95.6952C133.412 95.5435 133.345 95.2309 133.497 94.997C133.649 94.763 133.962 94.6959 134.197 94.8482C134.853 95.2728 135.444 95.7053 135.954 96.1327C136.168 96.3118 136.195 96.631 136.015 96.844C135.903 96.9768 135.737 97.0382 135.576 97.0216ZM142.636 96.3212C142.46 96.3032 142.299 96.192 142.223 96.0179C142.113 95.7616 142.232 95.4648 142.489 95.3551C143.164 95.0663 143.833 94.7969 144.476 94.5565C144.737 94.459 145.029 94.5904 145.127 94.8518C145.225 95.1125 145.093 95.4042 144.831 95.5017C144.202 95.7371 143.549 95.9999 142.887 96.2829C142.806 96.3183 142.719 96.3299 142.636 96.3212ZM131.107 94.2121C131.048 94.2063 130.989 94.1897 130.933 94.1615C130.304 93.8474 129.668 93.5651 129.041 93.3218C128.781 93.2207 128.652 92.9283 128.753 92.6683C128.855 92.4084 129.148 92.2791 129.408 92.3809C130.063 92.6351 130.729 92.9304 131.386 93.2582C131.635 93.3832 131.737 93.6864 131.611 93.9355C131.515 94.129 131.31 94.233 131.107 94.2121ZM118.83 92.8192C118.646 92.8005 118.48 92.6813 118.41 92.4972C118.31 92.2365 118.441 91.9448 118.702 91.8452C119.37 91.591 120.09 91.3982 120.841 91.2733C121.118 91.2278 121.377 91.4134 121.424 91.6885C121.469 91.9636 121.283 92.2235 121.008 92.2697C120.322 92.3838 119.668 92.5578 119.063 92.7889C118.986 92.8178 118.907 92.8272 118.831 92.8192H118.83ZM126.133 92.4452C126.116 92.4438 126.099 92.4409 126.082 92.4373C125.398 92.295 124.713 92.1975 124.053 92.1484C123.777 92.1304 123.565 91.8856 123.586 91.6076C123.607 91.3296 123.85 91.121 124.128 91.1419C124.829 91.1939 125.561 91.2979 126.289 91.4495C126.562 91.5065 126.737 91.7737 126.68 92.0466C126.627 92.3022 126.388 92.4719 126.133 92.4459V92.4452Z" fill="black" fill-opacity="0.15"/>
<defs>
<clipPath id="clip0_3599_7378">
<rect width="68.9148" height="74.007" fill="white" transform="translate(74.3066 118.326)"/>
</clipPath>
</defs>
</svg>
