<svg width="367" height="206" viewBox="0 0 367 206" fill="none" xmlns="http://www.w3.org/2000/svg">
<g clip-path="url(#clip0_3599_7769)">
<rect width="366.667" height="206" rx="4" fill="#F3F4F6"/>
<circle cx="220.698" cy="0.773252" r="0.773252" fill="#E2E8F0"/>
<circle cx="220.698" cy="5.41278" r="0.773252" fill="#E2E8F0"/>
<circle cx="220.698" cy="10.0525" r="0.773252" fill="#E2E8F0"/>
<circle cx="220.698" cy="14.6922" r="0.773252" fill="#E2E8F0"/>
<circle cx="220.698" cy="19.3309" r="0.773252" fill="#E2E8F0"/>
<circle cx="220.698" cy="23.9705" r="0.773252" fill="#E2E8F0"/>
<circle cx="220.698" cy="28.6103" r="0.773252" fill="#E2E8F0"/>
<circle cx="220.698" cy="33.2498" r="0.773252" fill="#E2E8F0"/>
<circle cx="220.698" cy="37.8893" r="0.773252" fill="#E2E8F0"/>
<circle cx="220.698" cy="42.5291" r="0.773252" fill="#E2E8F0"/>
<circle cx="220.698" cy="47.1688" r="0.773252" fill="#E2E8F0"/>
<circle cx="220.698" cy="51.8074" r="0.773252" fill="#E2E8F0"/>
<circle cx="225.338" cy="0.773252" r="0.773252" fill="#E2E8F0"/>
<circle cx="225.338" cy="5.41278" r="0.773252" fill="#E2E8F0"/>
<circle cx="225.338" cy="10.0525" r="0.773252" fill="#E2E8F0"/>
<circle cx="225.338" cy="14.6922" r="0.773252" fill="#E2E8F0"/>
<circle cx="225.338" cy="19.3309" r="0.773252" fill="#E2E8F0"/>
<circle cx="225.338" cy="23.9705" r="0.773252" fill="#E2E8F0"/>
<circle cx="225.338" cy="28.6103" r="0.773252" fill="#E2E8F0"/>
<circle cx="225.338" cy="33.2498" r="0.773252" fill="#E2E8F0"/>
<circle cx="225.338" cy="37.8893" r="0.773252" fill="#E2E8F0"/>
<circle cx="225.338" cy="42.5291" r="0.773252" fill="#E2E8F0"/>
<circle cx="225.338" cy="47.1688" r="0.773252" fill="#E2E8F0"/>
<circle cx="225.338" cy="51.8074" r="0.773252" fill="#E2E8F0"/>
<circle cx="229.977" cy="0.773252" r="0.773252" fill="#E2E8F0"/>
<circle cx="229.977" cy="5.41278" r="0.773252" fill="#E2E8F0"/>
<circle cx="229.977" cy="10.0525" r="0.773252" fill="#E2E8F0"/>
<circle cx="229.977" cy="14.6922" r="0.773252" fill="#E2E8F0"/>
<circle cx="229.977" cy="19.3309" r="0.773252" fill="#E2E8F0"/>
<circle cx="229.977" cy="23.9705" r="0.773252" fill="#E2E8F0"/>
<circle cx="229.977" cy="28.6103" r="0.773252" fill="#E2E8F0"/>
<circle cx="229.977" cy="33.2498" r="0.773252" fill="#E2E8F0"/>
<circle cx="229.977" cy="37.8893" r="0.773252" fill="#E2E8F0"/>
<circle cx="229.977" cy="42.5291" r="0.773252" fill="#E2E8F0"/>
<circle cx="229.977" cy="47.1688" r="0.773252" fill="#E2E8F0"/>
<circle cx="229.977" cy="51.8074" r="0.773252" fill="#E2E8F0"/>
<circle cx="234.617" cy="0.773252" r="0.773252" fill="#E2E8F0"/>
<circle cx="234.617" cy="5.41278" r="0.773252" fill="#E2E8F0"/>
<circle cx="234.617" cy="10.0525" r="0.773252" fill="#E2E8F0"/>
<circle cx="234.617" cy="14.6922" r="0.773252" fill="#E2E8F0"/>
<circle cx="234.617" cy="19.3309" r="0.773252" fill="#E2E8F0"/>
<circle cx="234.617" cy="23.9705" r="0.773252" fill="#E2E8F0"/>
<circle cx="234.617" cy="28.6103" r="0.773252" fill="#E2E8F0"/>
<circle cx="234.617" cy="33.2498" r="0.773252" fill="#E2E8F0"/>
<circle cx="234.617" cy="37.8893" r="0.773252" fill="#E2E8F0"/>
<circle cx="234.617" cy="42.5291" r="0.773252" fill="#E2E8F0"/>
<circle cx="234.617" cy="47.1688" r="0.773252" fill="#E2E8F0"/>
<circle cx="234.617" cy="51.8074" r="0.773252" fill="#E2E8F0"/>
<circle cx="239.257" cy="0.773252" r="0.773252" fill="#E2E8F0"/>
<circle cx="239.257" cy="5.41278" r="0.773252" fill="#E2E8F0"/>
<circle cx="239.257" cy="10.0525" r="0.773252" fill="#E2E8F0"/>
<circle cx="239.257" cy="14.6922" r="0.773252" fill="#E2E8F0"/>
<circle cx="239.257" cy="19.3309" r="0.773252" fill="#E2E8F0"/>
<circle cx="239.257" cy="23.9705" r="0.773252" fill="#E2E8F0"/>
<circle cx="239.257" cy="28.6103" r="0.773252" fill="#E2E8F0"/>
<circle cx="239.257" cy="33.2498" r="0.773252" fill="#E2E8F0"/>
<circle cx="239.257" cy="37.8893" r="0.773252" fill="#E2E8F0"/>
<circle cx="239.257" cy="42.5291" r="0.773252" fill="#E2E8F0"/>
<circle cx="239.257" cy="47.1688" r="0.773252" fill="#E2E8F0"/>
<circle cx="239.257" cy="51.8074" r="0.773252" fill="#E2E8F0"/>
<circle cx="243.895" cy="0.773252" r="0.773252" fill="#E2E8F0"/>
<circle cx="243.895" cy="5.41278" r="0.773252" fill="#E2E8F0"/>
<circle cx="243.895" cy="10.0525" r="0.773252" fill="#E2E8F0"/>
<circle cx="243.895" cy="14.6922" r="0.773252" fill="#E2E8F0"/>
<circle cx="243.895" cy="19.3309" r="0.773252" fill="#E2E8F0"/>
<circle cx="243.895" cy="23.9705" r="0.773252" fill="#E2E8F0"/>
<circle cx="243.895" cy="28.6103" r="0.773252" fill="#E2E8F0"/>
<circle cx="243.895" cy="33.2498" r="0.773252" fill="#E2E8F0"/>
<circle cx="243.895" cy="37.8893" r="0.773252" fill="#E2E8F0"/>
<circle cx="243.895" cy="42.5291" r="0.773252" fill="#E2E8F0"/>
<circle cx="243.895" cy="47.1688" r="0.773252" fill="#E2E8F0"/>
<circle cx="243.895" cy="51.8074" r="0.773252" fill="#E2E8F0"/>
<circle cx="248.535" cy="0.773252" r="0.773252" fill="#E2E8F0"/>
<circle cx="248.535" cy="5.41278" r="0.773252" fill="#E2E8F0"/>
<circle cx="248.535" cy="10.0525" r="0.773252" fill="#E2E8F0"/>
<circle cx="248.535" cy="14.6922" r="0.773252" fill="#E2E8F0"/>
<circle cx="248.535" cy="19.3309" r="0.773252" fill="#E2E8F0"/>
<circle cx="248.535" cy="23.9705" r="0.773252" fill="#E2E8F0"/>
<circle cx="248.535" cy="28.6103" r="0.773252" fill="#E2E8F0"/>
<circle cx="248.535" cy="33.2498" r="0.773252" fill="#E2E8F0"/>
<circle cx="248.535" cy="37.8893" r="0.773252" fill="#E2E8F0"/>
<circle cx="248.535" cy="42.5291" r="0.773252" fill="#E2E8F0"/>
<circle cx="248.535" cy="47.1688" r="0.773252" fill="#E2E8F0"/>
<circle cx="248.535" cy="51.8074" r="0.773252" fill="#E2E8F0"/>
<circle cx="253.175" cy="0.773252" r="0.773252" fill="#E2E8F0"/>
<circle cx="253.175" cy="5.41278" r="0.773252" fill="#E2E8F0"/>
<circle cx="253.175" cy="10.0525" r="0.773252" fill="#E2E8F0"/>
<circle cx="253.175" cy="14.6922" r="0.773252" fill="#E2E8F0"/>
<circle cx="253.175" cy="19.3309" r="0.773252" fill="#E2E8F0"/>
<circle cx="253.175" cy="23.9705" r="0.773252" fill="#E2E8F0"/>
<circle cx="253.175" cy="28.6103" r="0.773252" fill="#E2E8F0"/>
<circle cx="253.175" cy="33.2498" r="0.773252" fill="#E2E8F0"/>
<circle cx="253.175" cy="37.8893" r="0.773252" fill="#E2E8F0"/>
<circle cx="253.175" cy="42.5291" r="0.773252" fill="#E2E8F0"/>
<circle cx="253.175" cy="47.1688" r="0.773252" fill="#E2E8F0"/>
<circle cx="253.175" cy="51.8074" r="0.773252" fill="#E2E8F0"/>
<circle cx="257.814" cy="0.773252" r="0.773252" fill="#E2E8F0"/>
<circle cx="257.814" cy="5.41278" r="0.773252" fill="#E2E8F0"/>
<circle cx="257.814" cy="10.0525" r="0.773252" fill="#E2E8F0"/>
<circle cx="257.814" cy="14.6922" r="0.773252" fill="#E2E8F0"/>
<circle cx="257.814" cy="19.3309" r="0.773252" fill="#E2E8F0"/>
<circle cx="257.814" cy="23.9705" r="0.773252" fill="#E2E8F0"/>
<circle cx="257.814" cy="28.6103" r="0.773252" fill="#E2E8F0"/>
<circle cx="257.814" cy="33.2498" r="0.773252" fill="#E2E8F0"/>
<circle cx="257.814" cy="37.8893" r="0.773252" fill="#E2E8F0"/>
<circle cx="257.814" cy="42.5291" r="0.773252" fill="#E2E8F0"/>
<circle cx="257.814" cy="47.1688" r="0.773252" fill="#E2E8F0"/>
<circle cx="257.814" cy="51.8074" r="0.773252" fill="#E2E8F0"/>
<circle cx="262.454" cy="0.773252" r="0.773252" fill="#E2E8F0"/>
<circle cx="262.454" cy="5.41278" r="0.773252" fill="#E2E8F0"/>
<circle cx="262.454" cy="10.0525" r="0.773252" fill="#E2E8F0"/>
<circle cx="262.454" cy="14.6922" r="0.773252" fill="#E2E8F0"/>
<circle cx="262.454" cy="19.3309" r="0.773252" fill="#E2E8F0"/>
<circle cx="262.454" cy="23.9705" r="0.773252" fill="#E2E8F0"/>
<circle cx="262.454" cy="28.6103" r="0.773252" fill="#E2E8F0"/>
<circle cx="262.454" cy="33.2498" r="0.773252" fill="#E2E8F0"/>
<circle cx="262.454" cy="37.8893" r="0.773252" fill="#E2E8F0"/>
<circle cx="262.454" cy="42.5291" r="0.773252" fill="#E2E8F0"/>
<circle cx="262.454" cy="47.1688" r="0.773252" fill="#E2E8F0"/>
<circle cx="262.454" cy="51.8074" r="0.773252" fill="#E2E8F0"/>
<circle cx="267.093" cy="0.773252" r="0.773252" fill="#E2E8F0"/>
<circle cx="267.093" cy="5.4129" r="0.773252" fill="#E2E8F0"/>
<circle cx="267.093" cy="10.0525" r="0.773252" fill="#E2E8F0"/>
<circle cx="267.093" cy="14.6922" r="0.773252" fill="#E2E8F0"/>
<circle cx="267.093" cy="19.3309" r="0.773252" fill="#E2E8F0"/>
<circle cx="267.093" cy="23.9705" r="0.773252" fill="#E2E8F0"/>
<circle cx="267.093" cy="28.6102" r="0.773252" fill="#E2E8F0"/>
<circle cx="267.093" cy="33.2498" r="0.773252" fill="#E2E8F0"/>
<circle cx="267.093" cy="37.8895" r="0.773252" fill="#E2E8F0"/>
<circle cx="267.093" cy="42.5291" r="0.773252" fill="#E2E8F0"/>
<circle cx="267.093" cy="47.1688" r="0.773252" fill="#E2E8F0"/>
<circle cx="267.093" cy="51.8074" r="0.773252" fill="#E2E8F0"/>
<circle cx="271.733" cy="0.773252" r="0.773252" fill="#E2E8F0"/>
<circle cx="271.733" cy="5.41278" r="0.773252" fill="#E2E8F0"/>
<circle cx="271.733" cy="10.0525" r="0.773252" fill="#E2E8F0"/>
<circle cx="271.733" cy="14.6922" r="0.773252" fill="#E2E8F0"/>
<circle cx="271.733" cy="19.3309" r="0.773252" fill="#E2E8F0"/>
<circle cx="271.733" cy="23.9705" r="0.773252" fill="#E2E8F0"/>
<circle cx="271.733" cy="28.6103" r="0.773252" fill="#E2E8F0"/>
<circle cx="271.733" cy="33.2498" r="0.773252" fill="#E2E8F0"/>
<circle cx="271.733" cy="37.8893" r="0.773252" fill="#E2E8F0"/>
<circle cx="271.733" cy="42.5291" r="0.773252" fill="#E2E8F0"/>
<circle cx="271.733" cy="47.1688" r="0.773252" fill="#E2E8F0"/>
<circle cx="271.733" cy="51.8074" r="0.773252" fill="#E2E8F0"/>
<circle cx="46.1063" cy="154.026" r="0.773252" fill="#E2E8F0"/>
<circle cx="46.1063" cy="158.666" r="0.773252" fill="#E2E8F0"/>
<circle cx="46.1063" cy="163.305" r="0.773252" fill="#E2E8F0"/>
<circle cx="46.1063" cy="167.945" r="0.773252" fill="#E2E8F0"/>
<circle cx="46.1063" cy="172.584" r="0.773252" fill="#E2E8F0"/>
<circle cx="46.1063" cy="177.223" r="0.773252" fill="#E2E8F0"/>
<circle cx="46.1063" cy="181.863" r="0.773252" fill="#E2E8F0"/>
<circle cx="46.1063" cy="186.503" r="0.773252" fill="#E2E8F0"/>
<circle cx="46.1063" cy="191.142" r="0.773252" fill="#E2E8F0"/>
<circle cx="46.1063" cy="195.782" r="0.773252" fill="#E2E8F0"/>
<circle cx="46.1063" cy="200.422" r="0.773252" fill="#E2E8F0"/>
<circle cx="46.1063" cy="205.06" r="0.773252" fill="#E2E8F0"/>
<circle cx="50.7459" cy="154.026" r="0.773252" fill="#E2E8F0"/>
<circle cx="50.7459" cy="158.666" r="0.773252" fill="#E2E8F0"/>
<circle cx="50.7459" cy="163.305" r="0.773252" fill="#E2E8F0"/>
<circle cx="50.7459" cy="167.945" r="0.773252" fill="#E2E8F0"/>
<circle cx="50.7459" cy="172.584" r="0.773252" fill="#E2E8F0"/>
<circle cx="50.7459" cy="177.223" r="0.773252" fill="#E2E8F0"/>
<circle cx="50.7459" cy="181.863" r="0.773252" fill="#E2E8F0"/>
<circle cx="50.7459" cy="186.503" r="0.773252" fill="#E2E8F0"/>
<circle cx="50.7459" cy="191.142" r="0.773252" fill="#E2E8F0"/>
<circle cx="50.7459" cy="195.782" r="0.773252" fill="#E2E8F0"/>
<circle cx="50.7459" cy="200.422" r="0.773252" fill="#E2E8F0"/>
<circle cx="50.7459" cy="205.06" r="0.773252" fill="#E2E8F0"/>
<circle cx="55.3856" cy="154.026" r="0.773252" fill="#E2E8F0"/>
<circle cx="55.3856" cy="158.666" r="0.773252" fill="#E2E8F0"/>
<circle cx="55.3856" cy="163.305" r="0.773252" fill="#E2E8F0"/>
<circle cx="55.3856" cy="167.945" r="0.773252" fill="#E2E8F0"/>
<circle cx="55.3856" cy="172.584" r="0.773252" fill="#E2E8F0"/>
<circle cx="55.3856" cy="177.223" r="0.773252" fill="#E2E8F0"/>
<circle cx="55.3856" cy="181.863" r="0.773252" fill="#E2E8F0"/>
<circle cx="55.3856" cy="186.503" r="0.773252" fill="#E2E8F0"/>
<circle cx="55.3856" cy="191.142" r="0.773252" fill="#E2E8F0"/>
<circle cx="55.3856" cy="195.782" r="0.773252" fill="#E2E8F0"/>
<circle cx="55.3856" cy="200.422" r="0.773252" fill="#E2E8F0"/>
<circle cx="55.3856" cy="205.06" r="0.773252" fill="#E2E8F0"/>
<circle cx="60.0252" cy="154.026" r="0.773252" fill="#E2E8F0"/>
<circle cx="60.0252" cy="158.666" r="0.773252" fill="#E2E8F0"/>
<circle cx="60.0252" cy="163.305" r="0.773252" fill="#E2E8F0"/>
<circle cx="60.0252" cy="167.945" r="0.773252" fill="#E2E8F0"/>
<circle cx="60.0252" cy="172.584" r="0.773252" fill="#E2E8F0"/>
<circle cx="60.0252" cy="177.223" r="0.773252" fill="#E2E8F0"/>
<circle cx="60.0252" cy="181.863" r="0.773252" fill="#E2E8F0"/>
<circle cx="60.0252" cy="186.503" r="0.773252" fill="#E2E8F0"/>
<circle cx="60.0252" cy="191.142" r="0.773252" fill="#E2E8F0"/>
<circle cx="60.0252" cy="195.782" r="0.773252" fill="#E2E8F0"/>
<circle cx="60.0252" cy="200.422" r="0.773252" fill="#E2E8F0"/>
<circle cx="60.0252" cy="205.06" r="0.773252" fill="#E2E8F0"/>
<circle cx="64.6649" cy="154.026" r="0.773252" fill="#E2E8F0"/>
<circle cx="64.6649" cy="158.666" r="0.773252" fill="#E2E8F0"/>
<circle cx="64.6649" cy="163.305" r="0.773252" fill="#E2E8F0"/>
<circle cx="64.6649" cy="167.945" r="0.773252" fill="#E2E8F0"/>
<circle cx="64.6649" cy="172.584" r="0.773252" fill="#E2E8F0"/>
<circle cx="64.6649" cy="177.223" r="0.773252" fill="#E2E8F0"/>
<circle cx="64.6649" cy="181.863" r="0.773252" fill="#E2E8F0"/>
<circle cx="64.6649" cy="186.503" r="0.773252" fill="#E2E8F0"/>
<circle cx="64.6649" cy="191.142" r="0.773252" fill="#E2E8F0"/>
<circle cx="64.6649" cy="195.782" r="0.773252" fill="#E2E8F0"/>
<circle cx="64.6649" cy="200.422" r="0.773252" fill="#E2E8F0"/>
<circle cx="64.6649" cy="205.06" r="0.773252" fill="#E2E8F0"/>
<circle cx="69.3038" cy="154.026" r="0.773252" fill="#E2E8F0"/>
<circle cx="69.3038" cy="158.666" r="0.773252" fill="#E2E8F0"/>
<circle cx="69.3038" cy="163.305" r="0.773252" fill="#E2E8F0"/>
<circle cx="69.3038" cy="167.945" r="0.773252" fill="#E2E8F0"/>
<circle cx="69.3038" cy="172.584" r="0.773252" fill="#E2E8F0"/>
<circle cx="69.3038" cy="177.223" r="0.773252" fill="#E2E8F0"/>
<circle cx="69.3038" cy="181.863" r="0.773252" fill="#E2E8F0"/>
<circle cx="69.3038" cy="186.503" r="0.773252" fill="#E2E8F0"/>
<circle cx="69.3038" cy="191.142" r="0.773252" fill="#E2E8F0"/>
<circle cx="69.3038" cy="195.782" r="0.773252" fill="#E2E8F0"/>
<circle cx="69.3038" cy="200.422" r="0.773252" fill="#E2E8F0"/>
<circle cx="69.3038" cy="205.06" r="0.773252" fill="#E2E8F0"/>
<circle cx="73.9432" cy="154.026" r="0.773252" fill="#E2E8F0"/>
<circle cx="73.9432" cy="158.666" r="0.773252" fill="#E2E8F0"/>
<circle cx="73.9432" cy="163.305" r="0.773252" fill="#E2E8F0"/>
<circle cx="73.9432" cy="167.945" r="0.773252" fill="#E2E8F0"/>
<circle cx="73.9432" cy="172.584" r="0.773252" fill="#E2E8F0"/>
<circle cx="73.9432" cy="177.223" r="0.773252" fill="#E2E8F0"/>
<circle cx="73.9432" cy="181.863" r="0.773252" fill="#E2E8F0"/>
<circle cx="73.9432" cy="186.503" r="0.773252" fill="#E2E8F0"/>
<circle cx="73.9432" cy="191.142" r="0.773252" fill="#E2E8F0"/>
<circle cx="73.9432" cy="195.782" r="0.773252" fill="#E2E8F0"/>
<circle cx="73.9432" cy="200.422" r="0.773252" fill="#E2E8F0"/>
<circle cx="73.9432" cy="205.06" r="0.773252" fill="#E2E8F0"/>
<circle cx="78.5836" cy="154.026" r="0.773252" fill="#E2E8F0"/>
<circle cx="78.5836" cy="158.666" r="0.773252" fill="#E2E8F0"/>
<circle cx="78.5836" cy="163.305" r="0.773252" fill="#E2E8F0"/>
<circle cx="78.5836" cy="167.945" r="0.773252" fill="#E2E8F0"/>
<circle cx="78.5836" cy="172.584" r="0.773252" fill="#E2E8F0"/>
<circle cx="78.5836" cy="177.223" r="0.773252" fill="#E2E8F0"/>
<circle cx="78.5836" cy="181.863" r="0.773252" fill="#E2E8F0"/>
<circle cx="78.5836" cy="186.503" r="0.773252" fill="#E2E8F0"/>
<circle cx="78.5836" cy="191.142" r="0.773252" fill="#E2E8F0"/>
<circle cx="78.5836" cy="195.782" r="0.773252" fill="#E2E8F0"/>
<circle cx="78.5836" cy="200.422" r="0.773252" fill="#E2E8F0"/>
<circle cx="78.5836" cy="205.06" r="0.773252" fill="#E2E8F0"/>
<circle cx="83.2225" cy="154.026" r="0.773252" fill="#E2E8F0"/>
<circle cx="83.2225" cy="158.666" r="0.773252" fill="#E2E8F0"/>
<circle cx="83.2225" cy="163.305" r="0.773252" fill="#E2E8F0"/>
<circle cx="83.2225" cy="167.945" r="0.773252" fill="#E2E8F0"/>
<circle cx="83.2225" cy="172.584" r="0.773252" fill="#E2E8F0"/>
<circle cx="83.2225" cy="177.223" r="0.773252" fill="#E2E8F0"/>
<circle cx="83.2225" cy="181.863" r="0.773252" fill="#E2E8F0"/>
<circle cx="83.2225" cy="186.503" r="0.773252" fill="#E2E8F0"/>
<circle cx="83.2225" cy="191.142" r="0.773252" fill="#E2E8F0"/>
<circle cx="83.2225" cy="195.782" r="0.773252" fill="#E2E8F0"/>
<circle cx="83.2225" cy="200.422" r="0.773252" fill="#E2E8F0"/>
<circle cx="83.2225" cy="205.06" r="0.773252" fill="#E2E8F0"/>
<circle cx="87.8621" cy="154.026" r="0.773252" fill="#E2E8F0"/>
<circle cx="87.8621" cy="158.666" r="0.773252" fill="#E2E8F0"/>
<circle cx="87.8621" cy="163.305" r="0.773252" fill="#E2E8F0"/>
<circle cx="87.8621" cy="167.945" r="0.773252" fill="#E2E8F0"/>
<circle cx="87.8621" cy="172.584" r="0.773252" fill="#E2E8F0"/>
<circle cx="87.8621" cy="177.223" r="0.773252" fill="#E2E8F0"/>
<circle cx="87.8621" cy="181.863" r="0.773252" fill="#E2E8F0"/>
<circle cx="87.8621" cy="186.503" r="0.773252" fill="#E2E8F0"/>
<circle cx="87.8621" cy="191.142" r="0.773252" fill="#E2E8F0"/>
<circle cx="87.8621" cy="195.782" r="0.773252" fill="#E2E8F0"/>
<circle cx="87.8621" cy="200.422" r="0.773252" fill="#E2E8F0"/>
<circle cx="87.8621" cy="205.06" r="0.773252" fill="#E2E8F0"/>
<circle cx="92.5018" cy="154.026" r="0.773252" fill="#E2E8F0"/>
<circle cx="92.5018" cy="158.666" r="0.773252" fill="#E2E8F0"/>
<circle cx="92.5018" cy="163.305" r="0.773252" fill="#E2E8F0"/>
<circle cx="92.5018" cy="167.945" r="0.773252" fill="#E2E8F0"/>
<circle cx="92.5018" cy="172.584" r="0.773252" fill="#E2E8F0"/>
<circle cx="92.5018" cy="177.223" r="0.773252" fill="#E2E8F0"/>
<circle cx="92.5018" cy="181.863" r="0.773252" fill="#E2E8F0"/>
<circle cx="92.5018" cy="186.503" r="0.773252" fill="#E2E8F0"/>
<circle cx="92.5018" cy="191.142" r="0.773252" fill="#E2E8F0"/>
<circle cx="92.5018" cy="195.782" r="0.773252" fill="#E2E8F0"/>
<circle cx="92.5018" cy="200.422" r="0.773252" fill="#E2E8F0"/>
<circle cx="92.5018" cy="205.06" r="0.773252" fill="#E2E8F0"/>
<circle cx="97.1414" cy="154.026" r="0.773252" fill="#E2E8F0"/>
<circle cx="97.1414" cy="158.666" r="0.773252" fill="#E2E8F0"/>
<circle cx="97.1414" cy="163.305" r="0.773252" fill="#E2E8F0"/>
<circle cx="97.1414" cy="167.945" r="0.773252" fill="#E2E8F0"/>
<circle cx="97.1414" cy="172.584" r="0.773252" fill="#E2E8F0"/>
<circle cx="97.1414" cy="177.223" r="0.773252" fill="#E2E8F0"/>
<circle cx="97.1414" cy="181.863" r="0.773252" fill="#E2E8F0"/>
<circle cx="97.1414" cy="186.503" r="0.773252" fill="#E2E8F0"/>
<circle cx="97.1414" cy="191.142" r="0.773252" fill="#E2E8F0"/>
<circle cx="97.1414" cy="195.782" r="0.773252" fill="#E2E8F0"/>
<circle cx="97.1414" cy="200.422" r="0.773252" fill="#E2E8F0"/>
<circle cx="97.1414" cy="205.06" r="0.773252" fill="#E2E8F0"/>
<path d="M80.5686 153.314V129.727C80.5686 127.636 82.2636 125.941 84.3544 125.941L258.502 125.941C260.593 125.941 262.288 127.636 262.288 129.727V153.862" stroke="#CBD5E1" stroke-width="0.709841" stroke-linecap="round" stroke-linejoin="round" stroke-dasharray="1.42 1.42"/>
<rect x="118.303" y="22.6339" width="102.464" height="78.8026" rx="7.09841" fill="white"/>
<rect x="118.303" y="22.6339" width="102.464" height="78.8026" rx="7.09841" stroke="#CBD5E1" stroke-width="4.73227"/>
<path d="M142.236 31.0391C142.613 30.8173 143.101 31.1279 143.012 31.5715L141.415 41.1544C141.371 41.5093 140.993 41.7089 140.683 41.5758L137.932 40.4002L136.513 42.1304C136.202 42.5075 135.581 42.3079 135.581 41.7755V39.9787L140.905 33.4792C141.016 33.3461 140.838 33.1908 140.727 33.3018L134.361 38.9139L131.987 37.9157C131.588 37.7604 131.544 37.1837 131.943 36.9619L142.236 31.0391Z" fill="#2F2DB1"/>
<path d="M163.531 31.0391C163.908 30.8173 164.396 31.1279 164.307 31.5715L162.71 41.1544C162.666 41.5093 162.289 41.7089 161.978 41.5758L159.228 40.4002L157.808 42.1304C157.497 42.5075 156.876 42.3079 156.876 41.7755V39.9787L162.2 33.4792C162.311 33.3461 162.134 33.1908 162.023 33.3018L155.656 38.9139L153.283 37.9157C152.883 37.7604 152.839 37.1837 153.238 36.9619L163.531 31.0391Z" fill="#F59E0B"/>
<path d="M184.826 31.0391C185.203 30.8173 185.691 31.1279 185.603 31.5715L184.005 41.1544C183.961 41.5093 183.584 41.7089 183.273 41.5758L180.523 40.4002L179.103 42.1304C178.793 42.5075 178.171 42.3079 178.171 41.7755V39.9787L183.495 33.4792C183.606 33.3461 183.429 33.1908 183.318 33.3018L176.951 38.9139L174.578 37.9157C174.179 37.7604 174.134 37.1837 174.534 36.9619L184.826 31.0391Z" fill="#10B981"/>
<path d="M206.121 31.0391C206.498 30.8173 206.986 31.1279 206.898 31.5715L205.301 41.1544C205.256 41.5093 204.879 41.7089 204.569 41.5758L201.818 40.4002L200.398 42.1304C200.088 42.5075 199.467 42.3079 199.467 41.7755V39.9787L204.79 33.4792C204.901 33.3461 204.724 33.1908 204.613 33.3018L198.247 38.9139L195.873 37.9157C195.474 37.7604 195.429 37.1837 195.829 36.9619L206.121 31.0391Z" fill="#F59E0B"/>
<path d="M142.236 56.4706C142.613 56.2488 143.101 56.5593 143.012 57.003L141.415 66.5858C141.371 66.9408 140.994 67.1404 140.683 67.0073L137.932 65.8316L136.513 67.5619C136.202 67.939 135.581 67.7393 135.581 67.2069V65.4102L140.905 58.9107C141.016 58.7776 140.838 58.6223 140.727 58.7332L134.361 64.3454L131.988 63.3472C131.588 63.1919 131.544 62.6152 131.943 62.3933L142.236 56.4706Z" fill="#2F2DB1"/>
<path d="M163.531 56.4705C163.908 56.2487 164.396 56.5592 164.307 57.0029L162.71 66.5857C162.666 66.9406 162.289 67.1403 161.978 67.0072L159.228 65.8315L157.808 67.5617C157.497 67.9388 156.876 67.7392 156.876 67.2068V65.41L162.2 58.9106C162.311 58.7775 162.134 58.6222 162.023 58.7331L155.656 64.3453L153.283 63.3471C152.883 63.1918 152.839 62.615 153.238 62.3932L163.531 56.4705Z" fill="#F59E0B"/>
<path d="M184.826 56.4705C185.203 56.2487 185.691 56.5592 185.603 57.0029L184.005 66.5857C183.961 66.9406 183.584 67.1403 183.273 67.0072L180.523 65.8315L179.103 67.5617C178.793 67.9388 178.171 67.7392 178.171 67.2068V65.41L183.495 58.9106C183.606 58.7775 183.429 58.6222 183.318 58.7331L176.951 64.3453L174.578 63.3471C174.179 63.1918 174.134 62.615 174.534 62.3932L184.826 56.4705Z" fill="#10B981"/>
<path d="M206.121 56.4705C206.498 56.2487 206.986 56.5592 206.898 57.0029L205.301 66.5857C205.256 66.9406 204.879 67.1403 204.569 67.0072L201.818 65.8315L200.398 67.5617C200.088 67.9388 199.467 67.7392 199.467 67.2068V65.41L204.79 58.9106C204.901 58.7775 204.724 58.6222 204.613 58.7331L198.247 64.3453L195.873 63.3471C195.474 63.1918 195.429 62.615 195.829 62.3932L206.121 56.4705Z" fill="#F59E0B"/>
<path d="M152.883 81.9018C153.26 81.68 153.748 81.9905 153.66 82.4342L152.063 92.017C152.018 92.372 151.641 92.5716 151.331 92.4385L148.58 91.2628L147.16 92.9931C146.85 93.3702 146.229 93.1705 146.229 92.6382V90.8414L151.552 84.3419C151.663 84.2088 151.486 84.0535 151.375 84.1644L145.009 89.7766L142.635 88.7784C142.236 88.6231 142.191 88.0464 142.591 87.8245L152.883 81.9018Z" fill="#2F2DB1"/>
<path d="M174.179 81.9018C174.556 81.68 175.044 81.9905 174.955 82.4342L173.358 92.017C173.313 92.372 172.936 92.5716 172.626 92.4385L169.875 91.2628L168.455 92.9931C168.145 93.3702 167.524 93.1705 167.524 92.6382V90.8414L172.848 84.3419C172.958 84.2088 172.781 84.0535 172.67 84.1644L166.304 89.7766L163.93 88.7784C163.531 88.6231 163.487 88.0464 163.886 87.8245L174.179 81.9018Z" fill="#10B981"/>
<path d="M195.474 81.9018C195.851 81.68 196.339 81.9905 196.25 82.4342L194.653 92.017C194.609 92.372 194.231 92.5716 193.921 92.4385L191.17 91.2628L189.751 92.9931C189.44 93.3702 188.819 93.1705 188.819 92.6382V90.8414L194.143 84.3419C194.254 84.2088 194.076 84.0535 193.965 84.1644L187.599 89.7766L185.225 88.7784C184.826 88.6231 184.782 88.0464 185.181 87.8245L195.474 81.9018Z" fill="#F59E0B"/>
<rect x="46.805" y="149.685" width="66.4575" height="38.6812" rx="7.09841" fill="white"/>
<rect x="46.805" y="149.685" width="66.4575" height="38.6812" rx="7.09841" stroke="#CBD5E1" stroke-width="4.73227"/>
<path d="M61.9483 168.47C60.8984 168.47 60.0554 167.627 60.0554 166.577C60.0554 165.542 60.8984 164.684 61.9483 164.684C62.9835 164.684 63.8412 165.542 63.8412 166.577C63.8412 167.627 62.9835 168.47 61.9483 168.47ZM63.2645 168.943C64.3588 168.943 65.2609 169.846 65.2609 170.94V171.546C65.2609 171.945 64.9356 172.256 64.5511 172.256H59.3456C58.9463 172.256 58.6357 171.945 58.6357 171.546V170.94C58.6357 169.846 59.523 168.943 60.6174 168.943H60.8688C61.1941 169.106 61.5638 169.18 61.9483 169.18C62.3328 169.18 62.6877 169.106 63.0131 168.943H63.2645Z" fill="#10B981"/>
<path d="M78.0997 168.47C77.0497 168.47 76.2068 167.627 76.2068 166.577C76.2068 165.542 77.0497 164.684 78.0997 164.684C79.1349 164.684 79.9926 165.542 79.9926 166.577C79.9926 167.627 79.1349 168.47 78.0997 168.47ZM79.4159 168.943C80.5102 168.943 81.4123 169.846 81.4123 170.94V171.546C81.4123 171.945 81.0869 172.256 80.7024 172.256H75.4969C75.0977 172.256 74.7871 171.945 74.7871 171.546V170.94C74.7871 169.846 75.6744 168.943 76.7687 168.943H77.0201C77.3455 169.106 77.7152 169.18 78.0997 169.18C78.4842 169.18 78.8391 169.106 79.1645 168.943H79.4159Z" fill="#10B981"/>
<path d="M94.2511 168.47C93.2011 168.47 92.3582 167.627 92.3582 166.577C92.3582 165.542 93.2011 164.684 94.2511 164.684C95.2863 164.684 96.144 165.542 96.144 166.577C96.144 167.627 95.2863 168.47 94.2511 168.47ZM95.5672 168.943C96.6616 168.943 97.5637 169.846 97.5637 170.94V171.546C97.5637 171.945 97.2383 172.256 96.8538 172.256H91.6483C91.249 172.256 90.9385 171.945 90.9385 171.546V170.94C90.9385 169.846 91.8258 168.943 92.9201 168.943H93.1715C93.4969 169.106 93.8666 169.18 94.2511 169.18C94.6356 169.18 94.9905 169.106 95.3158 168.943H95.5672Z" fill="#10B981"/>
<rect x="226.323" y="149.685" width="65.4288" height="38.6812" rx="7.09841" fill="white"/>
<rect x="226.323" y="149.685" width="65.4288" height="38.6812" rx="7.09841" stroke="#CBD5E1" stroke-width="4.73227"/>
<path d="M241.466 168.47C240.416 168.47 239.573 167.627 239.573 166.577C239.573 165.542 240.416 164.684 241.466 164.684C242.501 164.684 243.359 165.542 243.359 166.577C243.359 167.627 242.501 168.47 241.466 168.47ZM242.871 168.958C243.935 169.003 244.778 169.875 244.778 170.94V171.546C244.778 171.945 244.453 172.256 244.068 172.256H238.863C238.464 172.256 238.153 171.945 238.153 171.546V170.94C238.153 169.875 238.981 169.003 240.046 168.958L240.756 171.783L241.229 169.772L240.756 168.943H242.176L241.702 169.772L242.176 171.783L242.871 168.958Z" fill="#2F2DB1"/>
<path d="M257.618 168.47C256.568 168.47 255.725 167.627 255.725 166.577C255.725 165.542 256.568 164.684 257.618 164.684C258.653 164.684 259.51 165.542 259.51 166.577C259.51 167.627 258.653 168.47 257.618 168.47ZM259.022 168.958C260.087 169.003 260.93 169.875 260.93 170.94V171.546C260.93 171.945 260.605 172.256 260.22 172.256H255.015C254.615 172.256 254.305 171.945 254.305 171.546V170.94C254.305 169.875 255.133 169.003 256.198 168.958L256.908 171.783L257.381 169.772L256.908 168.943H258.327L257.854 169.772L258.327 171.783L259.022 168.958Z" fill="#2F2DB1"/>
<path d="M273.769 168.47C272.719 168.47 271.876 167.627 271.876 166.577C271.876 165.542 272.719 164.684 273.769 164.684C274.804 164.684 275.662 165.542 275.662 166.577C275.662 167.627 274.804 168.47 273.769 168.47ZM275.174 168.958C276.238 169.003 277.081 169.875 277.081 170.94V171.546C277.081 171.945 276.756 172.256 276.371 172.256H271.166C270.767 172.256 270.456 171.945 270.456 171.546V170.94C270.456 169.875 271.284 169.003 272.349 168.958L273.059 171.783L273.532 169.772L273.059 168.943H274.478L274.005 169.772L274.478 171.783L275.174 168.958Z" fill="#2F2DB1"/>
<path d="M170.008 126.415V153.862" stroke="#CBD5E1" stroke-width="0.709841" stroke-linecap="round" stroke-linejoin="round" stroke-dasharray="1.42 1.42"/>
<path d="M170.008 104.173L170.008 126.415" stroke="#CBD5E1" stroke-width="0.709841" stroke-linecap="round" stroke-linejoin="round" stroke-dasharray="1.42 1.42"/>
<rect x="137.515" y="149.396" width="64.0426" height="38.4578" rx="7.09841" fill="white"/>
<rect x="137.515" y="149.396" width="64.0426" height="38.4578" rx="7.09841" stroke="#CBD5E1" stroke-width="4.73227"/>
<path d="M150.988 167.596C150.855 167.596 150.751 167.493 150.751 167.36V165.94C150.751 165.822 150.855 165.703 150.988 165.703H151.18C151.55 164.875 152.378 164.284 153.354 164.284C154.315 164.284 155.143 164.875 155.513 165.703H155.72C155.839 165.703 155.957 165.822 155.957 165.94V167.36C155.957 167.493 155.839 167.596 155.72 167.596H155.513C155.143 168.439 154.315 169.016 153.354 169.016C152.378 169.016 151.55 168.439 151.18 167.596H150.988ZM151.579 166.295V166.65C151.579 167.434 152.215 168.069 152.999 168.069H153.709C154.493 168.069 155.129 167.434 155.129 166.65V166.295C155.129 165.97 154.803 165.703 154.419 165.703H152.289C151.89 165.703 151.579 165.97 151.579 166.295ZM152.644 167.36L152.467 166.827L151.934 166.65L152.467 166.472L152.644 165.94L152.822 166.472L153.354 166.65L152.822 166.827L152.644 167.36ZM154.877 169.045C155.883 169.149 156.667 169.977 156.667 171.012V171.145C156.667 171.545 156.341 171.855 155.957 171.855H154.774V170.909C154.774 170.657 154.552 170.436 154.301 170.436H152.408C152.141 170.436 151.934 170.657 151.934 170.909V171.855H150.751C150.352 171.855 150.042 171.545 150.042 171.145V171.012C150.042 169.977 150.81 169.149 151.816 169.045C152.26 169.326 152.777 169.489 153.354 169.489C153.916 169.489 154.434 169.326 154.877 169.045ZM154.064 170.909C154.182 170.909 154.301 171.027 154.301 171.145C154.301 171.279 154.182 171.382 154.064 171.382C153.931 171.382 153.827 171.279 153.827 171.145C153.827 171.027 153.931 170.909 154.064 170.909ZM152.644 170.909C152.763 170.909 152.881 171.027 152.881 171.145V171.855H152.408V171.145C152.408 171.027 152.511 170.909 152.644 170.909Z" fill="#F59E0B"/>
<path d="M167.139 167.596C167.006 167.596 166.902 167.493 166.902 167.36V165.94C166.902 165.822 167.006 165.703 167.139 165.703H167.331C167.701 164.875 168.529 164.284 169.505 164.284C170.466 164.284 171.295 164.875 171.664 165.703H171.871C171.99 165.703 172.108 165.822 172.108 165.94V167.36C172.108 167.493 171.99 167.596 171.871 167.596H171.664C171.295 168.439 170.466 169.016 169.505 169.016C168.529 169.016 167.701 168.439 167.331 167.596H167.139ZM167.731 166.295V166.65C167.731 167.434 168.367 168.069 169.15 168.069H169.86C170.644 168.069 171.28 167.434 171.28 166.65V166.295C171.28 165.97 170.954 165.703 170.57 165.703H168.44C168.041 165.703 167.731 165.97 167.731 166.295ZM168.795 167.36L168.618 166.827L168.086 166.65L168.618 166.472L168.795 165.94L168.973 166.472L169.505 166.65L168.973 166.827L168.795 167.36ZM171.028 169.045C172.034 169.149 172.818 169.977 172.818 171.012V171.145C172.818 171.545 172.492 171.855 172.108 171.855H170.925V170.909C170.925 170.657 170.703 170.436 170.452 170.436H168.559C168.293 170.436 168.086 170.657 168.086 170.909V171.855H166.902C166.503 171.855 166.193 171.545 166.193 171.145V171.012C166.193 169.977 166.962 169.149 167.967 169.045C168.411 169.326 168.928 169.489 169.505 169.489C170.067 169.489 170.585 169.326 171.028 169.045ZM170.215 170.909C170.333 170.909 170.452 171.027 170.452 171.145C170.452 171.279 170.333 171.382 170.215 171.382C170.082 171.382 169.978 171.279 169.978 171.145C169.978 171.027 170.082 170.909 170.215 170.909ZM168.795 170.909C168.914 170.909 169.032 171.027 169.032 171.145V171.855H168.559V171.145C168.559 171.027 168.662 170.909 168.795 170.909Z" fill="#F59E0B"/>
<path d="M183.291 167.596C183.158 167.596 183.054 167.493 183.054 167.36V165.94C183.054 165.822 183.158 165.703 183.291 165.703H183.483C183.853 164.875 184.681 164.284 185.657 164.284C186.618 164.284 187.446 164.875 187.816 165.703H188.023C188.141 165.703 188.26 165.822 188.26 165.94V167.36C188.26 167.493 188.141 167.596 188.023 167.596H187.816C187.446 168.439 186.618 169.016 185.657 169.016C184.681 169.016 183.853 168.439 183.483 167.596H183.291ZM183.882 166.295V166.65C183.882 167.434 184.518 168.069 185.302 168.069H186.012C186.796 168.069 187.431 167.434 187.431 166.65V166.295C187.431 165.97 187.106 165.703 186.722 165.703H184.592C184.193 165.703 183.882 165.97 183.882 166.295ZM184.947 167.36L184.77 166.827L184.237 166.65L184.77 166.472L184.947 165.94L185.124 166.472L185.657 166.65L185.124 166.827L184.947 167.36ZM187.18 169.045C188.186 169.149 188.969 169.977 188.969 171.012V171.145C188.969 171.545 188.644 171.855 188.26 171.855H187.077V170.909C187.077 170.657 186.855 170.436 186.603 170.436H184.71C184.444 170.436 184.237 170.657 184.237 170.909V171.855H183.054C182.655 171.855 182.344 171.545 182.344 171.145V171.012C182.344 169.977 183.113 169.149 184.119 169.045C184.562 169.326 185.08 169.489 185.657 169.489C186.219 169.489 186.736 169.326 187.18 169.045ZM186.367 170.909C186.485 170.909 186.603 171.027 186.603 171.145C186.603 171.279 186.485 171.382 186.367 171.382C186.234 171.382 186.13 171.279 186.13 171.145C186.13 171.027 186.234 170.909 186.367 170.909ZM184.947 170.909C185.065 170.909 185.184 171.027 185.184 171.145V171.855H184.71V171.145C184.71 171.027 184.814 170.909 184.947 170.909Z" fill="#F59E0B"/>
</g>
<defs>
<clipPath id="clip0_3599_7769">
<rect width="366.667" height="206" rx="4" fill="white"/>
</clipPath>
</defs>
</svg>
