<svg width="368" height="210" viewBox="0 0 368 210" fill="none" xmlns="http://www.w3.org/2000/svg">
<g clip-path="url(#clip0_3599_6453)">
<path d="M31.1556 207.844C31.1556 207.844 -13.9781 141.55 17.2024 99.6873C46.1162 60.867 91.7638 83.5605 145.652 69.8478C199.541 56.1351 246.891 -18.9659 313.393 10.1687C409.503 52.2724 336.322 202.822 320.676 209.775L31.1556 207.844Z" fill="#F2F2F4"/>
<g filter="url(#filter0_d_3599_6453)">
<path d="M39.0318 8.71154V48.0602C39.0316 48.8177 39.3014 49.5523 39.7962 50.1418C40.2909 50.7312 40.9808 51.1398 41.7509 51.2995C41.9907 51.3493 42.2355 51.374 42.4808 51.3732H106.027C106.272 51.374 106.517 51.3493 106.757 51.2995C107.526 51.1391 108.215 50.7302 108.709 50.1408C109.204 49.5514 109.473 48.8172 109.472 48.0602V8.71154C109.472 7.83288 109.109 6.99021 108.463 6.36891C107.817 5.7476 106.941 5.39856 106.027 5.39856H42.4772C41.5634 5.39856 40.6871 5.7476 40.0409 6.36891C39.3948 6.99021 39.0318 7.83288 39.0318 8.71154Z" fill="#7C521B"/>
</g>
<path d="M66.3374 28.9631L39.0316 47.4863V9.38879L66.3374 28.9631Z" fill="#F2CB2D"/>
<path d="M81.9841 28.7876L109.472 9.38879V47.4863L81.9841 28.7876Z" fill="#F2CB2D"/>
<path d="M71.3213 32.6903C72.1874 33.2514 73.2078 33.5511 74.2521 33.5511C75.2964 33.5511 76.3169 33.2514 77.1829 32.6903L81.6192 29.2632L109.472 47.6566V48.204C109.46 48.9427 109.182 49.6546 108.687 50.2193C108.192 50.784 107.508 51.1668 106.753 51.3029C106.513 51.3508 106.269 51.3743 106.023 51.3731H42.4772C42.232 51.3743 41.9873 51.3508 41.7472 51.3029C40.9927 51.166 40.3105 50.7829 39.8158 50.2183C39.321 49.6537 39.0441 48.9422 39.0318 48.204V47.6566L66.7573 29.3457L71.3213 32.6903Z" fill="#F2CB2D"/>
<path d="M42.4772 5.39856H106.027C107.93 5.39856 109.472 6.80237 109.472 8.53782V9.18006L77.1829 31.1584C76.3152 31.7153 75.2953 32.0124 74.2521 32.0124C73.2089 32.0124 72.1891 31.7153 71.3213 31.1584L39.0318 9.18006V8.53782C39.0318 6.80237 40.5738 5.39856 42.4772 5.39856Z" fill="#F2CB2D"/>
<g filter="url(#filter1_d_3599_6453)">
<path d="M42.1083 17.1362C37.3179 17.1362 33.4346 13.4021 33.4346 8.79583C33.4346 4.18958 37.3179 0.455475 42.1083 0.455475C46.8986 0.455475 50.782 4.18958 50.782 8.79583C50.782 13.4021 46.8986 17.1362 42.1083 17.1362Z" fill="#0F8A56"/>
</g>
<path d="M41.6421 6.82158L40.8501 7.12691C39.7916 7.4568 39.1566 5.95649 40.361 5.5757L42.226 4.91416C42.8337 4.65972 43.3903 4.90012 43.3903 5.80382V12.9281C43.3903 13.8687 41.6439 13.895 41.6439 12.9281L41.6421 6.82158Z" fill="white"/>
<path d="M211.375 68.4693L206.594 91.2053L225.905 98.6333L239.311 85.7156L244.543 40.2949L211.375 68.4693Z" fill="#FFC7AB"/>
<path opacity="0.4" fill-rule="evenodd" clip-rule="evenodd" d="M209.298 77.6737C209.298 77.6737 226.05 78.7491 231.737 65.307C234.676 58.3665 234.862 56.6451 234.862 56.6451L211.724 67.3354L209.298 77.6737Z" fill="#966954"/>
<path fill-rule="evenodd" clip-rule="evenodd" d="M203.677 31.7948C201.033 35.7174 199.586 44.255 199.087 51.8232C198.56 59.8744 198.024 65.0014 200.75 68.03C206.084 73.9503 218.994 79.2629 240.842 59.9624C247.251 54.2966 250.875 35.0383 236.605 27.1986C222.343 19.3662 208.675 24.3764 203.677 31.7948Z" fill="#FFC7AB"/>
<path fill-rule="evenodd" clip-rule="evenodd" d="M214.021 47.9465C214.632 47.9238 215.123 48.5065 215.116 49.2589C215.113 50.0079 214.617 50.6392 214.005 50.6619C213.394 50.6846 212.903 50.1019 212.91 49.3495C212.913 48.6006 213.406 47.9726 214.021 47.9465Z" fill="#22282C"/>
<path fill-rule="evenodd" clip-rule="evenodd" d="M202.765 46.4825C203.376 46.4598 203.867 47.0425 203.86 47.7948C203.857 48.5438 203.361 49.1752 202.75 49.1979C202.138 49.2206 201.647 48.6379 201.654 47.8855C201.658 47.1365 202.15 46.5086 202.765 46.4825Z" fill="#22282C"/>
<path d="M207.984 57.6337C208.062 57.6323 208.14 57.5868 208.173 57.5115C208.218 57.4111 208.174 57.2991 208.073 57.2587C205.83 56.3654 206.841 52.7539 207.574 50.1183C207.811 49.2726 208.017 48.5419 208.094 47.9837C208.351 46.1827 207.562 44.5517 205.814 43.2806C204.514 42.3313 203.157 41.9182 203.099 41.8977C202.994 41.8657 202.885 41.9242 202.844 42.0261C202.809 42.1297 202.865 42.2365 202.965 42.2669C203.021 42.2816 208.27 43.9193 207.696 47.9456C207.621 48.4756 207.418 49.1979 207.187 50.0311C206.415 52.8026 205.352 56.5993 207.906 57.6211C207.935 57.6263 207.964 57.6316 207.984 57.6337Z" fill="#22282C"/>
<path fill-rule="evenodd" clip-rule="evenodd" d="M241.691 26.3155C246.326 27.9754 250.054 31.4005 251.99 35.8066C253.927 40.2127 253.911 45.2066 251.951 49.6358C248.595 57.2022 243.44 64.2413 236.55 60.7228C226.744 55.7122 228.177 34.3325 228.177 34.3325C228.177 34.3325 195.967 42.5679 193.071 29.8164C192.998 29.4921 193.134 29.1613 193.407 28.9688C193.682 28.7696 194.05 28.7557 194.342 28.9191C194.881 29.2252 195.534 29.5095 196.236 29.659C196.547 29.7239 196.873 29.6485 197.12 29.445C197.368 29.2415 197.497 28.9436 197.483 28.6358C197.557 29.7476 197.524 29.362 197.49 28.7387C197.127 22.7182 200.701 17.0886 206.427 14.6582C210.961 12.7307 217.155 11.1312 224.045 12.2464C238.643 14.598 241.691 26.3155 241.691 26.3155Z" fill="#22282C"/>
<path fill-rule="evenodd" clip-rule="evenodd" d="M226.208 52.3474C225.707 51.6405 236.044 43.3254 241.596 47.8818C247.553 52.7673 238.076 61.132 235.023 61.3318L226.208 52.3474Z" fill="#FFC7AB"/>
<path d="M234.733 52.3095L234.971 52.1593L236.782 54.6518L236.544 54.802L234.733 52.3095Z" fill="#22282C"/>
<path d="M216.568 56.32C219.452 56.0865 221.716 53.7885 221.775 50.8601C221.844 47.6432 219.23 44.8627 215.953 44.6645C212.676 44.4617 209.952 46.9201 209.887 50.136C209.823 53.3518 212.432 56.1334 215.709 56.3316C215.998 56.3448 216.284 56.3443 216.568 56.32ZM215.948 44.8451L215.943 45.0256C219.018 45.2153 221.465 47.8196 221.405 50.8355C221.346 53.5844 219.224 55.7344 216.521 55.9569C216.256 55.977 215.988 55.9833 215.717 55.9658C212.642 55.7762 210.195 53.1719 210.255 50.1559C210.32 47.1389 212.87 44.8406 215.945 45.0303L215.948 44.8451Z" fill="#CD6622"/>
<path d="M201.425 54.2116C202.688 54.1104 203.863 53.6114 204.799 52.768C205.946 51.7369 206.593 50.3076 206.626 48.7479C206.695 45.5309 204.081 42.7505 200.805 42.5523C197.527 42.3496 194.804 44.8081 194.739 48.024C194.674 51.2399 197.284 54.0214 200.56 54.2196C200.851 54.2374 201.14 54.2314 201.425 54.2116ZM199.986 42.9234C200.251 42.9034 200.52 42.897 200.79 42.9145C203.865 43.1041 206.312 45.7084 206.252 48.7244C206.222 50.1864 205.615 51.5242 204.537 52.4916C203.463 53.458 202.048 53.9422 200.563 53.8505C197.488 53.6609 195.041 51.0565 195.101 48.0405C195.161 45.2961 197.283 43.146 199.986 42.9234Z" fill="#CD6622"/>
<path d="M209.651 49.7605C209.748 49.7592 209.827 49.689 209.831 49.5975C209.837 49.496 209.755 49.4089 209.644 49.398L206.876 49.1177C206.766 49.1068 206.671 49.1797 206.665 49.2812C206.659 49.3827 206.74 49.4698 206.851 49.4807L209.619 49.761C209.631 49.7639 209.641 49.7622 209.651 49.7605Z" fill="#CD6622"/>
<path d="M221.799 48.6365C221.821 48.6381 221.848 48.6342 221.867 48.6265L228.602 46.1867C228.703 46.1525 228.747 46.0443 228.702 45.9493C228.658 45.8543 228.538 45.809 228.438 45.8432L221.703 48.2829C221.603 48.3171 221.558 48.4253 221.603 48.5204C221.637 48.5928 221.718 48.6388 221.799 48.6365Z" fill="#CD6622"/>
<path fill-rule="evenodd" clip-rule="evenodd" d="M176.699 91.0491C182.984 87.2415 189.817 84.3293 196.972 82.3994C202.85 80.8259 208.945 79.1916 208.945 79.1916C208.945 79.1916 208.074 89.2757 222.1 90.4319C236.117 91.5968 241.067 81.2693 241.067 81.2693C241.067 81.2693 288.909 90.2232 287.651 117.476C286.401 144.738 279.454 209.771 279.454 209.771H162.692L169.241 144.495L157.856 152.127L136.324 115.512C136.334 115.512 162.238 99.8118 176.699 91.0491Z" fill="#211FA6"/>
<path fill-rule="evenodd" clip-rule="evenodd" d="M150.41 191.044L175.727 204.832L262.885 207.839L271.876 179.474L274.11 172.424L275.094 169.294L275.785 167.138L276.438 165.06L234.028 153.281L233.99 153.386L232.892 156.88V156.898L230.318 165.086L225.463 180.517L150.41 191.044Z" fill="#FFC7AB"/>
<path fill-rule="evenodd" clip-rule="evenodd" d="M241.297 96.2892L225.208 154.611L276.211 169.52L287.701 114.71L241.297 96.2892Z" fill="#211FA6"/>
<path d="M276.076 169.783L276.198 169.418L230.296 155.822L237.934 128.125L237.546 128.021L229.813 156.082L276.076 169.783Z" fill="white"/>
<path fill-rule="evenodd" clip-rule="evenodd" d="M89.248 160.79C90.3476 163.64 92.0797 166.169 94.2727 168.253C96.4668 170.328 99.1315 171.959 102.111 172.975C108.078 175.016 114.71 174.452 120.272 171.432C129.159 166.609 140.056 161.346 147.806 157.711C153.691 154.949 157.771 153.111 157.771 153.111C157.771 153.111 140.176 120.93 139.422 120.185C139.361 120.125 138.972 120.232 138.31 120.477C133.331 122.318 112.906 131.934 98.4518 138.804C89.9502 142.838 85.9624 152.369 89.248 160.79Z" fill="#FFC7AB"/>
<path d="M119.567 140.105C119.567 140.105 96.7803 96.6526 97.7375 91.9351C98.69 87.2299 103.612 79.9611 100.521 76.2505C97.4387 72.5359 94.4574 79.3791 91.2716 79.7191C88.6878 79.9817 86.4216 63.9957 79.6984 59.4872C78.6588 58.7952 77.298 58.7499 76.2131 59.3693C75.1235 59.9804 74.5369 61.1465 74.6911 62.319C75.582 68.3358 77.5229 79.7211 79.8483 82.5475C83.0689 86.429 78.3555 71.4931 75.4035 72.6918C74.8103 72.9307 65.9416 74.3417 70.3088 83.8284C70.3088 83.8284 70.4806 78.5659 66.7734 79.9814C60.8743 82.2216 63.2431 87.8915 67.1319 97.9699C71.0299 108.044 66.7937 86.1518 63.4254 87.1813C57.2867 89.0511 60.3872 96.1471 66.9876 116.777C74.4097 139.973 83.5688 166.283 98.4042 173.462C121.325 184.554 119.567 140.105 119.567 140.105Z" fill="#FFC7AB"/>
<path d="M80.5122 97.4804C80.5935 97.4844 80.6621 97.4423 80.7041 97.3708L85.353 88.4144C85.4045 88.3177 85.3662 88.2001 85.263 88.1541C85.1598 88.1081 85.0459 88.1504 84.9944 88.2471L80.4347 97.027C79.5151 96.6091 75.2531 94.7076 72.4764 93.7016C72.3776 93.664 72.2589 93.7189 72.2209 93.8197C72.1829 93.9206 72.2307 94.0338 72.3295 94.0714C75.4344 95.1859 80.391 97.4427 80.4358 97.4636C80.4537 97.4762 80.4805 97.4846 80.5122 97.4804Z" fill="#22282C"/>
<path d="M74.6479 90.2874C75.2395 90.2902 75.8469 90.1524 76.4766 89.8668C80.9621 87.8043 79.0507 83.3483 79.023 83.3057C78.9799 83.2057 78.8593 83.1686 78.7639 83.2073C78.6623 83.2534 78.6125 83.3588 78.6556 83.4587C78.6574 83.4717 79.124 84.5195 79.0526 85.7884C78.9597 87.4624 78.0425 88.715 76.3115 89.5186C75.2897 89.9868 74.3221 90.0259 73.4148 89.6285C70.6085 88.401 69.2691 83.456 69.2617 83.4042C69.2328 83.3024 69.1226 83.2374 69.0192 83.2705C68.9078 83.2981 68.8436 83.4052 68.8725 83.507C68.9242 83.718 70.2736 88.6817 73.2486 89.9797C73.6881 90.1802 74.1573 90.2847 74.6479 90.2874Z" fill="#22282C"/>
<path d="M68.8042 95.1728C69.2819 95.1775 69.7596 95.0774 70.2436 94.8649C71.3216 94.3995 72.0661 93.6911 72.4384 92.7596C73.1831 90.8966 72.2033 88.8174 72.171 88.725C72.1186 88.6304 72.0029 88.5851 71.9066 88.6349C71.8103 88.6848 71.764 88.7927 71.8033 88.8899C71.811 88.9069 72.7532 90.9135 72.0656 92.6294C71.7333 93.4604 71.0637 94.0923 70.0889 94.5126C69.2821 94.8628 68.4737 94.8736 67.6971 94.5449C64.9172 93.3633 63.2836 88.2762 63.2675 88.2299C63.2343 88.1253 63.125 88.0728 63.0209 88.1057C62.9169 88.1385 62.8577 88.249 62.8839 88.3488C62.9571 88.5628 64.5904 93.6498 67.5336 94.8981C67.9497 95.0817 68.3734 95.1773 68.8042 95.1728Z" fill="#22282C"/>
<path d="M64.8023 99.8507C65.399 99.8568 66.0279 99.6403 66.6639 99.2186C67.8973 98.3953 68.5963 97.5041 68.7434 96.5797C68.8943 95.6112 68.377 94.9719 68.3555 94.9453C68.2839 94.8605 68.1578 94.8547 68.0754 94.9141C67.9869 94.981 67.9744 95.1006 68.0459 95.1853C68.0529 95.1901 68.4848 95.7352 68.3562 96.5325C68.2222 97.3494 67.5833 98.1422 66.4454 98.9035C65.6385 99.4514 64.8663 99.6034 64.155 99.3544C61.9871 98.5953 60.9185 94.47 60.9093 94.4286C60.8831 94.3287 60.7733 94.2641 60.6624 94.2921C60.5515 94.3201 60.4852 94.4257 60.5114 94.5255C60.556 94.7082 61.6413 98.8918 64.0055 99.7172C64.2688 99.7951 64.5367 99.8412 64.8023 99.8507Z" fill="#22282C"/>
<path d="M79.1916 85.7664C79.2058 85.7645 79.2282 85.7684 79.2485 85.7591C79.3599 85.7316 79.4238 85.6243 79.3948 85.5225L74.4192 66.0591C74.3903 65.9574 74.28 65.8924 74.1765 65.9255C74.0731 65.9586 74.0012 66.0604 74.0301 66.1622L79.0058 85.6255C79.0249 85.7088 79.1048 85.7644 79.1916 85.7664Z" fill="#22282C"/>
<path opacity="0.4" fill-rule="evenodd" clip-rule="evenodd" d="M137.462 119.194L149.128 157.28C155.072 154.248 159.183 152.23 159.183 152.23C159.183 152.23 139.426 119.609 138.61 118.865C138.53 118.798 138.137 118.914 137.462 119.194Z" fill="#966954"/>
<path d="M169.972 125.469L170.373 125.501L162.907 209.79L162.506 209.758L169.972 125.469Z" fill="white"/>
<path d="M2.46402 209.775H365.65C366.758 209.775 367.665 208.906 367.665 207.843C367.665 206.781 366.758 205.912 365.65 205.912H2.46402C1.3558 205.912 0.449097 206.781 0.449097 207.843C0.449097 208.906 1.3558 209.775 2.46402 209.775Z" fill="#22282C"/>
<path fill-rule="evenodd" clip-rule="evenodd" d="M136.267 198.804H213.929C215.96 198.804 217.606 200.382 217.606 202.325C217.606 204.273 215.96 205.845 213.929 205.845H136.267V198.804Z" fill="#22282C"/>
<path fill-rule="evenodd" clip-rule="evenodd" d="M50.412 149.239C49.9582 147.272 50.4688 145.21 51.7879 143.644C53.107 142.072 55.0998 141.164 57.199 141.164C78.8786 141.164 135.223 141.164 153.194 141.164C156.456 141.164 159.285 143.345 159.98 146.406C162.562 157.721 168.647 184.039 171.724 197.548C172.171 199.515 171.668 201.577 170.342 203.137C169.022 204.709 167.037 205.624 164.931 205.624C143.244 205.624 86.9136 205.624 68.943 205.624C65.6737 205.624 62.8439 203.436 62.156 200.376C59.5746 189.06 53.4757 162.742 50.412 149.239Z" fill="#22282C"/>
<path fill-rule="evenodd" clip-rule="evenodd" d="M44.381 148.738C43.9413 146.77 44.4448 144.713 45.7639 143.147C47.0829 141.581 49.0687 140.669 51.1678 140.669C72.8475 140.669 129.185 140.669 147.163 140.669C150.432 140.669 153.261 142.853 153.949 145.912C156.524 157.274 162.623 184.221 165.701 197.773C166.147 199.741 165.644 201.804 164.325 203.37C163.006 204.942 161.013 205.854 158.914 205.854C137.234 205.854 80.8966 205.854 62.9189 205.854C59.6567 205.854 56.8271 203.664 56.1321 200.604C53.5507 189.236 47.4517 162.289 44.381 148.738Z" fill="#738E9E"/>
<path d="M210.492 62.3442C211.55 62.3442 212.416 62.1028 213.081 61.62C214.079 60.9054 214.23 59.9107 214.23 59.8721C214.25 59.7658 214.169 59.6693 214.059 59.65C213.948 59.6307 213.847 59.7079 213.827 59.8141C213.807 59.9204 213.384 62.4118 209.424 61.871C209.313 61.8517 209.213 61.929 209.193 62.0352C209.172 62.1414 209.253 62.238 209.364 62.2573C209.757 62.3153 210.14 62.3442 210.492 62.3442Z" fill="#22282C"/>
<path fill-rule="evenodd" clip-rule="evenodd" d="M307.667 160.588C307.667 160.588 292.022 138.455 313.894 115.59C320.408 108.777 327.546 106.999 328.099 109.59C328.376 110.866 328.847 115.27 325.947 123.647C322.425 133.757 310.698 154.864 307.667 160.588Z" fill="#25B578"/>
<path fill-rule="evenodd" clip-rule="evenodd" d="M303.67 159.297C303.67 159.297 302.57 134.787 282.578 127.96C282.306 127.866 282.004 127.958 281.839 128.186C281.203 129.044 280.054 131.519 282.515 136.414C285.696 142.732 300.617 156.256 303.67 159.297Z" fill="#25B578"/>
<path fill-rule="evenodd" clip-rule="evenodd" d="M317.221 158.726C317.221 158.726 316.938 147.402 325.066 134.481C332.793 122.18 340.343 122.619 341.55 122.724C344.278 122.948 343.085 137.477 336.077 147.464C329.08 157.455 317.221 158.726 317.221 158.726Z" fill="#25B578"/>
<path fill-rule="evenodd" clip-rule="evenodd" d="M299.779 164.99C299.779 164.99 295.944 153.237 287.742 149.63C279.532 146.024 279.859 146.651 280.039 148.306C280.219 149.961 280.93 156.555 286.694 161.334C292.458 166.112 299.779 164.99 299.779 164.99Z" fill="#25B578"/>
<path fill-rule="evenodd" clip-rule="evenodd" d="M331.14 166.074C331.14 166.074 326.097 185.106 344.139 197.013C344.139 197.013 351.794 182.115 343.02 171.186C342.081 170.02 339.168 167.535 337.904 166.934C334.27 165.226 331.14 166.074 331.14 166.074Z" fill="#25B578"/>
<path d="M308.587 189.786C308.597 189.699 309.433 181.085 313.705 169.081C317.644 158.015 325.381 141.724 339.909 126.958L339.617 126.698C333.179 133.235 327.517 140.623 322.802 148.648C319.024 155.069 315.841 161.906 313.322 168.975C309.04 181.017 308.204 189.67 308.194 189.757L308.587 189.786Z" fill="#615F5D"/>
<path d="M344.452 191.447C344.452 191.418 344.442 188.569 343.142 184.146C341.943 180.081 339.354 173.794 333.884 166.976C331.496 164.002 328.927 162.679 326.257 163.065C322.993 163.529 319.669 166.455 316.354 171.776C313.906 175.706 312.375 179.559 312.365 179.598L312.737 179.733C312.747 179.694 314.269 175.87 316.707 171.969C318.943 168.386 322.419 164.002 326.318 163.451C328.836 163.094 331.274 164.359 333.561 167.218C338.992 173.977 341.55 180.206 342.739 184.233C344.029 188.607 344.039 191.408 344.039 191.437L344.452 191.447Z" fill="#615F5D"/>
<path d="M313.564 186.724L313.937 186.57C313.927 186.541 312.677 183.682 311.438 178.255C310.29 173.243 308.9 164.958 308.819 153.93C308.738 142.911 312.567 132.694 315.78 126.06C319.276 118.866 322.833 114.221 322.863 114.173L322.54 113.941C322.5 113.989 318.924 118.653 315.418 125.886C313.352 130.135 311.72 134.413 310.552 138.624C309.091 143.887 308.376 149.034 308.406 153.939C308.486 165.016 309.877 173.33 311.035 178.362C312.305 183.818 313.554 186.695 313.564 186.724Z" fill="#615F5D"/>
<path d="M308.587 177.898C308.597 172.799 307.308 167.169 304.749 161.153C302.704 156.344 299.842 151.284 296.256 146.117C290.151 137.31 283.955 131.149 283.895 131.082L283.602 131.352C283.663 131.41 289.838 137.561 295.923 146.33C301.535 154.422 308.214 166.464 308.184 177.888L308.587 177.898Z" fill="#615F5D"/>
<path d="M304.336 181.462C304.97 177.396 304.175 173.138 301.968 168.821C300.205 165.373 297.545 161.868 294.06 158.421C288.136 152.549 281.789 148.783 281.718 148.744L281.507 149.073C281.567 149.111 287.884 152.849 293.768 158.691C299.188 164.06 305.343 172.365 303.933 181.404L304.336 181.462Z" fill="#615F5D"/>
<path d="M294.919 169.32H325.546V207.263H294.919V169.32Z" fill="#738E9E"/>
<path d="M335.445 172.654L289.54 173.322L285.192 169.867L331.098 169.199L335.445 172.654Z" fill="#22282C"/>
<path opacity="0.4" fill-rule="evenodd" clip-rule="evenodd" d="M232.616 156.855L232.686 156.894L271.675 179.472L273.911 172.422L274.898 169.293L232.696 156.875L232.616 156.855Z" fill="#966954"/>
</g>
<defs>
<filter id="filter0_d_3599_6453" x="39.0317" y="5.39856" width="70.4407" height="48.015" filterUnits="userSpaceOnUse" color-interpolation-filters="sRGB">
<feFlood flood-opacity="0" result="BackgroundImageFix"/>
<feColorMatrix in="SourceAlpha" type="matrix" values="0 0 0 0 0 0 0 0 0 0 0 0 0 0 0 0 0 0 127 0" result="hardAlpha"/>
<feOffset dy="2.04041"/>
<feComposite in2="hardAlpha" operator="out"/>
<feColorMatrix type="matrix" values="0 0 0 0 0 0 0 0 0 0 0 0 0 0 0 0 0 0 0.15 0"/>
<feBlend mode="normal" in2="BackgroundImageFix" result="effect1_dropShadow_3599_6453"/>
<feBlend mode="normal" in="SourceGraphic" in2="effect1_dropShadow_3599_6453" result="shape"/>
</filter>
<filter id="filter1_d_3599_6453" x="33.4346" y="0.455475" width="17.3474" height="17.4969" filterUnits="userSpaceOnUse" color-interpolation-filters="sRGB">
<feFlood flood-opacity="0" result="BackgroundImageFix"/>
<feColorMatrix in="SourceAlpha" type="matrix" values="0 0 0 0 0 0 0 0 0 0 0 0 0 0 0 0 0 0 127 0" result="hardAlpha"/>
<feOffset dy="0.816164"/>
<feComposite in2="hardAlpha" operator="out"/>
<feColorMatrix type="matrix" values="0 0 0 0 0 0 0 0 0 0 0 0 0 0 0 0 0 0 0.15 0"/>
<feBlend mode="normal" in2="BackgroundImageFix" result="effect1_dropShadow_3599_6453"/>
<feBlend mode="normal" in="SourceGraphic" in2="effect1_dropShadow_3599_6453" result="shape"/>
</filter>
<clipPath id="clip0_3599_6453">
<rect width="368" height="210" fill="white" transform="matrix(-1 0 0 1 368 0)"/>
</clipPath>
</defs>
</svg>
