<svg xmlns="http://www.w3.org/2000/svg" width="53" height="53" viewBox="84 -26 328 328"><rect x="84" y="-26" width="328" height="328" rx="37" fill="#e6f7fd"/><g fill="#00a1e4"><path fill-rule="evenodd" clip-rule="evenodd" d="M143.93,262.3h117.8c50.42-0.06,91.27-40.47,91.33-90.33v-68.17c-0.06-49.86-40.92-90.26-91.33-90.33h-26.47c-50.42,0.06-91.27,40.47-91.33,90.33V262.3z M261.73,237.36h-92.58V103.81c0.05-36.09,29.62-65.34,66.11-65.38h26.47c36.49,0.05,66.06,29.29,66.11,65.38v68.17C327.8,208.07,298.23,237.31,261.73,237.36z"/><path d="M205.2,168.96h72.41c0.23,0,0.41,0.18,0.41,0.41v17.61c0,0.23-0.18,0.41-0.41,0.41H205.2c-0.23,0-0.41-0.18-0.41-0.41v-17.61C204.79,169.14,204.98,168.96,205.2,168.96z"/><path d="M205.2,131.79h86.57c0.23,0,0.41,0.18,0.41,0.41v17.61c0,0.23-0.18,0.41-0.41,0.41H205.2c-0.23,0-0.41-0.18-0.41-0.41V132.2C204.79,131.98,204.98,131.79,205.2,131.79z"/><path d="M205.2,94.62H253c0.23,0,0.41,0.18,0.41,0.41v17.61c0,0.23-0.18,0.41-0.41,0.41h-47.8c-0.23,0-0.41-0.18-0.41-0.41V95.03C204.79,94.81,204.98,94.62,205.2,94.62z"/></g></svg>
