<svg width="16" height="16" viewBox="0 0 16 16" fill="none" xmlns="http://www.w3.org/2000/svg">
<path d="M14.2559 0.929064H13.4352C12.2505 0.929064 11.7508 1.40115 11.7083 2.50306L9.23976 0.538372C8.76997 0.175653 8.19511 -0.013727 7.60787 0.000775023H4.4888C3.95195 0.011446 3.43192 0.195302 3.00214 0.526383C2.57236 0.857464 2.25453 1.31904 2.09354 1.84595L0.124266 8.00778C0.0204794 8.26921 -0.0192222 8.55287 0.00865639 8.8338C0.036535 9.11473 0.131139 9.38429 0.284137 9.61876C0.458228 9.85469 0.685268 10.0438 0.945852 10.1698C1.20644 10.2958 1.49281 10.3551 1.78051 10.3425H5.06348C5.16799 10.3416 5.27148 10.3637 5.36692 10.4075C5.46235 10.4514 5.5475 10.5158 5.61657 10.5965C5.68744 10.6839 5.73902 10.786 5.76772 10.8959C5.79642 11.0058 5.80157 11.1209 5.78281 11.233L5.37367 13.9281C5.30366 14.3194 5.36505 14.7236 5.54776 15.0743C5.73047 15.425 6.02366 15.7014 6.3792 15.8582C6.73474 16.0149 7.13152 16.0426 7.50442 15.9369C7.87732 15.8311 8.20419 15.5981 8.43139 15.2761L11.6911 10.2885V10.9123C11.6911 12.1259 12.1965 12.6213 13.4352 12.6213H14.2559C15.4947 12.6213 16 12.1259 16 10.9123V2.63903C16 1.4246 15.4947 0.929064 14.2559 0.929064Z" fill="#E57373"/>
</svg>
