<svg width="16" height="16" viewBox="0 0 16 16" fill="none" xmlns="http://www.w3.org/2000/svg">
<path d="M15.7158 6.38126C15.8688 6.61571 15.9634 6.88526 15.9913 7.16617C16.0192 7.44708 15.9795 7.73074 15.8758 7.99217L13.9064 14.1541C13.7454 14.681 13.4276 15.1426 12.9978 15.4737C12.568 15.8047 12.048 15.9886 11.5112 15.9992H8.39211C7.80489 16.0137 7.23005 15.8243 6.76031 15.4616L4.29174 13.4968C4.24923 14.5988 3.7495 15.0708 2.56485 15.0708H1.74409C0.505325 15.0709 0 14.5754 0 13.3609V5.08771C0 3.87411 0.505325 3.37866 1.74409 3.37866H2.56485C3.80352 3.37866 4.30883 3.87411 4.30883 5.08771V5.71174L7.56857 0.723983C7.79576 0.401942 8.12263 0.16891 8.49553 0.0631301C8.86844 -0.0426497 9.26522 -0.0148924 9.62077 0.141847C9.97632 0.298586 10.2695 0.574996 10.4522 0.925712C10.6349 1.27643 10.6963 1.68062 10.6263 2.07194L10.2172 4.76692C10.1985 4.87908 10.2037 4.99409 10.2324 5.104C10.2611 5.2139 10.3127 5.31607 10.3836 5.40345C10.4526 5.48414 10.5378 5.54859 10.6332 5.59241C10.7286 5.63623 10.8321 5.65839 10.9366 5.65738H14.2196C14.5073 5.6448 14.7936 5.70408 15.0542 5.83014C15.3148 5.9562 15.5418 6.1453 15.7158 6.38126Z" fill="#68A56F"/>
</svg>
