<svg width="52" height="53" viewBox="0 0 52 53" fill="none" xmlns="http://www.w3.org/2000/svg">
<g filter="url(#filter0_i_165_337)">
<rect y="0.5" width="52" height="52" rx="26" fill="#6291D9"/>
<path d="M19.1801 29.7964C17.9225 30.5335 14.6252 32.0386 16.6335 33.922C17.6145 34.842 18.7071 35.5 20.0808 35.5H27.9192C29.2929 35.5 30.3855 34.842 31.3665 33.922C33.3748 32.0386 30.0775 30.5335 28.8199 29.7964C25.8709 28.0679 22.1291 28.0679 19.1801 29.7964Z" stroke="white" strokeWidth="2" strokeLinecap="round" strokeLinejoin="round"/>
<path d="M28 21.5C28 23.7091 26.2091 25.5 24 25.5C21.7909 25.5 20 23.7091 20 21.5C20 19.2909 21.7909 17.5 24 17.5C26.2091 17.5 28 19.2909 28 21.5Z" stroke="white" strokeWidth="2"/>
<path d="M33.5 18.5V23.5M36 21H31" stroke="white" strokeWidth="2" strokeLinecap="round" strokeLinejoin="round"/>
</g>
<defs>
<filter id="filter0_i_165_337" x="0" y="0.5" width="57" height="56" filterUnits="userSpaceOnUse" color-interpolation-filters="sRGB">
<feFlood flood-opacity="0" result="BackgroundImageFix"/>
<feBlend mode="normal" in="SourceGraphic" in2="BackgroundImageFix" result="shape"/>
<feColorMatrix in="SourceAlpha" type="matrix" values="0 0 0 0 0 0 0 0 0 0 0 0 0 0 0 0 0 0 127 0" result="hardAlpha"/>
<feOffset dx="5" dy="4"/>
<feGaussianBlur stdDeviation="22"/>
<feComposite in2="hardAlpha" operator="arithmetic" k2="-1" k3="1"/>
<feColorMatrix type="matrix" values="0 0 0 0 1 0 0 0 0 1 0 0 0 0 1 0 0 0 0.35 0"/>
<feBlend mode="normal" in2="shape" result="effect1_innerShadow_165_337"/>
</filter>
</defs>
</svg>
