<svg width="53" height="53" viewBox="0 0 53 53" fill="none" xmlns="http://www.w3.org/2000/svg">
<g filter="url(#filter0_i_165_347)">
<rect x="0.25" y="0.5" width="52" height="52" rx="26" fill="#FBB653"/>
<path d="M20.4301 29.7964C19.1725 30.5335 15.8752 32.0386 17.8835 33.922C18.8645 34.842 19.9571 35.5 21.3308 35.5H29.1692C30.5429 35.5 31.6355 34.842 32.6165 33.922C34.6248 32.0386 31.3275 30.5335 30.0699 29.7964C27.1209 28.0679 23.3791 28.0679 20.4301 29.7964Z" stroke="white" strokeWidth="2" strokeLinecap="round" strokeLinejoin="round"/>
<path d="M29.25 21.5C29.25 23.7091 27.4591 25.5 25.25 25.5C23.0409 25.5 21.25 23.7091 21.25 21.5C21.25 19.2909 23.0409 17.5 25.25 17.5C27.4591 17.5 29.25 19.2909 29.25 21.5Z" stroke="white" strokeWidth="2"/>
<path d="M32.25 20.0385C32.25 19.1888 32.9216 18.5 33.75 18.5C34.5784 18.5 35.25 19.1888 35.25 20.0385C35.25 20.3447 35.1627 20.6301 35.0123 20.8698C34.5641 21.5844 33.75 22.2657 33.75 23.1154V23.5" stroke="white" strokeWidth="2" strokeLinecap="round"/>
<path d="M33.7498 25.5H33.7588" stroke="white" strokeWidth="2" strokeLinecap="round" strokeLinejoin="round"/>
</g>
<defs>
<filter id="filter0_i_165_347" x="0.25" y="0.5" width="57" height="56" filterUnits="userSpaceOnUse" color-interpolation-filters="sRGB">
<feFlood flood-opacity="0" result="BackgroundImageFix"/>
<feBlend mode="normal" in="SourceGraphic" in2="BackgroundImageFix" result="shape"/>
<feColorMatrix in="SourceAlpha" type="matrix" values="0 0 0 0 0 0 0 0 0 0 0 0 0 0 0 0 0 0 127 0" result="hardAlpha"/>
<feOffset dx="5" dy="4"/>
<feGaussianBlur stdDeviation="22"/>
<feComposite in2="hardAlpha" operator="arithmetic" k2="-1" k3="1"/>
<feColorMatrix type="matrix" values="0 0 0 0 1 0 0 0 0 1 0 0 0 0 1 0 0 0 0.35 0"/>
<feBlend mode="normal" in2="shape" result="effect1_innerShadow_165_347"/>
</filter>
</defs>
</svg>
