<svg width="14" height="15" viewBox="0 0 14 15" fill="none" xmlns="http://www.w3.org/2000/svg">
<path d="M7.30882 1.56665C9.63812 1.56665 10.8027 1.56665 11.5264 2.25007C12.25 2.93349 12.25 4.03343 12.25 6.23332V8.56665C12.25 10.7665 12.25 11.8665 11.5264 12.5499C10.8027 13.2333 9.63812 13.2333 7.30882 13.2333H6.69118C4.36188 13.2333 3.19724 13.2333 2.47362 12.5499C1.75 11.8665 1.75 10.7665 1.75 8.56665V6.23332C1.75 4.03343 1.75 2.93349 2.47362 2.25007C3.19724 1.56665 4.36189 1.56665 6.69118 1.56665H7.30882Z" fill="#537A52" stroke="#537A52" strokeLinecap="round"/>
<path d="M4.66675 4.48328H9.33341" stroke="white" strokeLinecap="round"/>
<path d="M4.66675 7.39996H9.33341" stroke="white" strokeLinecap="round"/>
<path d="M4.66675 10.3167H7.00008" stroke="white" strokeLinecap="round"/>
</svg>
