<svg width="14" height="14" viewBox="0 0 14 14" fill="none" xmlns="http://www.w3.org/2000/svg">
<path d="M9.45806 2.90639L10.2757 2.0887C10.7273 1.6371 11.4595 1.6371 11.9112 2.0887C12.3627 2.5403 12.3627 3.27249 11.9112 3.72409L11.0934 4.54178M9.45806 2.90639L6.40495 5.95951C5.79521 6.56927 5.49032 6.87411 5.28272 7.24564C5.07511 7.61716 4.86624 8.49444 4.6665 9.33333C5.50539 9.1336 6.38267 8.92471 6.7542 8.7171C7.12572 8.50949 7.43057 8.20464 8.04033 7.59488L11.0934 4.54178M9.45806 2.90639L11.0934 4.54178" stroke="#618E5F" strokeLinecap="round" strokeLinejoin="round"/>
<path d="M12.25 7C12.25 9.47485 12.25 10.7123 11.4812 11.4812C10.7123 12.25 9.47485 12.25 7 12.25C4.52513 12.25 3.28769 12.25 2.51884 11.4812C1.75 10.7123 1.75 9.47485 1.75 7C1.75 4.52513 1.75 3.28769 2.51884 2.51884C3.28769 1.75 4.52513 1.75 7 1.75" stroke="#618E5F" strokeLinecap="round"/>
</svg>
