<svg width="36" height="36" viewBox="0 0 36 36" fill="none" xmlns="http://www.w3.org/2000/svg">
<rect x="0.5" y="0.5" width="35" height="35" rx="5.5" stroke="#537A52"/>
<path d="M9 12C9 10.5858 9 9.87868 9.43934 9.43934C9.87868 9 10.5858 9 12 9C13.4142 9 14.1213 9 14.5607 9.43934C15 9.87868 15 10.5858 15 12C15 13.4142 15 14.1213 14.5607 14.5607C14.1213 15 13.4142 15 12 15C10.5858 15 9.87868 15 9.43934 14.5607C9 14.1213 9 13.4142 9 12Z" stroke="#537A52" strokeWidth="1.5"/>
<path d="M9 24C9 22.5858 9 21.8787 9.43934 21.4393C9.87868 21 10.5858 21 12 21C13.4142 21 14.1213 21 14.5607 21.4393C15 21.8787 15 22.5858 15 24C15 25.4142 15 26.1213 14.5607 26.5607C14.1213 27 13.4142 27 12 27C10.5858 27 9.87868 27 9.43934 26.5607C9 26.1213 9 25.4142 9 24Z" stroke="#537A52" strokeWidth="1.5"/>
<path d="M9 18H15" stroke="#537A52" strokeWidth="1.5" strokeLinecap="round" strokeLinejoin="round"/>
<path d="M18 9V14" stroke="#537A52" strokeWidth="1.5" strokeLinecap="round" strokeLinejoin="round"/>
<path d="M21 12C21 10.5858 21 9.87868 21.4393 9.43934C21.8787 9 22.5858 9 24 9C25.4142 9 26.1213 9 26.5607 9.43934C27 9.87868 27 10.5858 27 12C27 13.4142 27 14.1213 26.5607 14.5607C26.1213 15 25.4142 15 24 15C22.5858 15 21.8787 15 21.4393 14.5607C21 14.1213 21 13.4142 21 12Z" stroke="#537A52" strokeWidth="1.5"/>
<path d="M27 18H21C19.5858 18 18.8787 18 18.4393 18.4393C18 18.8787 18 19.5858 18 21M18 23.7692V26.5385M21 21V22.5C21 23.9464 21.7837 24 23 24C23.5523 24 24 24.4477 24 25M22 27H21M24 21C25.4142 21 26.1213 21 26.5607 21.44C27 21.8799 27 22.5881 27 24.0043C27 25.4206 27 26.1287 26.5607 26.5687C26.24 26.8898 25.7767 26.9766 25 27" stroke="#537A52" strokeWidth="1.5" strokeLinecap="round"/>
</svg>
