<svg width="14" height="14" viewBox="0 0 14 14" fill="none" xmlns="http://www.w3.org/2000/svg">
<path d="M1.16663 7.29166C1.16663 6.64731 1.68896 6.12499 2.33329 6.12499C3.29979 6.12499 4.08329 6.90847 4.08329 7.87499V10.2083C4.08329 11.1748 3.29979 11.9583 2.33329 11.9583C1.68896 11.9583 1.16663 11.436 1.16663 10.7917V7.29166Z" stroke="#537A52" strokeLinecap="round" strokeLinejoin="round"/>
<path d="M9.02928 4.55367L8.87394 5.05534C8.74666 5.46647 8.68302 5.67204 8.73196 5.83438C8.77157 5.96569 8.85848 6.07891 8.97696 6.1534C9.12337 6.24545 9.34487 6.24545 9.78785 6.24545H10.0235C11.5227 6.24545 12.2723 6.24545 12.6264 6.68925C12.6668 6.73995 12.7028 6.7939 12.734 6.85049C13.0063 7.34539 12.6967 8.01214 12.0774 9.34564C11.509 10.5693 11.2248 11.1812 10.6972 11.5413C10.6462 11.5762 10.5937 11.6091 10.5399 11.6399C9.98437 11.9583 9.29616 11.9583 7.91961 11.9583H7.62106C5.95337 11.9583 5.11954 11.9583 4.60146 11.4564C4.08337 10.9544 4.08337 10.1465 4.08337 8.53062V7.96267C4.08337 7.11351 4.08337 6.68896 4.23407 6.30035C4.38477 5.91173 4.67333 5.59218 5.25044 4.95314L7.6371 2.31035C7.69695 2.24402 7.72687 2.21089 7.7533 2.1879C7.99958 1.97359 8.37974 1.99768 8.59511 2.24134C8.61821 2.26747 8.64341 2.3041 8.69381 2.37737C8.77267 2.492 8.81211 2.54934 8.84652 2.60615C9.15417 3.11447 9.24727 3.71839 9.10634 4.29164C9.09059 4.35569 9.07017 4.42172 9.02928 4.55367Z" stroke="#537A52" strokeLinecap="round" strokeLinejoin="round"/>
</svg>
