<svg width="24" height="24" viewBox="0 0 24 24" fill="none" xmlns="http://www.w3.org/2000/svg">
<path d="M6.57757 15.1335C5.1628 15.8916 1.45336 17.4397 3.71266 19.377C4.81631 20.3232 6.04549 21 7.59087 21H16.4091C17.9545 21 19.1837 20.3232 20.2873 19.377C22.5466 17.4397 18.8372 15.8916 17.4224 15.1335C14.1048 13.3555 9.89519 13.3555 6.57757 15.1335Z" fill="#242424"/>
<path d="M16.5 7.5C16.5 9.98528 14.4853 12 12 12C9.51472 12 7.5 9.98528 7.5 7.5C7.5 5.01472 9.51472 3 12 3C14.4853 3 16.5 5.01472 16.5 7.5Z" fill="#242424"/>
</svg>
