<svg width="251" height="76" viewBox="0 0 251 76" fill="none" xmlns="http://www.w3.org/2000/svg">
<path d="M27.2264 60.2639C27.8338 59.9407 28.5132 59.7715 29.2032 59.7715L63.3693 59.7715C64.0594 59.7715 64.7387 59.9407 65.3462 60.2639C69.1568 62.2912 67.6979 68 63.3693 68L29.2032 68C24.8745 68 23.4158 62.2912 27.2264 60.2639Z" fill="#211FA6"/>
<path d="M14.5056 45.8637C15.1031 45.5405 15.7713 45.3713 16.4501 45.3713L76.1251 45.3713C76.8038 45.3713 77.4717 45.5405 78.0691 45.8637C81.8176 47.8911 80.3827 53.5999 76.1251 53.5999L16.45 53.5999C12.1926 53.5999 10.7577 47.8911 14.5056 45.8637Z" fill="#211FA6"/>
<path d="M10.4761 10.3129C9.81915 10.9242 9.25261 11.6429 8.80514 12.4519L1.08948 26.4026C-2.0897 32.1509 2.06946 39.2002 8.64022 39.2002L83.9313 39.2002C90.5017 39.2002 94.661 32.1509 91.4816 26.4026L83.7661 12.4519C83.2783 11.5703 82.6496 10.796 81.9161 10.151C74.5011 14.7989 55.9659 25.7588 46.0668 25.7588C36.281 25.7588 18.0554 15.0481 10.4761 10.3129Z" fill="#211FA6"/>
<path d="M13.7046 8.41747C21.8742 13.3763 37.4894 22.1159 46.068 22.1159C54.698 22.1159 70.4489 13.2714 78.5776 8.32887C77.8199 8.11342 77.0266 8 76.217 8L16.357 8C15.4426 8 14.5492 8.14462 13.7046 8.41747Z" fill="#211FA6"/>
<path d="M120.509 40.4725C118.634 38.7225 117.571 36.2225 117.571 33.5975V33.285C117.571 28.91 120.696 25.16 125.009 24.4725C127.884 23.9725 130.759 24.91 132.821 26.91L133.571 27.66L134.321 26.91C136.321 24.91 139.259 23.9725 142.071 24.4725C146.384 25.16 149.571 28.91 149.571 33.285V33.5975C149.571 36.2225 148.446 38.7225 146.571 40.4725L135.259 51.035C134.821 51.4725 134.196 51.66 133.571 51.66C132.884 51.66 132.259 51.4725 131.821 51.035L120.509 40.4725Z" fill="#D63638"/>
<g clip-path="url(#clip0_3602_4013)">
<path fill-rule="evenodd" clip-rule="evenodd" d="M242.936 76H182.383C178 76 174.571 72.5711 174.571 68.2233V7.77674C174.571 3.42884 178 0 182.383 0H242.936C247.284 0 250.748 3.42884 250.748 7.77674V68.2233C250.748 72.5711 247.284 76 242.936 76ZM193.412 61.8604C193.023 61.8604 192.493 61.7544 192.104 61.6483C190.266 60.9414 189.382 58.9266 190.089 57.0883L205.996 16.3665C206.703 14.5637 208.718 13.6447 210.556 14.3516C212.395 15.0586 213.278 17.0735 212.571 18.9116L196.735 59.6334C196.24 61.0474 194.826 61.8604 193.412 61.8604ZM216.212 56.6996C216.919 57.4066 217.838 57.7247 218.757 57.7247C219.676 57.7247 220.596 57.4066 221.302 56.6996L233.745 44.3627C235.972 42.1357 235.972 38.3889 233.745 36.1619L221.302 23.719C219.995 22.305 217.768 22.305 216.354 23.719C214.94 25.027 214.94 27.254 216.354 28.668L227.807 40.1917L216.248 51.7153C214.763 53.0586 214.763 55.2856 216.212 56.6996Z" fill="#0065FF"/>
</g>
<defs>
<clipPath id="clip0_3602_4013">
<rect width="76" height="76" fill="white" transform="translate(174.571)"/>
</clipPath>
</defs>
</svg>
