<svg width="102" height="67" viewBox="0 0 102 67" fill="none" xmlns="http://www.w3.org/2000/svg">
<rect width="102" height="67" rx="3" fill="url(#paint0_linear_2380_17139)"/>
<path d="M74.5 23.7588C74.3572 23.7588 74.2412 23.6428 74.2412 23.5C74.2412 23.3572 74.3572 23.2412 74.5 23.2412C74.6428 23.2412 74.7588 23.3572 74.7588 23.5C74.7588 23.6428 74.6428 23.7588 74.5 23.7588Z" stroke="#875EFF" stroke-width="2.48287"/>
<path d="M33.5 18.7588C33.3572 18.7588 33.2412 18.6428 33.2412 18.5C33.2412 18.3572 33.3572 18.2412 33.5 18.2412C33.6428 18.2412 33.7588 18.3572 33.7588 18.5C33.7588 18.6428 33.6428 18.7588 33.5 18.7588Z" stroke="#875EFF" stroke-width="2.48287"/>
<path d="M52.5 61C67.6878 61 80 48.6878 80 33.5C80 18.3122 67.6878 6 52.5 6C37.3122 6 25 18.3122 25 33.5C25 48.6878 37.3122 61 52.5 61Z" fill="url(#paint1_linear_2380_17139)"/>
<path d="M66.3586 23.493C66.3586 23.93 66.2937 24.3646 66.1663 24.7822C65.9599 25.4518 65.595 26.0603 65.1033 26.5549C64.959 26.7026 64.8038 26.8392 64.6391 26.9633C64.5308 27.0487 64.417 27.1266 64.2985 27.1967C64.1803 27.27 64.0584 27.3367 63.9332 27.3967C63.7464 27.49 63.5526 27.568 63.3536 27.6301C62.9407 27.759 62.5111 27.8246 62.0791 27.8246H61.2825V48.705H39.0332V23.0401C39.0368 22.0132 39.4417 21.0295 40.1595 20.3034C40.8773 19.5773 41.8499 19.1677 42.865 19.1641H62.0681C64.8816 19.1641 63.2762 19.3348 63.7738 19.5333C63.9118 19.5874 63.9039 19.5777 64.0348 19.6475C64.1007 19.6809 64.1639 19.717 64.2271 19.7559C64.279 19.7847 64.3294 19.8163 64.3782 19.8504C64.6377 20.0164 64.8782 20.2112 65.0951 20.4311C65.3863 20.7263 65.6342 21.0622 65.8312 21.4285C65.9644 21.6754 66.073 21.9351 66.1553 22.2037L66.213 22.4121C66.2485 22.5513 66.2769 22.6923 66.2982 22.8345C66.3351 23.052 66.3553 23.2722 66.3586 23.493Z" fill="url(#paint2_linear_2380_17139)"/>
<path d="M66.3581 23.4362C66.3581 23.8993 66.2921 24.3598 66.1623 24.8024C66.0765 25.0863 65.966 25.3613 65.8322 25.6238C65.6296 26.0115 65.3763 26.3673 65.0797 26.6808C64.9327 26.8374 64.7747 26.9821 64.6069 27.1136C64.495 27.202 64.3804 27.2815 64.2601 27.3609C64.1397 27.4386 64.0155 27.5093 63.888 27.5729C63.6973 27.6705 63.5 27.7532 63.2977 27.8203C62.8773 27.9568 62.4398 28.0263 61.9997 28.0264H61.1885V22.9563C61.1903 22.1455 61.4192 21.3533 61.8466 20.6788C62.274 20.0042 62.881 19.4774 63.5915 19.1641C63.7313 19.2229 63.8712 19.2877 64.0027 19.3613C64.0698 19.3967 64.1342 19.4349 64.1985 19.4762C64.2514 19.5067 64.3028 19.5401 64.3524 19.5763C64.6167 19.7522 64.8616 19.9586 65.0825 20.1916C65.3791 20.5044 65.6316 20.8604 65.8322 21.2486C65.9667 21.5108 66.0772 21.7859 66.1623 22.0701L66.2211 22.2909C66.2575 22.4383 66.2864 22.5877 66.3078 22.7384C66.3417 22.9693 66.3585 23.2026 66.3581 23.4362Z" fill="url(#paint3_linear_2380_17139)"/>
<path d="M57.0532 41.3203H42.4304C42.1857 41.3203 41.9873 41.4856 41.9873 41.6896C41.9873 41.8935 42.1857 42.0588 42.4304 42.0588H57.0532C57.2979 42.0588 57.4963 41.8935 57.4963 41.6896C57.4963 41.4856 57.2979 41.3203 57.0532 41.3203Z" fill="#7047EB"/>
<path d="M57.0532 36.8887H42.4304C42.1857 36.8887 41.9873 37.054 41.9873 37.2579C41.9873 37.4619 42.1857 37.6272 42.4304 37.6272H57.0532C57.2979 37.6272 57.4963 37.4619 57.4963 37.2579C57.4963 37.054 57.2979 36.8887 57.0532 36.8887Z" fill="#7047EB"/>
<path d="M57.0509 32.459H47.6009C47.3553 32.459 47.1562 32.6243 47.1562 32.8282C47.1562 33.0322 47.3553 33.1975 47.6009 33.1975H57.0509C57.2965 33.1975 57.4956 33.0322 57.4956 32.8282C57.4956 32.6243 57.2965 32.459 57.0509 32.459Z" fill="#7047EB"/>
<path d="M50.5229 28.0254H42.314C42.1336 28.0254 41.9873 28.1527 41.9873 28.3098V28.4795C41.9873 28.6366 42.1336 28.7639 42.314 28.7639H50.5229C50.7033 28.7639 50.8496 28.6366 50.8496 28.4795V28.3098C50.8496 28.1527 50.7033 28.0254 50.5229 28.0254Z" fill="#7047EB"/>
<path d="M45.274 32.459H42.3932C42.169 32.459 41.9873 32.6243 41.9873 32.8282C41.9873 33.0322 42.169 33.1975 42.3932 33.1975H45.274C45.4982 33.1975 45.6799 33.0322 45.6799 32.8282C45.6799 32.6243 45.4982 32.459 45.274 32.459Z" fill="#7047EB"/>
<path d="M34.417 35.2979C35.0921 35.1897 35.6311 35.853 35.3872 36.4917L34.9017 37.7628C34.6578 38.4016 33.8139 38.5367 33.3827 38.0061L32.5246 36.9501C32.0934 36.4195 32.3983 35.6211 33.0734 35.513L34.417 35.2979Z" fill="url(#paint4_linear_2380_17139)" fill-opacity="0.5"/>
<path d="M68.1538 38.1979C67.9636 37.4519 68.6522 36.7798 69.3933 36.9881L70.157 37.2027C70.8981 37.411 71.1358 38.3434 70.5849 38.8811L70.0172 39.4351C69.4663 39.9728 68.5399 39.7125 68.3497 38.9665L68.1538 38.1979Z" fill="url(#paint5_linear_2380_17139)" fill-opacity="0.5"/>
<path d="M46.3937 54.3369C46.5163 53.6622 47.4837 53.6622 47.6063 54.3369C47.6503 54.5793 47.8344 54.7721 48.0744 54.8273L48.1157 54.8368C48.8198 54.9987 48.8198 56.0013 48.1157 56.1632L48.0744 56.1727C47.8344 56.2279 47.6503 56.4207 47.6063 56.6631C47.4837 57.3378 46.5163 57.3378 46.3937 56.6631C46.3497 56.4207 46.1656 56.2279 45.9256 56.1727L45.8843 56.1632C45.1802 56.0013 45.1802 54.9987 45.8843 54.8368L45.9256 54.8273C46.1656 54.7721 46.3497 54.5793 46.3937 54.3369Z" fill="url(#paint6_linear_2380_17139)" fill-opacity="0.5"/>
<path d="M55.8969 9.85515C56.0346 9.20316 56.9654 9.20316 57.1031 9.85515C57.1507 10.0806 57.3201 10.2607 57.5422 10.3219L57.5859 10.334C58.2621 10.5206 58.2621 11.4794 57.5859 11.666L57.5422 11.6781C57.3201 11.7393 57.1507 11.9194 57.1031 12.1448C56.9654 12.7968 56.0346 12.7968 55.8969 12.1448C55.8493 11.9194 55.6799 11.7393 55.4578 11.6781L55.4141 11.666C54.7379 11.4794 54.7379 10.5206 55.4141 10.334L55.4578 10.3219C55.6799 10.2607 55.8493 10.0806 55.8969 9.85515Z" fill="url(#paint7_linear_2380_17139)" fill-opacity="0.5"/>
<path d="M66.5897 40.373H52.2612L51.1309 42.8437H65.4584L66.5897 40.373Z" fill="url(#paint8_linear_2380_17139)"/>
<path d="M59.3555 40.0254L60.4648 42.8193H51.1484L50.0371 40.0254H59.3555Z" fill="url(#paint9_linear_2380_17139)" stroke="#9572FF" stroke-width="0.05"/>
<path d="M66.7432 40.0254L65.6318 42.8193H60.5381L61.6484 40.0254H66.7432Z" fill="url(#paint10_linear_2380_17139)" stroke="#9572FF" stroke-width="0.05"/>
<path d="M65.626 42.8691V52.1904H56.3047V42.8691H65.626Z" fill="url(#paint11_linear_2380_17139)" stroke="url(#paint12_linear_2380_17139)" stroke-width="0.05"/>
<path d="M60.4775 42.8691V52.1904H51.1562V42.8691H60.4775Z" fill="url(#paint13_linear_2380_17139)" stroke="url(#paint14_linear_2380_17139)" stroke-width="0.05"/>
<defs>
<linearGradient id="paint0_linear_2380_17139" x1="51" y1="0" x2="51" y2="67" gradientUnits="userSpaceOnUse">
<stop stop-color="#BA72FF"/>
<stop offset="1" stop-color="#8C63FF"/>
</linearGradient>
<linearGradient id="paint1_linear_2380_17139" x1="52.288" y1="-2.95468" x2="52.8514" y2="93.6212" gradientUnits="userSpaceOnUse">
<stop stop-color="#CAE0FF" stop-opacity="0"/>
<stop offset="1" stop-color="#B59CFF"/>
</linearGradient>
<linearGradient id="paint2_linear_2380_17139" x1="52.6959" y1="19.1641" x2="52.6959" y2="48.705" gradientUnits="userSpaceOnUse">
<stop stop-color="#EDF4FF"/>
<stop offset="1" stop-color="#7047EB"/>
</linearGradient>
<linearGradient id="paint3_linear_2380_17139" x1="64.4254" y1="26.8357" x2="58.0805" y2="22.1985" gradientUnits="userSpaceOnUse">
<stop stop-color="#EDF4FF"/>
<stop offset="1" stop-color="#7047EB"/>
</linearGradient>
<linearGradient id="paint4_linear_2380_17139" x1="35.936" y1="35.0546" x2="31.9596" y2="38.2859" gradientUnits="userSpaceOnUse">
<stop stop-color="#A850FF"/>
<stop offset="1" stop-color="#7047EB"/>
</linearGradient>
<linearGradient id="paint5_linear_2380_17139" x1="67.7258" y1="36.5195" x2="71.1594" y2="40.0376" gradientUnits="userSpaceOnUse">
<stop stop-color="#A850FF"/>
<stop offset="1" stop-color="#7047EB"/>
</linearGradient>
<linearGradient id="paint6_linear_2380_17139" x1="47" y1="51" x2="47" y2="60" gradientUnits="userSpaceOnUse">
<stop stop-color="#A850FF"/>
<stop offset="1" stop-color="#7047EB"/>
</linearGradient>
<linearGradient id="paint7_linear_2380_17139" x1="56.5" y1="7" x2="56.5" y2="15" gradientUnits="userSpaceOnUse">
<stop stop-color="#A850FF"/>
<stop offset="1" stop-color="#7047EB"/>
</linearGradient>
<linearGradient id="paint8_linear_2380_17139" x1="51.1134" y1="40.9432" x2="66.6488" y2="41.5744" gradientUnits="userSpaceOnUse">
<stop stop-color="#E4E8FE"/>
<stop offset="1" stop-color="#A38EF3"/>
</linearGradient>
<linearGradient id="paint9_linear_2380_17139" x1="55.251" y1="40" x2="55.251" y2="42.844" gradientUnits="userSpaceOnUse">
<stop stop-color="#A089F3"/>
<stop offset="1" stop-color="#724AEB"/>
</linearGradient>
<linearGradient id="paint10_linear_2380_17139" x1="63.6407" y1="40" x2="63.6407" y2="42.844" gradientUnits="userSpaceOnUse">
<stop stop-color="#A089F3"/>
<stop offset="1" stop-color="#724AEB"/>
</linearGradient>
<linearGradient id="paint11_linear_2380_17139" x1="55.9979" y1="49.8714" x2="69.5378" y2="50.0855" gradientUnits="userSpaceOnUse">
<stop offset="0.392237" stop-color="#8B65FF"/>
<stop offset="1" stop-color="#E9FCFF"/>
</linearGradient>
<linearGradient id="paint12_linear_2380_17139" x1="60.9652" y1="42.8438" x2="60.9652" y2="52.2155" gradientUnits="userSpaceOnUse">
<stop stop-color="#7040FF"/>
<stop offset="1" stop-color="#8057F9"/>
</linearGradient>
<linearGradient id="paint13_linear_2380_17139" x1="53.7157" y1="48.0182" x2="58.8016" y2="49.3436" gradientUnits="userSpaceOnUse">
<stop stop-color="#7047EB"/>
<stop offset="1" stop-color="#724AEB"/>
</linearGradient>
<linearGradient id="paint14_linear_2380_17139" x1="55.8167" y1="42.8438" x2="55.8167" y2="52.2155" gradientUnits="userSpaceOnUse">
<stop stop-color="#7040FF"/>
<stop offset="1" stop-color="#8057F9"/>
</linearGradient>
</defs>
</svg>
