<svg width="30" height="30" viewBox="0 0 30 30" fill="none" xmlns="http://www.w3.org/2000/svg">
<path d="M14.9967 0C14.4444 0 13.9967 0.447716 13.9967 1V12.5872L5.80528 4.39574C5.41476 4.00521 4.78159 4.00521 4.39107 4.39574C4.00054 4.78626 4.00054 5.41943 4.39107 5.80995L12.5811 14H1C0.447715 14 0 14.4477 0 15C0 15.5523 0.447716 16 1 16H12.5858L4.39342 24.1924C4.00289 24.5829 4.00289 25.2161 4.39342 25.6066C4.78394 25.9971 5.41711 25.9971 5.80763 25.6066L13.9967 17.4175V29C13.9967 29.5523 14.4444 30 14.9967 30C15.549 30 15.9967 29.5523 15.9967 29V17.4156L24.1901 25.6089C24.5806 25.9995 25.2137 25.9995 25.6043 25.6089C25.9948 25.2184 25.9948 24.5853 25.6043 24.1947L17.4095 16H29C29.5523 16 30 15.5523 30 15C30 14.4477 29.5523 14 29 14H17.4142L25.6066 5.80762C25.9971 5.4171 25.9971 4.78394 25.6066 4.39341C25.2161 4.00289 24.5829 4.00289 24.1924 4.39341L15.9967 12.5891V1C15.9967 0.447715 15.549 0 14.9967 0Z" fill="black"/>
</svg>
