<svg width="30" height="30" viewBox="0 0 30 30" fill="none" xmlns="http://www.w3.org/2000/svg">
<path d="M10 2C10.5523 2 11 1.55228 11 1C11 0.447715 10.5523 0 10 0H1C0.447715 0 0 0.447715 0 1V10C0 10.5523 0.447715 11 1 11C1.55228 11 2 10.5523 2 10V2H10Z" fill="black"/>
<path d="M29 11C28.4477 11 28 10.5523 28 10V2H20C19.4477 2 19 1.55228 19 1C19 0.447715 19.4477 0 20 0H29C29.5523 0 30 0.447715 30 1V10C30 10.5523 29.5523 11 29 11Z" fill="black"/>
<path d="M29 19C28.4477 19 28 19.4477 28 20V28H20C19.4477 28 19 28.4477 19 29C19 29.5523 19.4477 30 20 30H29C29.5523 30 30 29.5523 30 29V20C30 19.4477 29.5523 19 29 19Z" fill="black"/>
<path d="M1 19C1.55228 19 2 19.4477 2 20V28H10C10.5523 28 11 28.4477 11 29C11 29.5523 10.5523 30 10 30H1C0.447715 30 0 29.5523 0 29V20C0 19.4477 0.447715 19 1 19Z" fill="black"/>
<path d="M14 8C14 7.44771 14.4477 7 15 7C15.5523 7 16 7.44772 16 8V17C16 17.5523 15.5523 18 15 18C14.4477 18 14 17.5523 14 17V8Z" fill="black"/>
<path d="M15 20C14.4477 20 14 20.4477 14 21C14 21.5523 14.4477 22 15 22C15.5523 22 16 21.5523 16 21C16 20.4477 15.5523 20 15 20Z" fill="black"/>
</svg>
