<svg width="30" height="30" viewBox="0 0 30 30" fill="none" xmlns="http://www.w3.org/2000/svg">
<path fill-rule="evenodd" clip-rule="evenodd" d="M5.99998 9C5.99998 12.2813 7.75601 15.1525 10.3796 16.7251C4.98807 18.4689 0.932294 23.1823 0.140671 28.9368C0.0618833 29.5096 0.528112 30 1.10624 30C1.6291 30 2.06435 29.5956 2.14098 29.0784C3.0692 22.8134 8.46699 18.0055 14.9888 18L15 18C15.0971 18 15.1938 17.9985 15.2901 17.9954C20.1264 17.8422 24 13.8735 24 9C24 4.02944 19.9705 0 15 0C10.0294 0 5.99998 4.02944 5.99998 9ZM15.0162 16C18.8747 15.9912 22 12.8606 22 9C22 5.13401 18.866 2 15 2C11.134 2 7.99998 5.13401 7.99998 9C7.99998 12.8625 11.1283 15.9943 14.9894 16L15.0162 16Z" fill="black"/>
<path d="M29.9967 21.3286C29.9942 19.2156 28.3006 17.6 26.1967 17.6C24.1504 17.6 22.53 19.2254 22.53 21.3333C22.53 21.7639 22.8735 22.2 23.3967 22.2C23.6421 22.2 23.8622 22.1173 24.0215 21.9581C24.1807 21.7989 24.2634 21.5788 24.2634 21.3333C24.2634 20.1771 25.1738 19.2667 26.33 19.2667C27.4785 19.2667 28.33 20.1692 28.33 21.3333C28.33 22.1137 27.8501 22.8464 27.0486 23.2173C26.042 23.65 25.3967 24.6557 25.3967 25.7333V26.7333C25.3967 27.1639 25.7401 27.6 26.2634 27.6C26.5088 27.6 26.7289 27.5173 26.8881 27.3581C27.0473 27.1989 27.13 26.9788 27.13 26.7333V25.7333C27.13 25.2792 27.3497 24.9529 27.74 24.7847C29.1477 24.2205 30.0653 22.8133 29.9967 21.3286Z" fill="black"/>
<path d="M25.3967 29.1333C25.3967 28.6101 25.8328 28.2667 26.2634 28.2667C26.6939 28.2667 27.13 28.6101 27.13 29.1333C27.13 29.3788 27.0473 29.5989 26.8881 29.7581C26.7289 29.9173 26.5088 30 26.2634 30C25.7401 30 25.3967 29.5639 25.3967 29.1333Z" fill="black"/>
</svg>
