<svg width="278" height="278" viewBox="0 0 278 278" fill="none" xmlns="http://www.w3.org/2000/svg">
<path d="M192.378 241.393C195.5 248.119 195.02 258.447 199.344 263.732C199.824 263.972 200.064 264.212 200.545 264.453C226.727 263.011 228.168 233.226 215.438 219.294C209.673 214.009 201.506 211.607 191.417 215.931C139.533 238.27 89.81 224.098 59.7843 193.112C43.4503 177.018 32.4009 155.88 29.7586 133.06C21.5916 60.7583 81.1626 14.8791 121.998 9.83477C158.749 5.51107 192.858 18.242 216.158 42.0223C241.38 67.0037 254.831 104.716 246.664 147.953C243.061 167.65 231.291 192.391 204.868 192.391C194.059 192.391 183.73 187.827 176.284 179.9C169.558 173.415 164.754 164.527 164.274 154.198C161.631 115.045 212.315 104.236 208.952 64.8418C208.472 57.8759 205.349 51.6305 200.545 46.5862C185.172 31.9337 154.425 26.409 126.561 32.1739C91.9719 39.1398 58.8235 70.6068 53.0586 108.319C48.2545 138.825 59.0637 173.655 81.8832 197.195C102.06 217.132 131.125 228.182 167.156 219.774C178.686 217.132 187.574 206.323 206.55 209.205C213.276 210.166 218.8 213.289 222.644 217.613C237.777 231.785 235.375 261.57 215.678 268.296C205.349 271.899 186.853 269.017 178.686 260.129L178.446 259.889C177.485 259.408 176.524 258.447 175.563 257.487C172.441 254.844 170.279 249.8 170.759 244.035C171.24 235.868 176.524 229.623 182.289 230.103C184.691 230.343 186.853 231.544 188.294 233.466C190.216 235.388 191.657 238.03 192.378 241.393Z" fill="#524F54"/>
<rect x="23" y="2" width="112" height="112" rx="56" fill="#FCBA39"/>
<path fill-rule="evenodd" clip-rule="evenodd" d="M57 44C60.7332 44 63.8691 41.4429 64.7519 37.9848C64.8332 37.9948 64.916 38 65 38H107C108.105 38 109 37.1046 109 36C109 34.8954 108.105 34 107 34H65C64.916 34 64.8332 34.0052 64.7519 34.0152C63.8691 30.5571 60.7332 28 57 28C52.5817 28 49 31.5817 49 36C49 40.4183 52.5817 44 57 44ZM57 40C59.2091 40 61 38.2091 61 36C61 33.7909 59.2091 32 57 32C54.7909 32 53 33.7909 53 36C53 38.2091 54.7909 40 57 40Z" fill="white"/>
<path fill-rule="evenodd" clip-rule="evenodd" d="M49 80C49 81.1046 49.8954 82 51 82H93C93.084 82 93.1668 81.9948 93.2481 81.9848C94.1309 85.4429 97.2668 88 101 88C105.418 88 109 84.4183 109 80C109 75.5817 105.418 72 101 72C97.2668 72 94.1309 74.5571 93.2481 78.0152C93.1668 78.0052 93.084 78 93 78H51C49.8954 78 49 78.8954 49 80ZM105 80C105 82.2091 103.209 84 101 84C98.7909 84 97 82.2091 97 80C97 77.7909 98.7909 76 101 76C103.209 76 105 77.7909 105 80Z" fill="white"/>
<path fill-rule="evenodd" clip-rule="evenodd" d="M87 60C86.916 60 86.8332 59.9948 86.7519 59.9848C85.8691 63.4429 82.7332 66 79 66C75.2723 66 72.1401 63.4505 71.252 60H51C49.8954 60 49 59.1046 49 58C49 56.8954 49.8954 56 51 56H71.252C72.1401 52.5495 75.2723 50 79 50C82.7332 50 85.8691 52.5571 86.7519 56.0152C86.8332 56.0052 86.916 56 87 56H107C108.105 56 109 56.8954 109 58C109 59.1046 108.105 60 107 60H87ZM79 62C76.7909 62 75 60.2091 75 58C75 55.7909 76.7909 54 79 54C81.2091 54 83 55.7909 83 58C83 60.2091 81.2091 62 79 62Z" fill="white"/>
</svg>
