<svg width="270" height="270" viewBox="0 0 270 270" fill="none" xmlns="http://www.w3.org/2000/svg">
<g clip-path="url(#clip0_2350_849)">
<rect width="270" height="135" fill="white"/>
<rect width="270" height="135" fill="#33879E" fill-opacity="0.13"/>
<path d="M70.3648 94.4207C71.1902 96.1984 71.0632 98.9286 72.2061 100.325C72.3331 100.389 72.3966 100.452 72.5236 100.516C79.4442 100.135 79.8251 92.2619 76.4601 88.5794C74.9363 87.1826 72.7775 86.5476 70.1109 87.6905C56.3966 93.5953 43.2537 89.8492 35.3172 81.6588C30.9997 77.4048 28.0791 71.8175 27.3807 65.7857C25.222 46.6746 40.968 34.5476 51.7617 33.2143C61.4759 32.0714 70.4918 35.4365 76.6505 41.7222C83.3172 48.3254 86.8728 58.2937 84.714 69.7222C83.7617 74.9286 80.6505 81.4683 73.6664 81.4683C70.8093 81.4683 68.0791 80.2619 66.1109 78.1667C64.3331 76.4524 63.0632 74.1032 62.9363 71.373C62.2378 61.0238 75.6347 58.1667 74.7458 47.754C74.6188 45.9127 73.7934 44.2619 72.5236 42.9286C68.4601 39.0556 60.3331 37.5953 52.968 39.1191C43.8251 40.9603 35.0632 49.2778 33.5394 59.246C32.2696 67.3095 35.1267 76.5159 41.1585 82.7381C46.4918 88.008 54.1744 90.9286 63.6982 88.7064C66.7458 88.008 69.095 85.1508 74.1109 85.9127C75.8886 86.1667 77.349 86.9921 78.3648 88.1349C82.3648 91.881 81.7299 99.754 76.5236 101.532C73.7934 102.484 68.9045 101.722 66.7458 99.373L66.6823 99.3095C66.4283 99.1826 66.1744 98.9286 65.9204 98.6746C65.095 97.9762 64.5236 96.6429 64.6505 95.1191C64.7775 92.9603 66.1744 91.3095 67.6982 91.4365C68.3331 91.5 68.9045 91.8175 69.2855 92.3254C69.7934 92.8334 70.1744 93.5318 70.3648 94.4207Z" fill="#524F54"/>
<path d="M160.968 65.5954C161.539 64.8335 161.857 64.0081 162.047 63.1192C162.238 62.2938 162.301 61.5319 162.301 60.8335C162.301 59.8811 162.174 58.9287 161.984 57.9763C161.793 57.0239 161.412 56.135 160.841 55.4366C160.27 54.6747 159.508 54.1033 158.555 53.6589C157.603 53.2144 156.46 53.0239 155.063 53.0239H151.635V68.516H154.174C155.952 68.516 157.412 68.262 158.492 67.6906C159.571 67.1192 160.46 66.4208 160.968 65.5954ZM168.46 59.6271C168.46 61.4684 168.079 63.0557 167.381 64.4525C166.682 65.8493 165.666 66.9922 164.397 67.9446C163.127 68.8335 161.793 69.5319 160.27 69.9763C158.746 70.4208 157.159 70.6112 155.508 70.6112H151.635V81.2144C151.635 81.7858 151.762 82.2938 151.952 82.7382C152.143 83.1827 152.524 83.5001 153.159 83.7541C153.476 83.8811 153.984 83.9446 154.746 84.0716C155.508 84.1985 156.206 84.262 156.841 84.262V86.0398H141.793V84.262C142.174 84.1985 142.746 84.135 143.508 84.0716C144.27 84.0081 144.778 83.8811 145.095 83.7541C145.603 83.5636 145.984 83.2462 146.174 82.8017C146.365 82.3573 146.492 81.8493 146.492 81.2144V56.0081C146.492 55.4366 146.428 54.9287 146.238 54.4208C146.047 53.9128 145.666 53.5954 145.095 53.4049C144.46 53.2144 143.825 53.0239 143.254 52.9604C142.619 52.8969 142.111 52.8335 141.666 52.77V50.9922H157.666C160.905 50.9922 163.571 51.7541 165.603 53.3414C167.444 54.9287 168.46 57.0239 168.46 59.6271ZM140.016 52.77C139.571 52.77 139.127 52.8969 138.619 53.0874C138.047 53.2779 137.603 53.4684 137.095 53.7858C136.524 54.1668 136.079 54.5477 135.698 55.0557C135.317 55.5636 135.063 56.1985 134.746 57.0239C133.603 60.8335 132.206 65.2779 130.682 70.3573C129.159 75.4366 127.444 80.8335 125.666 86.6112H123.381L114.555 59.6271L105.349 86.6112H103.19C101.539 80.8335 99.8887 74.8652 98.1744 68.643C96.3966 62.4208 95.2538 58.2938 94.6823 56.1985C94.5554 55.6906 94.3014 55.2462 94.0474 54.8017C93.73 54.4208 93.349 54.0398 92.8411 53.7223C92.3966 53.4684 91.9522 53.2144 91.3807 53.0874C90.8093 52.9604 90.3014 52.8335 89.8569 52.8335V50.9922H104.143V52.77C102.873 52.8335 101.857 52.9604 100.968 53.1509C100.079 53.3414 99.6347 53.6589 99.6347 54.0398C99.6347 54.1668 99.6347 54.4208 99.6982 54.6747C99.7617 54.9287 99.7617 55.1827 99.8252 55.3096C100.206 56.77 100.905 59.1192 101.857 62.4843C102.809 65.8493 104.206 70.8017 106.111 77.4684L114.873 51.5001H117.286L126.111 78.0398C127.317 73.9763 128.333 70.3573 129.159 67.3096C129.984 64.262 130.746 61.6589 131.254 59.5001C131.635 57.9763 131.889 56.897 132.016 56.3255C132.143 55.7541 132.143 55.3096 132.143 54.8652C132.143 54.2938 131.762 53.8493 131 53.4684C130.238 53.0874 128.968 52.8335 127.254 52.7065V50.9922H139.952L140.016 52.77Z" fill="#33879E"/>
<path d="M242.746 75.6271L241.984 86.0398H214.619V84.262C215 84.1985 215.571 84.135 216.333 84.0716C217.095 84.0081 217.603 83.8811 217.92 83.7541C218.428 83.5636 218.809 83.2462 219 82.8017C219.19 82.3573 219.317 81.8493 219.317 81.2144V56.1985C219.317 55.6271 219.19 55.1827 219 54.7382C218.809 54.2938 218.428 53.9763 217.857 53.7223C217.476 53.5319 216.968 53.3414 216.27 53.1509C215.571 52.9604 215 52.8335 214.555 52.8335V50.9922H229.349V52.77C228.905 52.77 228.27 52.897 227.571 53.0239C226.809 53.1509 226.301 53.3414 225.984 53.4049C225.413 53.5954 225.032 53.9128 224.841 54.4208C224.651 54.8652 224.524 55.4366 224.524 55.9446V79.5001C224.524 80.5795 224.587 81.4049 224.651 82.0398C224.778 82.6112 225.032 83.1192 225.413 83.4366C225.793 83.7541 226.365 83.9446 227.127 84.0081C227.889 84.135 228.905 84.135 230.238 84.135C230.873 84.135 231.508 84.135 232.143 84.0716C232.778 84.0716 233.412 83.9446 234.047 83.8811C234.619 83.7541 235.127 83.6271 235.635 83.5001C236.143 83.3096 236.46 83.1192 236.714 82.8652C237.413 82.1033 238.174 80.9604 239.063 79.4366C239.952 77.9128 240.587 76.643 240.905 75.6906H242.746V75.6271ZM213.159 86.0398H197.666V84.262C198.238 84.262 198.936 84.1985 199.825 84.0716C200.714 83.9446 201.286 83.8176 201.603 83.6271C202.111 83.3097 202.492 82.9922 202.746 82.5477C203 82.1668 203.127 81.6589 203.127 81.0239V55.6271H202.746L190.809 85.4684H189.603L178.238 54.9922H177.92V75.8811C177.92 77.9128 178.047 79.4366 178.301 80.516C178.555 81.5319 178.936 82.2938 179.508 82.8017C179.889 83.1827 180.651 83.5001 181.73 83.8176C182.873 84.135 183.635 84.3255 183.952 84.3255V86.1033H169.793L170.365 84.3255C171.063 84.262 171.317 84.135 172.143 83.9446C172.968 83.7541 173.603 83.5001 174.047 83.1192C174.619 82.6747 175 81.9763 175.254 81.0239C175.444 80.0716 175.571 78.4843 175.571 76.262V58.2938C175.571 57.2779 175.444 56.389 175.19 55.7541C174.936 55.1192 174.619 54.5477 174.111 54.1668C173.603 53.7223 172.968 53.4049 172.27 53.1509C171.508 52.9604 170.809 52.8335 170.047 52.77V50.9922H181.984L192.016 77.2144L200.524 55.3096C200.841 54.4843 201.095 53.6589 201.349 52.77C201.539 51.8811 201.666 51.3096 201.73 50.9922H213.159V52.77C212.714 52.77 212.143 52.8335 211.381 52.9604C210.682 53.0874 210.174 53.2144 209.793 53.3414C209.222 53.5319 208.841 53.8493 208.651 54.3573C208.46 54.8017 208.333 55.3096 208.333 55.8811V81.1509C208.333 81.7223 208.46 82.2303 208.651 82.6112C208.841 82.9922 209.222 83.3731 209.793 83.6271C210.111 83.8176 210.619 83.9446 211.381 84.0716C212.143 84.1985 212.714 84.3255 213.159 84.3255V86.0398Z" fill="#C9471F"/>
<rect width="270" height="135" transform="translate(0 135)" fill="#F15A2B"/>
<path d="M77.8082 193.124C68.4962 193.124 61.0082 186.548 61.0082 176.516C61.0082 166.436 68.4962 159.956 77.8082 159.956C84.0482 159.956 88.1282 162.932 90.6722 166.58L86.1122 169.22C84.3842 166.82 81.3602 164.948 77.8082 164.948C71.4722 164.948 66.7682 169.748 66.7682 176.516C66.7682 183.188 71.4722 188.084 77.8082 188.084C81.0722 188.084 83.9522 186.596 85.3922 185.204V180.26H75.7922V175.316H90.9602V187.268C87.8402 190.772 83.3282 193.124 77.8082 193.124ZM101.702 192.5H96.6624V169.316H101.702V172.676C103.478 170.468 106.262 168.74 109.238 168.74V173.732C108.806 173.636 108.326 173.588 107.702 173.588C105.542 173.588 102.71 175.028 101.702 176.708V192.5ZM132.551 192.5H127.511V189.956C125.783 191.972 123.047 193.076 119.975 193.076C116.231 193.076 111.959 190.484 111.959 185.396C111.959 180.02 116.183 177.812 119.975 177.812C123.143 177.812 125.783 178.82 127.511 180.788V177.332C127.511 174.644 125.255 173.012 122.087 173.012C119.495 173.012 117.191 173.972 115.223 175.988L113.111 172.484C115.799 169.892 119.159 168.74 122.855 168.74C128.039 168.74 132.551 170.9 132.551 177.092V192.5ZM121.991 189.62C124.151 189.62 126.311 188.804 127.511 187.22V183.668C126.311 182.084 124.151 181.268 121.991 181.268C119.159 181.268 116.999 182.948 116.999 185.444C116.999 187.988 119.159 189.62 121.991 189.62ZM150.604 192.5H145.18L135.724 169.316H141.148L147.916 186.692L154.684 169.316H160.06L150.604 192.5ZM165.769 166.484C164.041 166.484 162.649 165.092 162.649 163.364C162.649 161.636 164.041 160.244 165.769 160.244C167.497 160.244 168.889 161.636 168.889 163.364C168.889 165.092 167.497 166.484 165.769 166.484ZM168.265 192.5H163.225V169.316H168.265V192.5ZM181.811 193.076C177.875 193.076 175.859 190.964 175.859 187.076V173.684H172.019V169.316H175.859V162.98H180.899V169.316H185.603V173.684H180.899V185.828C180.899 187.412 181.667 188.612 183.107 188.612C184.067 188.612 184.931 188.18 185.315 187.748L186.515 191.588C185.603 192.404 184.115 193.076 181.811 193.076ZM189.171 201.572L189.891 197.06C190.419 197.3 191.235 197.444 191.811 197.444C193.443 197.444 194.499 196.964 195.171 195.428L196.323 192.788L186.771 169.316H192.195L198.963 186.692L205.731 169.316H211.107L199.923 196.676C198.339 200.612 195.603 201.86 192.003 201.908C191.283 201.908 189.843 201.764 189.171 201.572ZM77.0631 240.5H71.4471V208.484H93.3831V213.428H77.0631V221.684H93.0471V226.628H77.0631V240.5ZM108.862 241.076C101.47 241.076 96.9579 235.508 96.9579 228.884C96.9579 222.212 101.47 216.74 108.862 216.74C116.254 216.74 120.766 222.212 120.766 228.884C120.766 235.508 116.254 241.076 108.862 241.076ZM108.862 236.612C113.182 236.612 115.534 233.012 115.534 228.884C115.534 224.804 113.182 221.204 108.862 221.204C104.59 221.204 102.19 224.804 102.19 228.884C102.19 233.012 104.59 236.612 108.862 236.612ZM130.952 240.5H125.912V217.316H130.952V220.676C132.728 218.468 135.512 216.74 138.488 216.74V221.732C138.056 221.636 137.576 221.588 136.952 221.588C134.792 221.588 131.96 223.028 130.952 224.708V240.5ZM176.057 240.5H171.017V225.38C171.017 222.884 169.913 221.204 167.177 221.204C164.921 221.204 162.809 222.74 161.801 224.276V240.5H156.761V225.38C156.761 222.884 155.705 221.204 152.969 221.204C150.713 221.204 148.649 222.788 147.593 224.276V240.5H142.553V217.316H147.593V220.436C148.601 219.044 151.625 216.74 155.177 216.74C158.633 216.74 160.745 218.468 161.513 220.964C162.809 218.9 165.881 216.74 169.385 216.74C173.609 216.74 176.057 219.044 176.057 223.748V240.5ZM190.552 241.076C186.568 241.076 183.016 239.78 180.616 237.428L182.92 233.828C184.552 235.508 187.768 237.044 190.744 237.044C193.768 237.044 195.352 235.796 195.352 233.972C195.352 229.412 181.336 232.676 181.336 223.748C181.336 219.956 184.6 216.74 190.456 216.74C194.392 216.74 197.368 218.132 199.432 219.956L197.32 223.508C195.928 221.972 193.384 220.724 190.456 220.724C187.816 220.724 186.184 221.972 186.184 223.604C186.184 227.684 200.2 224.612 200.2 233.828C200.2 237.956 196.792 241.076 190.552 241.076Z" fill="white"/>
</g>
<defs>
<clipPath id="clip0_2350_849">
<rect width="270" height="270" fill="white"/>
</clipPath>
</defs>
</svg>
