<svg width="239" height="76" viewBox="0 0 239 76" fill="none" xmlns="http://www.w3.org/2000/svg">
<path d="M27.2264 60.2639C27.8338 59.9407 28.5132 59.7715 29.2032 59.7715L63.3693 59.7715C64.0594 59.7715 64.7387 59.9407 65.3462 60.2639C69.1568 62.2912 67.6979 68 63.3693 68L29.2032 68C24.8745 68 23.4158 62.2912 27.2264 60.2639Z" fill="#211FA6"/>
<path d="M14.5059 45.8637C15.1034 45.5405 15.7715 45.3713 16.4503 45.3713L76.1254 45.3713C76.804 45.3713 77.4719 45.5405 78.0694 45.8637C81.8178 47.8911 80.383 53.5999 76.1254 53.5999L16.4502 53.5999C12.1928 53.5999 10.7579 47.8911 14.5059 45.8637Z" fill="#211FA6"/>
<path d="M10.4761 10.3129C9.81915 10.9242 9.25261 11.6429 8.80514 12.4519L1.08948 26.4026C-2.0897 32.1509 2.06946 39.2002 8.64022 39.2002L83.9313 39.2002C90.5017 39.2002 94.661 32.1509 91.4816 26.4026L83.7661 12.4519C83.2783 11.5703 82.6496 10.796 81.9161 10.151C74.5011 14.7989 55.9659 25.7588 46.0668 25.7588C36.281 25.7588 18.0554 15.0481 10.4761 10.3129Z" fill="#211FA6"/>
<path d="M13.7046 8.41747C21.8742 13.3763 37.4894 22.1159 46.068 22.1159C54.698 22.1159 70.4489 13.2714 78.5776 8.32887C77.8199 8.11342 77.0266 8 76.217 8L16.357 8C15.4426 8 14.5492 8.14462 13.7046 8.41747Z" fill="#211FA6"/>
<path d="M120.509 40.4725C118.634 38.7225 117.571 36.2225 117.571 33.5975V33.285C117.571 28.91 120.696 25.16 125.009 24.4725C127.884 23.9725 130.759 24.91 132.821 26.91L133.571 27.66L134.321 26.91C136.321 24.91 139.259 23.9725 142.071 24.4725C146.384 25.16 149.571 28.91 149.571 33.285V33.5975C149.571 36.2225 148.446 38.7225 146.571 40.4725L135.259 51.035C134.821 51.4725 134.196 51.66 133.571 51.66C132.884 51.66 132.259 51.4725 131.821 51.035L120.509 40.4725Z" fill="#D63638"/>
<mask id="mask0_3602_3929" style="mask-type:luminance" maskUnits="userSpaceOnUse" x="174" y="0" width="65" height="76">
<path d="M238.866 0H174.571V76H238.866V0Z" fill="white"/>
</mask>
<g mask="url(#mask0_3602_3929)">
<path d="M238.718 42.9091L238.855 18.7243C238.877 15.4693 236.958 12.5217 233.978 11.207L210.048 0.689174C208.988 0.222656 207.853 0 206.719 0C205.584 0 204.45 0.222656 203.39 0.689174L179.449 11.207C176.469 12.5217 174.55 15.4799 174.571 18.7243L174.72 42.9091C174.72 43.0893 174.72 43.259 174.699 43.4392C174.54 45.6763 174.253 63.457 203.655 75.4062C204.63 75.8091 205.68 76 206.719 75.9893C207.758 75.9893 208.797 75.7985 209.783 75.4062C239.184 63.457 238.898 45.6763 238.739 43.4392C238.728 43.259 238.718 43.0893 238.718 42.9091Z" fill="url(#paint0_linear_3602_3929)"/>
<path d="M227.872 16.826L230.159 17.6685C230.709 17.8748 230.709 18.6486 230.159 18.855L227.872 19.6974C227.7 19.7662 227.562 19.9037 227.494 20.0757L226.651 22.3626C226.445 22.9127 225.671 22.9127 225.465 22.3626L224.622 20.0757C224.553 19.9037 224.416 19.7662 224.244 19.6974L221.957 18.855C221.407 18.6486 221.407 17.8748 221.957 17.6685L224.244 16.826C224.416 16.7572 224.553 16.6196 224.622 16.4477L225.465 14.1609C225.671 13.6106 226.445 13.6106 226.651 14.1609L227.494 16.4477C227.562 16.6196 227.7 16.7572 227.872 16.826Z" fill="white"/>
<mask id="mask1_3602_3929" style="mask-type:luminance" maskUnits="userSpaceOnUse" x="185" y="54" width="6" height="6">
<path d="M190.152 54.1428H185.076V59.2187H190.152V54.1428Z" fill="white"/>
</mask>
<g mask="url(#mask1_3602_3929)">
<path d="M188.634 55.8735L189.92 56.3472C190.229 56.4633 190.229 56.8983 189.92 57.0144L188.634 57.4881C188.537 57.5267 188.46 57.6042 188.421 57.7008L187.947 58.9866C187.831 59.2961 187.396 59.2961 187.28 58.9866L186.807 57.7008C186.768 57.6042 186.691 57.5267 186.594 57.4881L185.308 57.0144C184.999 56.8983 184.999 56.4633 185.308 56.3472L186.594 55.8735C186.691 55.8348 186.768 55.7574 186.807 55.6607L187.28 54.3748C187.396 54.0655 187.831 54.0655 187.947 54.3748L188.421 55.6607C188.46 55.7574 188.537 55.8348 188.634 55.8735Z" fill="white"/>
</g>
<mask id="mask2_3602_3929" style="mask-type:luminance" maskUnits="userSpaceOnUse" x="188" y="19" width="38" height="38">
<path d="M225.398 19.1756H188.107V56.4665H225.398V19.1756Z" fill="white"/>
</mask>
<g mask="url(#mask2_3602_3929)">
<path d="M216.44 33.4698C220.151 37.8506 222.563 42.3003 223.439 46.0904C224.679 43.5997 225.388 40.794 225.388 37.821C225.388 33.3812 223.833 29.3155 221.244 26.1061L216.558 30.8117C215.839 31.5304 215.79 32.6823 216.45 33.46L216.44 33.4698Z" fill="white"/>
<path d="M205.275 28.4689C199.763 24.6097 195.155 23.7533 193.669 25.2005L193.63 25.2399C191.936 26.9922 193.305 33.0367 198.896 39.8884C199.635 40.7842 200.993 40.8434 201.81 40.0263L205.876 35.9408C208.012 33.7947 207.746 30.2113 205.266 28.4689H205.275Z" fill="white"/>
<path d="M198.966 48.4629L195.087 52.3515C198.276 54.9209 202.332 56.4567 206.743 56.4567C209.027 56.4567 211.212 56.0235 213.24 55.2655C209.686 54.212 205.62 51.8494 201.633 48.3546C200.856 47.6754 199.684 47.7246 198.956 48.4531L198.966 48.4629Z" fill="white"/>
<path d="M196.357 42.9697C192.793 38.7366 190.43 34.4542 189.505 30.7527C188.609 32.9283 188.107 35.3107 188.107 37.8111C188.107 42.2707 189.682 46.366 192.291 49.5753L196.239 45.6178C196.957 44.8992 197.007 43.7473 196.357 42.9697Z" fill="white"/>
<path d="M210.976 36.4132L204.538 42.8811C203.731 43.6883 203.78 45.0272 204.646 45.7654C211.409 51.5442 217.444 53.0209 219.196 51.3177L219.236 51.2784C220.939 49.5163 219.551 43.4324 213.9 36.5412C213.162 35.6454 211.803 35.5863 210.986 36.4132H210.976Z" fill="white"/>
<path d="M213.822 27.9766L218.458 23.3201C215.259 20.731 211.193 19.1756 206.753 19.1756C203.879 19.1756 201.162 19.845 198.73 21.0066C202.471 21.8927 206.842 24.3341 211.144 28.075C211.922 28.7543 213.093 28.705 213.822 27.9766Z" fill="white"/>
</g>
</g>
<defs>
<linearGradient id="paint0_linear_3602_3929" x1="184.182" y1="1.06592e-06" x2="229.119" y2="76.0642" gradientUnits="userSpaceOnUse">
<stop offset="0.159115" stop-color="#9718E7"/>
<stop offset="1" stop-color="#5A2ED4"/>
</linearGradient>
</defs>
</svg>
