<svg width="30" height="30" viewBox="0 0 30 30" fill="none" xmlns="http://www.w3.org/2000/svg"><path d="M14.684 0.051 C 14.457 0.119,14.218 0.331,14.105 0.564 C 14.000 0.781,14.000 0.788,14.000 6.678 L 14.000 12.574 9.863 8.439 C 5.532 4.112,5.523 4.104,5.097 4.101 C 4.838 4.099,4.416 4.327,4.270 4.548 C 4.119 4.777,4.065 5.166,4.149 5.431 C 4.200 5.589,4.987 6.401,8.392 9.812 L 12.572 13.998 6.615 14.012 L 0.659 14.025 0.446 14.175 C -0.142 14.589,-0.142 15.411,0.446 15.825 L 0.659 15.975 6.615 15.988 L 12.572 16.002 8.390 20.188 C 4.558 24.025,4.203 24.394,4.149 24.599 C 3.941 25.389,4.611 26.059,5.401 25.851 C 5.606 25.797,5.978 25.439,9.813 21.609 L 14.000 17.427 14.000 23.331 L 14.000 29.234 14.116 29.455 C 14.180 29.576,14.329 29.743,14.446 29.825 C 14.632 29.956,14.702 29.975,15.000 29.975 C 15.299 29.975,15.369 29.956,15.554 29.825 C 15.671 29.742,15.813 29.585,15.871 29.475 C 15.975 29.276,15.975 29.249,15.988 23.351 L 16.001 17.428 20.188 21.610 C 24.603 26.019,24.471 25.899,24.900 25.899 C 25.430 25.899,25.903 25.412,25.899 24.869 C 25.896 24.481,25.832 24.412,21.561 20.138 L 17.427 16.002 23.380 15.988 L 29.332 15.975 29.535 15.841 C 29.848 15.634,29.975 15.390,29.975 14.996 C 29.975 14.724,29.952 14.633,29.841 14.465 C 29.767 14.354,29.621 14.209,29.516 14.144 L 29.325 14.025 23.377 14.012 L 17.429 13.998 21.610 9.812 C 25.440 5.978,25.797 5.606,25.851 5.401 C 25.930 5.103,25.879 4.772,25.719 4.541 C 25.565 4.319,25.158 4.100,24.903 4.101 C 24.477 4.104,24.468 4.112,20.138 8.439 L 16.000 12.574 16.000 6.730 C 16.000 2.261,15.986 0.838,15.939 0.682 C 15.791 0.189,15.205 -0.105,14.684 0.051 " stroke="none" fill-rule="evenodd"></path></svg>