<svg width="30" height="30" viewBox="0 0 30 30" fill="none" xmlns="http://www.w3.org/2000/svg"><path d="M3.684 1.051 C 3.457 1.119,3.218 1.331,3.105 1.564 L 3.000 1.782 3.000 15.008 L 3.000 28.234 3.116 28.455 C 3.180 28.576,3.329 28.743,3.446 28.825 L 3.659 28.975 11.384 28.988 C 16.823 28.997,19.171 28.985,19.317 28.947 C 19.501 28.899,19.956 28.462,23.209 25.209 C 26.458 21.959,26.899 21.501,26.947 21.318 C 26.985 21.172,26.997 18.250,26.988 11.389 L 26.975 1.668 26.841 1.465 C 26.767 1.354,26.621 1.209,26.516 1.144 L 26.325 1.025 15.075 1.017 C 8.888 1.012,3.762 1.027,3.684 1.051 M15.441 7.130 C 16.220 7.518,16.135 8.655,15.305 8.941 C 15.183 8.983,14.377 9.000,12.466 9.000 C 9.590 9.000,9.595 9.000,9.307 8.735 C 9.015 8.467,8.922 7.953,9.096 7.569 C 9.196 7.348,9.456 7.119,9.684 7.051 C 9.762 7.028,11.030 7.007,12.503 7.004 L 15.180 7.000 15.441 7.130 M20.516 12.144 C 20.621 12.209,20.767 12.354,20.841 12.465 C 20.953 12.634,20.975 12.723,20.975 13.000 C 20.975 13.277,20.953 13.366,20.841 13.535 C 20.767 13.646,20.621 13.791,20.516 13.856 L 20.325 13.975 15.000 13.975 L 9.675 13.975 9.484 13.856 C 9.106 13.621,8.928 13.154,9.047 12.709 C 9.117 12.452,9.424 12.125,9.661 12.056 C 9.762 12.027,11.851 12.011,15.075 12.017 L 20.325 12.025 20.516 12.144 M15.558 17.176 C 16.199 17.621,16.125 18.582,15.425 18.905 C 15.239 18.992,15.044 18.998,12.545 18.999 C 10.623 19.000,9.817 18.983,9.695 18.941 C 9.277 18.797,9.028 18.447,9.027 17.999 C 9.026 17.604,9.211 17.303,9.562 17.128 L 9.825 16.997 12.583 17.011 L 15.341 17.025 15.558 17.176 M25.000 20.013 C 25.000 20.020,23.425 21.600,21.500 23.525 L 18.000 27.025 18.000 23.512 L 18.000 20.000 21.500 20.000 C 23.425 20.000,25.000 20.006,25.000 20.013 " stroke="none" fill-rule="evenodd"></path></svg>