<svg width="30" height="30" viewBox="0 0 30 30" fill="none" xmlns="http://www.w3.org/2000/svg"><path d="M0.684 0.050 C 0.457 0.119,0.218 0.331,0.105 0.564 C 0.001 0.780,0.000 0.807,0.000 5.508 L 0.000 10.234 0.116 10.455 C 0.180 10.576,0.329 10.742,0.446 10.825 C 0.631 10.956,0.702 10.975,0.995 10.975 C 1.277 10.975,1.365 10.953,1.535 10.841 C 1.646 10.767,1.791 10.621,1.856 10.516 L 1.975 10.325 1.989 6.164 L 2.002 2.002 6.164 1.989 L 10.325 1.975 10.516 1.856 C 10.621 1.791,10.767 1.646,10.841 1.535 C 10.953 1.366,10.975 1.277,10.975 1.000 C 10.975 0.723,10.953 0.634,10.841 0.465 C 10.767 0.354,10.621 0.209,10.516 0.144 L 10.325 0.025 5.575 0.016 C 2.963 0.012,0.762 0.027,0.684 0.050 M19.684 0.050 C 19.303 0.166,19.000 0.590,19.000 1.008 C 19.000 1.310,19.178 1.636,19.446 1.825 L 19.659 1.975 23.829 1.989 L 28.000 2.002 28.000 6.118 L 28.000 10.234 28.116 10.455 C 28.180 10.576,28.329 10.742,28.446 10.825 C 28.631 10.956,28.702 10.975,28.995 10.975 C 29.277 10.975,29.365 10.953,29.535 10.841 C 29.646 10.767,29.791 10.621,29.856 10.516 L 29.975 10.325 29.975 5.496 L 29.975 0.668 29.841 0.465 C 29.767 0.354,29.621 0.209,29.516 0.144 L 29.325 0.025 24.575 0.016 C 21.963 0.012,19.762 0.027,19.684 0.050 M14.684 7.048 C 14.454 7.122,14.217 7.333,14.105 7.564 C 14.001 7.780,14.000 7.807,14.000 12.508 L 14.000 17.234 14.116 17.455 C 14.180 17.576,14.329 17.743,14.446 17.825 C 14.631 17.956,14.702 17.975,14.995 17.975 C 15.277 17.975,15.365 17.953,15.535 17.841 C 15.646 17.767,15.791 17.621,15.856 17.516 L 15.975 17.325 15.975 12.500 L 15.975 7.675 15.856 7.484 C 15.687 7.212,15.416 7.048,15.093 7.023 C 14.946 7.012,14.762 7.023,14.684 7.048 M0.684 19.048 C 0.454 19.122,0.217 19.333,0.105 19.564 C 0.001 19.780,0.000 19.807,0.000 24.508 L 0.000 29.234 0.116 29.455 C 0.180 29.576,0.329 29.743,0.446 29.825 L 0.659 29.975 5.495 29.975 L 10.332 29.975 10.535 29.841 C 10.848 29.634,10.975 29.390,10.975 28.996 C 10.975 28.724,10.952 28.633,10.841 28.465 C 10.767 28.354,10.621 28.209,10.516 28.144 L 10.325 28.025 6.164 28.011 L 2.002 27.998 1.989 23.836 L 1.975 19.675 1.856 19.484 C 1.687 19.212,1.416 19.048,1.093 19.023 C 0.946 19.012,0.762 19.023,0.684 19.048 M28.684 19.048 C 28.454 19.122,28.217 19.333,28.105 19.564 C 28.001 19.780,28.000 19.817,28.000 23.890 L 28.000 27.998 23.829 28.011 L 19.659 28.025 19.446 28.175 C 18.858 28.589,18.858 29.411,19.446 29.825 L 19.659 29.975 24.495 29.975 L 29.332 29.975 29.535 29.841 C 29.646 29.767,29.791 29.621,29.856 29.516 L 29.975 29.325 29.975 24.500 L 29.975 19.675 29.856 19.484 C 29.687 19.212,29.416 19.048,29.093 19.023 C 28.946 19.012,28.762 19.023,28.684 19.048 M14.684 20.048 C 14.299 20.172,14.000 20.591,14.000 21.008 C 14.000 21.310,14.178 21.636,14.446 21.825 C 14.631 21.956,14.702 21.975,14.995 21.975 C 15.277 21.975,15.365 21.953,15.535 21.841 C 15.847 21.634,15.975 21.390,15.975 21.000 C 15.975 20.615,15.847 20.366,15.549 20.169 C 15.341 20.031,14.921 19.972,14.684 20.048 " stroke="none" fill-rule="evenodd"></path></svg>