<svg width="30" height="30" viewBox="0 0 30 30" fill="none" xmlns="http://www.w3.org/2000/svg"><path d="M0.684 0.050 C 0.457 0.119,0.218 0.331,0.105 0.564 C 0.001 0.780,0.000 0.807,0.000 5.508 L 0.000 10.234 0.116 10.455 C 0.180 10.576,0.329 10.742,0.446 10.825 C 0.631 10.956,0.702 10.975,0.995 10.975 C 1.277 10.975,1.365 10.953,1.535 10.841 C 1.646 10.767,1.791 10.621,1.856 10.516 L 1.975 10.325 1.989 6.164 L 2.002 2.002 6.164 1.989 L 10.325 1.975 10.516 1.856 C 10.621 1.791,10.767 1.646,10.841 1.535 C 10.953 1.366,10.975 1.277,10.975 1.000 C 10.975 0.723,10.953 0.634,10.841 0.465 C 10.767 0.354,10.621 0.209,10.516 0.144 L 10.325 0.025 5.575 0.016 C 2.963 0.012,0.762 0.027,0.684 0.050 M19.684 0.050 C 19.303 0.166,19.000 0.590,19.000 1.008 C 19.000 1.310,19.178 1.636,19.446 1.825 L 19.659 1.975 23.829 1.989 L 28.000 2.002 28.000 6.118 L 28.000 10.234 28.116 10.455 C 28.180 10.576,28.329 10.742,28.446 10.825 C 28.631 10.956,28.702 10.975,28.995 10.975 C 29.277 10.975,29.365 10.953,29.535 10.841 C 29.646 10.767,29.791 10.621,29.856 10.516 L 29.975 10.325 29.975 5.496 L 29.975 0.668 29.841 0.465 C 29.767 0.354,29.621 0.209,29.516 0.144 L 29.325 0.025 24.575 0.016 C 21.963 0.012,19.762 0.027,19.684 0.050 M9.275 8.447 C 9.073 8.496,8.842 8.620,8.743 8.732 C 8.491 9.020,8.422 9.465,8.573 9.828 C 8.632 9.970,9.345 10.716,11.114 12.488 L 13.573 14.950 11.043 17.488 C 8.672 19.867,8.510 20.040,8.448 20.270 C 8.235 21.067,9.051 21.751,9.828 21.427 C 9.970 21.368,10.722 20.650,12.512 18.861 L 15.000 16.377 17.488 18.861 C 19.278 20.650,20.030 21.368,20.172 21.427 C 20.549 21.584,21.064 21.489,21.310 21.217 C 21.428 21.086,21.598 20.699,21.599 20.556 C 21.603 20.145,21.603 20.145,18.955 17.488 L 16.427 14.950 18.886 12.488 C 20.656 10.716,21.368 9.970,21.427 9.828 C 21.584 9.452,21.488 8.931,21.218 8.694 C 20.922 8.434,20.427 8.358,20.099 8.523 C 20.003 8.570,18.817 9.716,17.463 11.067 L 15.000 13.525 12.538 11.067 C 11.183 9.716,10.008 8.577,9.925 8.536 C 9.725 8.439,9.459 8.402,9.275 8.447 M0.684 19.048 C 0.454 19.122,0.217 19.333,0.105 19.564 C 0.001 19.780,0.000 19.807,0.000 24.508 L 0.000 29.234 0.116 29.455 C 0.180 29.576,0.329 29.743,0.446 29.825 L 0.659 29.975 5.495 29.975 L 10.332 29.975 10.535 29.841 C 10.848 29.634,10.975 29.390,10.975 28.996 C 10.975 28.724,10.952 28.633,10.841 28.465 C 10.767 28.354,10.621 28.209,10.516 28.144 L 10.325 28.025 6.164 28.011 L 2.002 27.998 1.989 23.836 L 1.975 19.675 1.856 19.484 C 1.687 19.212,1.416 19.048,1.093 19.023 C 0.946 19.012,0.762 19.023,0.684 19.048 M28.684 19.048 C 28.454 19.122,28.217 19.333,28.105 19.564 C 28.001 19.780,28.000 19.817,28.000 23.890 L 28.000 27.998 23.829 28.011 L 19.659 28.025 19.446 28.175 C 18.858 28.589,18.858 29.411,19.446 29.825 L 19.659 29.975 24.495 29.975 L 29.332 29.975 29.535 29.841 C 29.646 29.767,29.791 29.621,29.856 29.516 L 29.975 29.325 29.975 24.500 L 29.975 19.675 29.856 19.484 C 29.687 19.212,29.416 19.048,29.093 19.023 C 28.946 19.012,28.762 19.023,28.684 19.048 " stroke="none" fill-rule="evenodd"></path></svg>