<svg width="50" height="50" viewBox="0 0 50 50" fill="none" xmlns="http://www.w3.org/2000/svg">
<g clip-path="url(#clip0_3602_3751)">
<path d="M25 50C38.8071 50 50 38.8071 50 25C50 11.1929 38.8071 0 25 0C11.1929 0 0 11.1929 0 25C0 38.8071 11.1929 50 25 50Z" fill="#0F8A56"/>
<path d="M32.9922 17.23C33.5391 17.6597 33.6562 18.4409 33.2656 18.9878L23.2656 32.7378C23.0312 33.0112 22.7188 33.2065 22.3672 33.2456C21.9766 33.2847 21.625 33.1284 21.3516 32.894L16.3516 27.894C15.8828 27.3862 15.8828 26.605 16.3516 26.0972C16.8594 25.6284 17.6406 25.6284 18.1484 26.0972L22.0938 30.0815L31.2344 17.5034C31.6641 16.9565 32.4453 16.8394 32.9922 17.23Z" fill="white"/>
</g>
<defs>
<clipPath id="clip0_3602_3751">
<rect width="50" height="50" fill="white"/>
</clipPath>
</defs>
</svg>
