<svg width="263" height="62" viewBox="0 0 263 62" fill="none" xmlns="http://www.w3.org/2000/svg">
<path d="M27.2708 52.8567C27.8793 52.533 28.5597 52.3635 29.2509 52.3635L63.4728 52.3635C64.164 52.3635 64.8444 52.533 65.4529 52.8567C69.2697 54.8873 67.8085 60.6055 63.4728 60.6055L29.2509 60.6055C24.9152 60.6055 23.454 54.8873 27.2708 52.8567Z" fill="#211FA6"/>
<path d="M14.5296 38.433C15.1281 38.1093 15.7973 37.9398 16.4772 37.9398L76.2497 37.9398C76.9294 37.9398 77.5984 38.1093 78.1969 38.433C81.9514 40.4637 80.5142 46.1818 76.2497 46.1818L16.4771 46.1818C12.2127 46.1818 10.7755 40.4637 14.5296 38.433Z" fill="#211FA6"/>
<path d="M10.4932 2.82416C9.83518 3.43648 9.26772 4.1563 8.81951 4.96665L1.09126 18.9402C-2.09311 24.6978 2.07284 31.7586 8.65433 31.7586L84.0684 31.7586C90.6495 31.7586 94.8156 24.6978 91.6309 18.9402L83.9029 4.96665C83.4143 4.08361 82.7845 3.30807 82.0499 2.66199C74.6228 7.31746 56.0573 18.2953 46.142 18.2953C36.3403 18.2953 18.0849 7.56709 10.4932 2.82416Z" fill="#211FA6"/>
<path d="M13.727 0.925636C21.9099 5.89257 37.5506 14.6464 46.1432 14.6464C54.7873 14.6464 70.564 5.78751 78.7058 0.836886C77.947 0.621085 77.1524 0.507485 76.3414 0.507485L16.3838 0.50748C15.4678 0.50748 14.573 0.652333 13.727 0.925636Z" fill="#211FA6"/>
<path d="M120.706 33.033C118.827 31.2801 117.763 28.7761 117.763 26.1468V25.8338C117.763 21.4516 120.893 17.6955 125.213 17.0069C128.093 16.5061 130.972 17.4451 133.038 19.4484L133.789 20.1996L134.541 19.4484C136.544 17.4451 139.486 16.5061 142.303 17.0069C146.623 17.6955 149.816 21.4516 149.816 25.8338V26.1468C149.816 28.7761 148.689 31.2801 146.811 33.033L135.48 43.6127C135.041 44.051 134.415 44.2388 133.789 44.2388C133.101 44.2388 132.475 44.051 132.037 43.6127L120.706 33.033Z" fill="#D63638"/>
<g clip-path="url(#clip0_3602_3653)">
<path d="M209.397 2.65606C209.397 1.21051 208.245 0.04701 206.8 0H191.58C190.628 0 189.747 0.51711 189.288 1.33978L177.254 22.7058C176.267 24.4569 177.536 26.6311 179.546 26.6311H194.741C195.693 26.6194 196.563 26.1023 197.033 25.2796L209.021 4.0311C209.021 4.0311 209.021 4.0311 209.009 4.0311C209.256 3.63152 209.397 3.16142 209.397 2.65606Z" fill="#0065FF"/>
<path d="M262.565 30.3684C262.565 29.8748 262.424 29.4165 262.189 29.0287L247.945 3.73729L237.309 22.553L241.023 29.1344C241.234 29.5105 241.34 29.9453 241.34 30.4154C241.34 30.8385 241.223 31.2381 241.046 31.5907L227.014 56.506C226.697 56.9408 226.509 57.4697 226.509 58.0573C226.509 59.5146 227.684 60.7016 229.141 60.7251H244.314C245.266 60.7251 246.147 60.208 246.605 59.3853L262.307 31.5202C262.307 31.5202 262.295 31.5084 262.283 31.5084C262.448 31.1559 262.554 30.7798 262.554 30.3684H262.565Z" fill="#0065FF"/>
<path d="M247.945 3.73729L245.841 0L235.476 18.2281L235.182 18.7452L232.878 22.7998C233.337 22.0007 234.195 21.4718 235.182 21.4718C236.063 21.4718 236.851 21.9066 237.333 22.5648L247.945 3.73729Z" fill="#004CBA"/>
<path d="M226.285 0C226.25 0 226.226 0 226.191 0C225.145 0 224.24 0.611129 223.817 1.49257L203.168 37.984C202.71 38.795 201.828 39.3591 200.829 39.3591C199.83 39.3591 198.902 38.7715 198.455 37.9253L194.953 31.72C194.483 30.8855 193.601 30.3802 192.649 30.3802L177.489 30.4272C175.479 30.4272 174.21 32.6014 175.197 34.3525L189.312 59.3971C189.782 60.2198 190.651 60.7369 191.603 60.7369H209.655C209.679 60.7369 209.702 60.7369 209.726 60.7369C210.736 60.7369 211.594 60.1728 212.053 59.3383L225.004 36.5973L232.855 22.7998L235.158 18.7452L235.452 18.2281L245.829 0H226.285Z" fill="#0065FF"/>
</g>
<defs>
<clipPath id="clip0_3602_3653">
<rect width="88" height="61.0133" fill="white" transform="translate(174.856) scale(1.00163)"/>
</clipPath>
</defs>
</svg>
