<?xml version="1.0" encoding="UTF-8"?> <svg xmlns="http://www.w3.org/2000/svg" width="50" height="50" viewBox="0 0 50 50"><metadata><?xpacket begin="﻿" id="W5M0MpCehiHzreSzNTczkc9d"?><?xpacket end="w"?></metadata><defs><style> .cls-1 { fill: #fff; fill-rule: evenodd; } </style></defs><path class="cls-1" d="M184.8,5522.2a7.312,7.312,0,0,0-5.412-2.24h-5.145v-2.75a1.226,1.226,0,0,0-1.227-1.21H148.508a1.227,1.227,0,0,0-1.228,1.21v4.22H142.5a1.215,1.215,0,1,0,0,2.43h6.015a1.228,1.228,0,0,0,1.227-1.22v-4.22H171.8v19H160.241a0.792,0.792,0,0,0-.154.01,4.132,4.132,0,0,0-7.651.02,1.206,1.206,0,0,0-.266-0.03h-2.425v-4.23a1.228,1.228,0,0,0-1.227-1.22H142.5a1.215,1.215,0,1,0,0,2.43h4.777v4.22a1.227,1.227,0,0,0,1.228,1.21h3.733a4.134,4.134,0,0,0,8.04,0h14.71a4.134,4.134,0,0,0,8.04,0h2.742a1.226,1.226,0,0,0,1.227-1.21v-10.07A9.109,9.109,0,0,0,184.8,5522.2Zm-28.54,18.39a1.645,1.645,0,1,1,1.668-1.65A1.66,1.66,0,0,1,156.261,5540.59Zm22.75,0a1.645,1.645,0,1,1,1.667-1.65A1.659,1.659,0,0,1,179.011,5540.59Zm5.534-3.17h-1.719a4.129,4.129,0,0,0-7.63,0h-0.942v-15.04H179.4c3.222,0,5.145,2.31,5.145,6.18v8.86Zm-26.463-7.23a1.194,1.194,0,0,0,0,1.71,1.215,1.215,0,0,0,.87.36,1.229,1.229,0,0,0,.869-0.36l3.161-3.12,0.01-.01c0.021-.03.051-0.05,0.072-0.08s0.02-.03.03-0.05a0.2,0.2,0,0,1,.041-0.05c0.011-.02.021-0.04,0.031-0.06s0.021-.03.031-0.05l0.03-.06a0.1,0.1,0,0,0,.021-0.05c0.01-.02.01-0.04,0.02-0.06a0.327,0.327,0,0,1,.021-0.05,0.127,0.127,0,0,0,.01-0.06c0-.02.01-0.04,0.01-0.06s0.011-.04.011-0.07,0.01-.03.01-0.05a1.044,1.044,0,0,0,0-.25,0.09,0.09,0,0,0-.01-0.05c0-.02-0.011-0.04-0.011-0.07s-0.01-.04-0.01-0.06-0.01-.04-0.01-0.06a0.2,0.2,0,0,0-.021-0.05c-0.01-.02-0.01-0.04-0.02-0.06a0.108,0.108,0,0,1-.021-0.05l-0.03-.06c-0.01-.02-0.021-0.03-0.031-0.05s-0.02-.04-0.031-0.06a0.164,0.164,0,0,0-.041-0.05c-0.01-.02-0.02-0.03-0.03-0.05s-0.051-.05-0.072-0.08l-0.01-.01-3.007-2.97a1.23,1.23,0,0,0-1.739,0,1.194,1.194,0,0,0,0,1.71l0.91,0.9H138.227a1.215,1.215,0,1,0,0,2.43h20.909Z" transform="translate(-137 -5504.5)"></path></svg> 