<?xml version="1.0" encoding="UTF-8"?> <svg xmlns="http://www.w3.org/2000/svg" width="50" height="50" viewBox="0 0 50 50"><metadata><?xpacket begin="﻿" id="W5M0MpCehiHzreSzNTczkc9d"?><?xpacket end="w"?></metadata><defs><style> .cls-1 { fill: #fff; fill-rule: evenodd; } </style></defs><path class="cls-1" d="M1138.13,5512.86A19.993,19.993,0,1,0,1124,5547a19.244,19.244,0,0,0,8.18-1.65,8.665,8.665,0,0,0,4.36-4.14,5,5,0,0,0-1.26-5.63l-0.06-.06a0.6,0.6,0,0,1,.08-0.08,2.707,2.707,0,0,0-.01-3.97l-2.85-2.85a2.743,2.743,0,0,0-1.95-.89,2.814,2.814,0,0,0-1.98.88l-1.48,1.48a2,2,0,0,0-.21-0.1,5.4,5.4,0,0,1-.49-0.27,17.4,17.4,0,0,1-4.18-3.81,10.208,10.208,0,0,1-1.26-1.95c0.37-.34.71-0.7,1.05-1.04,0.14-.15.29-0.29,0.43-0.44a2.636,2.636,0,0,0,0-3.98l-1.4-1.41c-0.17-.16-0.32-0.32-0.48-0.49-0.31-.32-0.63-0.65-0.98-0.97a2.721,2.721,0,0,0-1.93-.84,2.806,2.806,0,0,0-1.96.84l-0.02.02-1.77,1.77a4.071,4.071,0,0,0-1.2,2.58,9.456,9.456,0,0,0,.68,3.96,22.887,22.887,0,0,0,4,6.69,24.786,24.786,0,0,0,8.2,6.42,13.012,13.012,0,0,0,4.66,1.37c0.11,0.01.23,0.01,0.34,0.01a4.163,4.163,0,0,0,3.2-1.38l0.03-.03c0.02-.03.06-0.06,0.09-0.1l0.05,0.05a3.032,3.032,0,0,1,.83,3.48c-0.95,2.25-4.62,4.55-10.71,4.55a18.02,18.02,0,1,1,18.02-18.02,18.474,18.474,0,0,1-.65,4.81,0.976,0.976,0,0,0,.69,1.21,0.991,0.991,0,0,0,1.22-.69,20.326,20.326,0,0,0,.72-5.33A19.915,19.915,0,0,0,1138.13,5512.86Zm-5.89,22.87a2.183,2.183,0,0,1-1.73.73,1.62,1.62,0,0,1-.22-0.01,10.821,10.821,0,0,1-3.92-1.19,22.54,22.54,0,0,1-7.53-5.9,20.548,20.548,0,0,1-3.67-6.1,7.257,7.257,0,0,1-.57-3.11,2.109,2.109,0,0,1,.63-1.35l1.77-1.76a0.95,0.95,0,0,1,.59-0.29,0.817,0.817,0,0,1,.55.28c0.01,0.01.01,0.02,0.02,0.03,0.31,0.29.61,0.59,0.92,0.91,0.17,0.17.33,0.34,0.5,0.5l1.4,1.41a0.7,0.7,0,0,1,0,1.19c-0.14.15-.29,0.3-0.44,0.45-0.44.43-.84,0.85-1.28,1.25a0.176,0.176,0,0,0-.05.04,1.344,1.344,0,0,0-.33,1.47c0.01,0.03.01,0.04,0.02,0.07a11.87,11.87,0,0,0,1.71,2.79l0.01,0.01a19.373,19.373,0,0,0,4.66,4.24,7.157,7.157,0,0,0,.66.36,5.205,5.205,0,0,1,.48.26,0.405,0.405,0,0,0,.09.05,1.417,1.417,0,0,0,.65.16,1.323,1.323,0,0,0,.98-0.45l1.77-1.77a0.889,0.889,0,0,1,.58-0.3,0.8,0.8,0,0,1,.53.29,0.02,0.02,0,0,0,.02.01l2.85,2.85a0.749,0.749,0,0,1-.02,1.21l-0.01.01c-0.19.21-.39,0.4-0.61,0.62C1132.92,5535.01,1132.57,5535.35,1132.24,5535.73Z" transform="translate(-1099 -5502)"></path></svg> 