<?xml version="1.0" encoding="UTF-8"?> <svg xmlns="http://www.w3.org/2000/svg" width="50" height="50" viewBox="0 0 50 50"><metadata><?xpacket begin="﻿" id="W5M0MpCehiHzreSzNTczkc9d"?><?xpacket end="w"?></metadata><defs><style> .cls-1 { fill: #fff; fill-rule: evenodd; } </style></defs><path class="cls-1" d="M1630.99,5514.53a2.643,2.643,0,0,0-2.45-2.82c-0.29-.05-0.59-0.08-0.89-0.11-0.86-.11-1.68-0.2-2.47-0.38a25.439,25.439,0,0,1-9.33-4.47,3.2,3.2,0,0,0-1.84-.75,3.257,3.257,0,0,0-1.84.74c-4.4,3.1-8.36,4.68-12.46,4.95a2.656,2.656,0,0,0-2.7,2.99v3.31c-0.01,3.05-.01,6.2.02,9.31a17.109,17.109,0,0,0,.42,3.57,16.166,16.166,0,0,0,4.41,7.83,30.031,30.031,0,0,0,11.13,7.12,2.946,2.946,0,0,0,.99.18,3,3,0,0,0,1.22-.26c0.25-.11.51-0.22,0.76-0.33l0.02-.01c1.11-.49,2.25-1,3.37-1.6a24.659,24.659,0,0,0,8.62-7.3,14.445,14.445,0,0,0,2.94-7.98c0.03-.54.04-1.1,0.05-1.74l0.04-5.14v-2.09C1631,5517.87,1631,5516.2,1630.99,5514.53Zm-1.94,7.01v0.06l-0.04,5.15c-0.01.62-.03,1.16-0.04,1.67a12.472,12.472,0,0,1-2.57,6.89,22.927,22.927,0,0,1-7.96,6.72c-1.05.57-2.16,1.06-3.23,1.53l-0.03.01c-0.26.12-.51,0.23-0.77,0.34a1.049,1.049,0,0,1-.44.09,0.729,0.729,0,0,1-.3-0.05,28.293,28.293,0,0,1-10.44-6.65,14.18,14.18,0,0,1-4.26-10.01c-0.03-3.1-.02-6.25-0.02-9.3v-3.31a1.277,1.277,0,0,1,.17-0.78,1.151,1.151,0,0,1,.72-0.21c4.46-.3,8.73-1.98,13.43-5.31a1.7,1.7,0,0,1,.74-0.38,1.751,1.751,0,0,1,.73.39,27.408,27.408,0,0,0,10.03,4.78,25.209,25.209,0,0,0,2.67.41c0.29,0.03.57,0.06,0.86,0.11a0.71,0.71,0,0,1,.76.84v5.01Zm-10.08-2.15-5.71,5.86-2.33-2.39a0.948,0.948,0,0,0-1.37,0,1,1,0,0,0,0,1.4l3.01,3.1a0.978,0.978,0,0,0,.69.29,0.955,0.955,0,0,0,.68-0.29l6.4-6.57a1,1,0,0,0,0-1.4A0.948,0.948,0,0,0,1618.97,5519.39Z" transform="translate(-1589 -5501)"></path></svg> 