<?xml version="1.0" encoding="UTF-8"?> <svg xmlns="http://www.w3.org/2000/svg" width="50" height="50" viewBox="0 0 50 50"><metadata><?xpacket begin="﻿" id="W5M0MpCehiHzreSzNTczkc9d"?><?xpacket end="w"?></metadata><defs><style> .cls-1 { fill: #fff; fill-rule: evenodd; } </style></defs><path class="cls-1" d="M651.086,5512.86a20.317,20.317,0,0,0-28.73.18,1.074,1.074,0,0,0,.018,1.52,1.1,1.1,0,0,0,1.54-.01A17.808,17.808,0,1,1,618.8,5527v-0.22l1.793,1.77a1.086,1.086,0,0,0,.77.32,1.1,1.1,0,0,0,.77-0.32,1.064,1.064,0,0,0,0-1.52l-3.641-3.62a1.1,1.1,0,0,0-1.54,0l-3.65,3.62a1.064,1.064,0,0,0,0,1.52,1.086,1.086,0,0,0,.77.32,1.1,1.1,0,0,0,.77-0.32l1.793-1.77V5527a19.78,19.78,0,0,0,5.914,14.14,20.316,20.316,0,0,0,28.549,0A19.872,19.872,0,0,0,651.086,5512.86Zm-1.745,7.34a0.7,0.7,0,0,0-.066-0.29,0.643,0.643,0,0,0-.444-0.34l-11.177-5.37a0.721,0.721,0,0,0-.576,0l-11.287,5.42a0.649,0.649,0,0,0-.373.56v13.61a0.654,0.654,0,0,0,.373.59l11.287,5.41s0,0,.011.01a0.1,0.1,0,0,1,.049.02h0.022c0.017,0.01.033,0.01,0.05,0.02h0.016c0.016,0.01.038,0.01,0.055,0.02h0.175a0.119,0.119,0,0,0,.055-0.02h0.017c0.016-.01.033-0.01,0.049-0.02H637.6c0.017-.01.033-0.01,0.049-0.02s0.006,0,.011-0.01l11.32-5.43a0.663,0.663,0,0,0,.373-0.59v-13.55A0.019,0.019,0,0,1,649.341,5520.2Zm-11.978-4.69,9.789,4.7-3.605,1.73-9.789-4.7Zm0,9.39-9.788-4.69,4.674-2.24,9.789,4.69Zm-10.628-3.64,9.97,4.78v12.12l-9.97-4.78v-12.12Zm11.287,16.9v-12.12l4.68-2.25v3.17a0.659,0.659,0,0,0,1.317,0v-3.8l4-1.93v12.13Z" transform="translate(-610 -5502)"></path></svg> 