<svg width="24" height="24" viewBox="0 0 24 24" fill="none" xmlns="http://www.w3.org/2000/svg">
<path d="M14.4999 12.0044C14.5003 12.7255 14.3702 13.4408 14.1159 14.1156C13.4408 14.3698 12.7254 14.5001 12.0041 14.5002H11.9956C11.2528 14.4993 10.5411 14.3635 9.88438 14.1159C9.62998 13.441 9.49976 12.7256 9.5 12.0044V11.9956C9.49965 11.2746 9.62961 10.5595 9.88359 9.88469C10.5586 9.63001 11.2742 9.49968 11.9957 9.5H12.0041C12.7255 9.49965 13.4411 9.62996 14.116 9.88461C14.3703 10.5593 14.5004 11.2745 14.5 11.9955L14.4999 12.0044ZM21.8611 10.3334H16.0239L20.1512 6.20578C19.8272 5.75072 19.4659 5.32348 19.0709 4.92852C18.6758 4.53398 18.2487 4.17263 17.7939 3.84883L13.6663 7.97641V2.13922C13.1174 2.04687 12.5617 2.0003 12.005 2L11.9947 2C11.4284 2.00031 10.8738 2.04844 10.3334 2.13922V7.97641L6.20578 3.84883C5.75089 4.17254 5.32395 4.53383 4.92945 4.92891L4.92727 4.93047C4.53293 5.32494 4.17208 5.75151 3.84844 6.20578L7.97633 10.3334H2.13922C2.13922 10.3334 2 11.4297 2 11.9966V12.0034C2 12.5703 2.04805 13.1259 2.13922 13.6666H7.97641L3.84852 17.7942C4.49786 18.7055 5.29453 19.5021 6.20578 20.1515L10.3334 16.0236V21.8611C10.8817 21.953 11.4367 21.9994 11.9927 22H12.0069C12.5629 21.9995 13.1179 21.953 13.6663 21.8611V16.0236L17.7942 20.1515C18.2489 19.8276 18.676 19.4664 19.0709 19.0718L19.0718 19.0709C19.4663 18.6759 19.8273 18.2489 20.1512 17.7942L16.0233 13.6666H21.8611C21.952 13.1268 21.9994 12.5729 22 12.0073V11.9927C21.9994 11.4271 21.952 10.8732 21.8611 10.3334Z" fill="#242424"/>
</svg>
