<svg width="14" height="14" viewBox="0 0 14 14" fill="none" xmlns="http://www.w3.org/2000/svg">
<path d="M1.16699 6.70832C1.16699 7.35267 1.68933 7.87499 2.33366 7.87499C3.30015 7.87499 4.08366 7.09152 4.08366 6.12499V3.79166C4.08366 2.82516 3.30015 2.04166 2.33366 2.04166C1.68933 2.04166 1.16699 2.56399 1.16699 3.20832V6.70832Z" stroke="#E57373" strokeLinecap="round" strokeLinejoin="round"/>
<path d="M9.02892 9.44632L8.87358 8.94465C8.74629 8.53351 8.68265 8.32795 8.73159 8.16561C8.7712 8.0343 8.85812 7.92107 8.97659 7.84658C9.12301 7.75453 9.3445 7.75453 9.78748 7.75453H10.0231C11.5224 7.75453 12.272 7.75453 12.626 7.31073C12.6665 7.26004 12.7025 7.20608 12.7336 7.1495C13.006 6.6546 12.6963 5.98785 12.077 4.65435C11.5087 3.43064 11.2245 2.81878 10.6968 2.45865C10.6458 2.42379 10.5933 2.3909 10.5395 2.36007C9.98401 2.04166 9.29579 2.04166 7.91924 2.04166H7.62069C5.953 2.04166 5.11917 2.04166 4.60109 2.54363C4.08301 3.04561 4.08301 3.85353 4.08301 5.46936V6.03731C4.08301 6.88647 4.08301 7.31102 4.23371 7.69964C4.3844 8.08826 4.67296 8.40781 5.25008 9.04685L7.63673 11.6896C7.69658 11.756 7.72651 11.7891 7.75293 11.8121C7.99922 12.0264 8.37937 12.0023 8.59474 11.7586C8.61784 11.7325 8.64304 11.6959 8.69344 11.6226C8.77231 11.508 8.81174 11.4506 8.84616 11.3938C9.15381 10.8855 9.24691 10.2816 9.10597 9.70835C9.09022 9.6443 9.06981 9.57827 9.02892 9.44632Z" stroke="#E57373" strokeLinecap="round" strokeLinejoin="round"/>
</svg>
